solid OpenSCAD_Model
  facet normal -0.500003 0.866024 0
    outer loop
      vertex -26.7143 -6 -3.2
      vertex -26.7898 -6.04359 0.3
      vertex -26.7143 -6 0.3
    endloop
  endfacet
  facet normal -0.500003 0.866024 0
    outer loop
      vertex -26.7898 -6.04359 0.3
      vertex -26.7143 -6 -3.2
      vertex -26.7898 -6.04359 -3.2
    endloop
  endfacet
  facet normal -0.5 0.866025 0
    outer loop
      vertex -12.0674 2.45641 0.299999
      vertex -12.1429 2.41282 0.3
      vertex -12.0674 2.45641 0.3
    endloop
  endfacet
  facet normal -0.5 0.866025 0
    outer loop
      vertex -12.1429 2.41282 0.3
      vertex -12.0674 2.45641 0.299999
      vertex -12.1429 2.41282 0.299999
    endloop
  endfacet
  facet normal 0 0 1
    outer loop
      vertex -19.6114 -10.4769 0.3
      vertex -21.9326 -14.4564 0.3
      vertex -21.8571 -14.4128 0.3
    endloop
  endfacet
  facet normal 0 0 1
    outer loop
      vertex -22.1828 -6.02308 0.3
      vertex -21.9326 -14.4564 0.3
      vertex -19.6114 -10.4769 0.3
    endloop
  endfacet
  facet normal 0 0 1
    outer loop
      vertex -26.7898 -6.04359 0.3
      vertex -22.1828 -6.02308 0.3
      vertex -26.7143 -6 0.3
    endloop
  endfacet
  facet normal 0 0 1
    outer loop
      vertex -22.1828 -6.02308 0.3
      vertex -26.7898 -6.04359 0.3
      vertex -21.9326 -14.4564 0.3
    endloop
  endfacet
  facet normal 0 0 1
    outer loop
      vertex -22.1429 -6 0.3
      vertex -22.1828 -5.97692 0.3
      vertex -22.1828 -6.02308 0.3
    endloop
  endfacet
  facet normal 0 0 1
    outer loop
      vertex -19.5714 -10.4538 0.3
      vertex -19.6114 -10.4769 0.3
      vertex -19.5714 -10.5 0.3
    endloop
  endfacet
  facet normal 0 0 1
    outer loop
      vertex -14.4286 -1.5 0.3
      vertex -12.1429 2.41282 0.3
      vertex -12.1429 2.5 0.3
    endloop
  endfacet
  facet normal 0 0 1
    outer loop
      vertex -12.1429 2.41282 0.3
      vertex -14.4286 -1.5 0.3
      vertex -14.3886 -1.52308 0.3
    endloop
  endfacet
  facet normal 0 0 1
    outer loop
      vertex -12.1429 2.5 0.3
      vertex -19.5714 -1.5 0.3
      vertex -14.4286 -1.5 0.3
    endloop
  endfacet
  facet normal 0 0 1
    outer loop
      vertex -19.5714 -1.5 0.3
      vertex -19.6114 -1.52308 0.3
      vertex -19.5714 -1.54616 0.3
    endloop
  endfacet
  facet normal -0 0 1
    outer loop
      vertex -21.8571 2.5 0.3
      vertex -19.5714 -1.5 0.3
      vertex -12.1429 2.5 0.3
    endloop
  endfacet
  facet normal -0 0 1
    outer loop
      vertex -21.8571 2.41282 0.3
      vertex -19.5714 -1.5 0.3
      vertex -21.8571 2.5 0.3
    endloop
  endfacet
  facet normal 0 0 1
    outer loop
      vertex -19.5714 -1.5 0.3
      vertex -21.8571 2.41282 0.3
      vertex -19.6114 -1.52308 0.3
    endloop
  endfacet
  facet normal 0 0 1
    outer loop
      vertex -21.9326 2.45641 0.3
      vertex -19.6114 -1.52308 0.3
      vertex -21.8571 2.41282 0.3
    endloop
  endfacet
  facet normal 0 0 1
    outer loop
      vertex -21.9326 2.45641 0.3
      vertex -22.1828 -5.97692 0.3
      vertex -19.6114 -1.52308 0.3
    endloop
  endfacet
  facet normal 0 0 1
    outer loop
      vertex -22.1828 -5.97692 0.3
      vertex -26.7143 -6 0.3
      vertex -22.1828 -6.02308 0.3
    endloop
  endfacet
  facet normal -0 0 1
    outer loop
      vertex -26.7898 -5.95641 0.3
      vertex -22.1828 -5.97692 0.3
      vertex -21.9326 2.45641 0.3
    endloop
  endfacet
  facet normal 0 0 1
    outer loop
      vertex -22.1828 -5.97692 0.3
      vertex -26.7898 -5.95641 0.3
      vertex -26.7143 -6 0.3
    endloop
  endfacet
  facet normal 0 0 1
    outer loop
      vertex -11.8172 -5.97692 0.3
      vertex -11.8571 -6 0.3
      vertex -11.8172 -6.02308 0.3
    endloop
  endfacet
  facet normal 0 0 1
    outer loop
      vertex -7.21021 -5.95641 0.3
      vertex -11.8172 -5.97692 0.3
      vertex -7.28571 -6 0.3
    endloop
  endfacet
  facet normal 0 0 1
    outer loop
      vertex -12.0674 2.45641 0.3
      vertex -11.8172 -5.97692 0.3
      vertex -7.21021 -5.95641 0.3
    endloop
  endfacet
  facet normal 0 0 1
    outer loop
      vertex -14.3886 -1.52308 0.3
      vertex -12.0674 2.45641 0.3
      vertex -12.1429 2.41282 0.3
    endloop
  endfacet
  facet normal 0 0 1
    outer loop
      vertex -12.0674 2.45641 0.3
      vertex -14.3886 -1.52308 0.3
      vertex -11.8172 -5.97692 0.3
    endloop
  endfacet
  facet normal 0 0 1
    outer loop
      vertex -11.8172 -6.02308 0.3
      vertex -7.28571 -6 0.3
      vertex -11.8172 -5.97692 0.3
    endloop
  endfacet
  facet normal 0 0 1
    outer loop
      vertex -7.28571 -6 0.3
      vertex -11.8172 -6.02308 0.3
      vertex -7.21021 -6.04359 0.3
    endloop
  endfacet
  facet normal 0 0 1
    outer loop
      vertex -11.8172 -6.02308 0.3
      vertex -12.0674 -14.4564 0.3
      vertex -7.21021 -6.04359 0.3
    endloop
  endfacet
  facet normal -0 0 1
    outer loop
      vertex -14.3886 -10.4769 0.3
      vertex -12.0674 -14.4564 0.3
      vertex -11.8172 -6.02308 0.3
    endloop
  endfacet
  facet normal 0 0 1
    outer loop
      vertex -12.0674 -14.4564 0.3
      vertex -14.3886 -10.4769 0.3
      vertex -12.1429 -14.4128 0.3
    endloop
  endfacet
  facet normal -0 0 1
    outer loop
      vertex -14.4286 -10.5 0.3
      vertex -12.1429 -14.4128 0.3
      vertex -14.3886 -10.4769 0.3
    endloop
  endfacet
  facet normal 0 0 1
    outer loop
      vertex -14.4286 -10.5 0.3
      vertex -14.3886 -10.4769 0.3
      vertex -14.4286 -10.4538 0.3
    endloop
  endfacet
  facet normal 0 0 1
    outer loop
      vertex -12.1429 -14.4128 0.3
      vertex -14.4286 -10.5 0.3
      vertex -12.1429 -14.5 0.3
    endloop
  endfacet
  facet normal -0 0 1
    outer loop
      vertex -19.5714 -10.5 0.3
      vertex -12.1429 -14.5 0.3
      vertex -14.4286 -10.5 0.3
    endloop
  endfacet
  facet normal 0 0 1
    outer loop
      vertex -21.8571 -14.4128 0.3
      vertex -19.5714 -10.5 0.3
      vertex -19.6114 -10.4769 0.3
    endloop
  endfacet
  facet normal 0 0 1
    outer loop
      vertex -21.8571 -14.5 0.3
      vertex -19.5714 -10.5 0.3
      vertex -21.8571 -14.4128 0.3
    endloop
  endfacet
  facet normal 0 0 1
    outer loop
      vertex -19.5714 -10.5 0.3
      vertex -21.8571 -14.5 0.3
      vertex -12.1429 -14.5 0.3
    endloop
  endfacet
  facet normal 0 0 1
    outer loop
      vertex -14.3886 -1.52308 0.3
      vertex -14.4286 -1.5 0.3
      vertex -14.4286 -1.54616 0.3
    endloop
  endfacet
  facet normal 0.500003 -0.866024 0
    outer loop
      vertex -21.9326 -14.4564 -3.2
      vertex -21.8571 -14.4128 0.3
      vertex -21.9326 -14.4564 0.3
    endloop
  endfacet
  facet normal 0.500003 -0.866024 0
    outer loop
      vertex -21.8571 -14.4128 0.3
      vertex -21.9326 -14.4564 -3.2
      vertex -21.8571 -14.4128 -3.2
    endloop
  endfacet
  facet normal 0.5 -0.866025 0
    outer loop
      vertex -7.28571 -6 0.299999
      vertex -7.21021 -5.95641 0.3
      vertex -7.28571 -6 0.3
    endloop
  endfacet
  facet normal 0.5 -0.866025 0
    outer loop
      vertex -7.21021 -5.95641 0.3
      vertex -7.28571 -6 0.299999
      vertex -7.21021 -5.95641 0.299999
    endloop
  endfacet
  facet normal 0.866025 0.5 0
    outer loop
      vertex -7.21021 -5.95641 0.3
      vertex -12.0674 2.45641 0.299999
      vertex -12.0674 2.45641 0.3
    endloop
  endfacet
  facet normal 0.866025 0.5 0
    outer loop
      vertex -12.0674 2.45641 0.299999
      vertex -7.21021 -5.95641 0.3
      vertex -7.21021 -5.95641 0.299999
    endloop
  endfacet
  facet normal 0 0 -1
    outer loop
      vertex -19.6114 -1.52308 -3.2
      vertex -21.9326 2.45641 -3.2
      vertex -21.8571 2.41282 -3.2
    endloop
  endfacet
  facet normal 0 0 -1
    outer loop
      vertex -22.1828 -5.97692 -3.2
      vertex -21.9326 2.45641 -3.2
      vertex -19.6114 -1.52308 -3.2
    endloop
  endfacet
  facet normal 0 0 -1
    outer loop
      vertex -26.7898 -5.95641 -3.2
      vertex -22.1828 -5.97692 -3.2
      vertex -26.7143 -6 -3.2
    endloop
  endfacet
  facet normal 0 0 -1
    outer loop
      vertex -22.1828 -5.97692 -3.2
      vertex -26.7898 -5.95641 -3.2
      vertex -21.9326 2.45641 -3.2
    endloop
  endfacet
  facet normal -0 0 -1
    outer loop
      vertex -22.1429 -6 -3.2
      vertex -22.1828 -6.02308 -3.2
      vertex -22.1828 -5.97692 -3.2
    endloop
  endfacet
  facet normal 0 0 -1
    outer loop
      vertex -19.5714 -1.54616 -3.2
      vertex -19.6114 -1.52308 -3.2
      vertex -19.5714 -1.5 -3.2
    endloop
  endfacet
  facet normal 0 0 -1
    outer loop
      vertex -14.4286 -10.5 -3.2
      vertex -12.1429 -14.4128 -3.2
      vertex -12.1429 -14.5 -3.2
    endloop
  endfacet
  facet normal 0 0 -1
    outer loop
      vertex -12.1429 -14.4128 -3.2
      vertex -14.4286 -10.5 -3.2
      vertex -14.3886 -10.4769 -3.2
    endloop
  endfacet
  facet normal 0 0 -1
    outer loop
      vertex -12.1429 -14.5 -3.2
      vertex -19.5714 -10.5 -3.2
      vertex -14.4286 -10.5 -3.2
    endloop
  endfacet
  facet normal 0 0 -1
    outer loop
      vertex -19.5714 -10.5 -3.2
      vertex -19.6114 -10.4769 -3.2
      vertex -19.5714 -10.4538 -3.2
    endloop
  endfacet
  facet normal 0 0 -1
    outer loop
      vertex -21.8571 -14.5 -3.2
      vertex -19.5714 -10.5 -3.2
      vertex -12.1429 -14.5 -3.2
    endloop
  endfacet
  facet normal 0 0 -1
    outer loop
      vertex -21.8571 -14.4128 -3.2
      vertex -19.5714 -10.5 -3.2
      vertex -21.8571 -14.5 -3.2
    endloop
  endfacet
  facet normal -0 0 -1
    outer loop
      vertex -19.5714 -10.5 -3.2
      vertex -21.8571 -14.4128 -3.2
      vertex -19.6114 -10.4769 -3.2
    endloop
  endfacet
  facet normal 0 0 -1
    outer loop
      vertex -21.9326 -14.4564 -3.2
      vertex -19.6114 -10.4769 -3.2
      vertex -21.8571 -14.4128 -3.2
    endloop
  endfacet
  facet normal 0 0 -1
    outer loop
      vertex -21.9326 -14.4564 -3.2
      vertex -22.1828 -6.02308 -3.2
      vertex -19.6114 -10.4769 -3.2
    endloop
  endfacet
  facet normal 0 0 -1
    outer loop
      vertex -22.1828 -6.02308 -3.2
      vertex -26.7143 -6 -3.2
      vertex -22.1828 -5.97692 -3.2
    endloop
  endfacet
  facet normal 0 0 -1
    outer loop
      vertex -26.7898 -6.04359 -3.2
      vertex -22.1828 -6.02308 -3.2
      vertex -21.9326 -14.4564 -3.2
    endloop
  endfacet
  facet normal -0 0 -1
    outer loop
      vertex -22.1828 -6.02308 -3.2
      vertex -26.7898 -6.04359 -3.2
      vertex -26.7143 -6 -3.2
    endloop
  endfacet
  facet normal 0 0 -1
    outer loop
      vertex -11.8172 -6.02308 -3.2
      vertex -11.8571 -6 -3.2
      vertex -11.8172 -5.97692 -3.2
    endloop
  endfacet
  facet normal 0 0 -1
    outer loop
      vertex -7.21021 -6.04359 -3.2
      vertex -11.8172 -6.02308 -3.2
      vertex -7.28571 -6 -3.2
    endloop
  endfacet
  facet normal 0 0 -1
    outer loop
      vertex -12.0674 -14.4564 -3.2
      vertex -11.8172 -6.02308 -3.2
      vertex -7.21021 -6.04359 -3.2
    endloop
  endfacet
  facet normal 0 0 -1
    outer loop
      vertex -14.3886 -10.4769 -3.2
      vertex -12.0674 -14.4564 -3.2
      vertex -12.1429 -14.4128 -3.2
    endloop
  endfacet
  facet normal 0 0 -1
    outer loop
      vertex -12.0674 -14.4564 -3.2
      vertex -14.3886 -10.4769 -3.2
      vertex -11.8172 -6.02308 -3.2
    endloop
  endfacet
  facet normal 0 0 -1
    outer loop
      vertex -11.8172 -5.97692 -3.2
      vertex -7.28571 -6 -3.2
      vertex -11.8172 -6.02308 -3.2
    endloop
  endfacet
  facet normal 0 0 -1
    outer loop
      vertex -7.28571 -6 -3.2
      vertex -11.8172 -5.97692 -3.2
      vertex -7.21021 -5.95641 -3.2
    endloop
  endfacet
  facet normal 0 0 -1
    outer loop
      vertex -11.8172 -5.97692 -3.2
      vertex -12.0674 2.45641 -3.2
      vertex -7.21021 -5.95641 -3.2
    endloop
  endfacet
  facet normal 0 0 -1
    outer loop
      vertex -14.3886 -1.52308 -3.2
      vertex -12.0674 2.45641 -3.2
      vertex -11.8172 -5.97692 -3.2
    endloop
  endfacet
  facet normal 0 0 -1
    outer loop
      vertex -12.0674 2.45641 -3.2
      vertex -14.3886 -1.52308 -3.2
      vertex -12.1429 2.41282 -3.2
    endloop
  endfacet
  facet normal 0 0 -1
    outer loop
      vertex -14.4286 -1.5 -3.2
      vertex -12.1429 2.41282 -3.2
      vertex -14.3886 -1.52308 -3.2
    endloop
  endfacet
  facet normal 0 0 -1
    outer loop
      vertex -14.4286 -1.5 -3.2
      vertex -14.3886 -1.52308 -3.2
      vertex -14.4286 -1.54616 -3.2
    endloop
  endfacet
  facet normal -0 0 -1
    outer loop
      vertex -12.1429 2.41282 -3.2
      vertex -14.4286 -1.5 -3.2
      vertex -12.1429 2.5 -3.2
    endloop
  endfacet
  facet normal 0 0 -1
    outer loop
      vertex -19.5714 -1.5 -3.2
      vertex -12.1429 2.5 -3.2
      vertex -14.4286 -1.5 -3.2
    endloop
  endfacet
  facet normal 0 0 -1
    outer loop
      vertex -21.8571 2.41282 -3.2
      vertex -19.5714 -1.5 -3.2
      vertex -19.6114 -1.52308 -3.2
    endloop
  endfacet
  facet normal 0 0 -1
    outer loop
      vertex -21.8571 2.5 -3.2
      vertex -19.5714 -1.5 -3.2
      vertex -21.8571 2.41282 -3.2
    endloop
  endfacet
  facet normal 0 0 -1
    outer loop
      vertex -19.5714 -1.5 -3.2
      vertex -21.8571 2.5 -3.2
      vertex -12.1429 2.5 -3.2
    endloop
  endfacet
  facet normal -0 0 -1
    outer loop
      vertex -14.3886 -10.4769 -3.2
      vertex -14.4286 -10.5 -3.2
      vertex -14.4286 -10.4538 -3.2
    endloop
  endfacet
  facet normal -0.866025 -0.5 0
    outer loop
      vertex -21.9326 -14.4564 -3.2
      vertex -26.7898 -6.04359 0.3
      vertex -26.7898 -6.04359 -3.2
    endloop
  endfacet
  facet normal -0.866025 -0.5 0
    outer loop
      vertex -26.7898 -6.04359 0.3
      vertex -21.9326 -14.4564 -3.2
      vertex -21.9326 -14.4564 0.3
    endloop
  endfacet
  facet normal -1 0 0
    outer loop
      vertex -21.8571 -14.5 -3.2
      vertex -21.8571 -14.4128 0.3
      vertex -21.8571 -14.4128 -3.2
    endloop
  endfacet
  facet normal -1 -0 0
    outer loop
      vertex -21.8571 -14.4128 0.3
      vertex -21.8571 -14.5 -3.2
      vertex -21.8571 -14.5 0.3
    endloop
  endfacet
  facet normal -1 0 0
    outer loop
      vertex -21.8571 2.41282 -3.2
      vertex -21.8571 2.5 0.3
      vertex -21.8571 2.5 -3.2
    endloop
  endfacet
  facet normal -1 -0 0
    outer loop
      vertex -21.8571 2.5 0.3
      vertex -21.8571 2.41282 -3.2
      vertex -21.8571 2.41282 0.3
    endloop
  endfacet
  facet normal 1 -0 0
    outer loop
      vertex -12.1429 -14.5 0.3
      vertex -12.1429 -14.4128 -3.2
      vertex -12.1429 -14.4128 0.3
    endloop
  endfacet
  facet normal 1 0 0
    outer loop
      vertex -12.1429 -14.4128 -3.2
      vertex -12.1429 -14.5 0.3
      vertex -12.1429 -14.5 -3.2
    endloop
  endfacet
  facet normal 1 -0 0
    outer loop
      vertex -12.1429 2.41282 0.3
      vertex -12.1429 2.5 0.299999
      vertex -12.1429 2.5 0.3
    endloop
  endfacet
  facet normal 1 0 0
    outer loop
      vertex -12.1429 2.5 0.299999
      vertex -12.1429 2.41282 0.3
      vertex -12.1429 2.41282 0.299999
    endloop
  endfacet
  facet normal 0 -1 0
    outer loop
      vertex -21.8571 -14.5 -3.2
      vertex -12.1429 -14.5 0.3
      vertex -21.8571 -14.5 0.3
    endloop
  endfacet
  facet normal 0 -1 -0
    outer loop
      vertex -12.1429 -14.5 0.3
      vertex -21.8571 -14.5 -3.2
      vertex -12.1429 -14.5 -3.2
    endloop
  endfacet
  facet normal 0 1 0
    outer loop
      vertex -14.9726 2.5 0.299999
      vertex -12.1429 2.5 0.3
      vertex -12.1429 2.5 0.299999
    endloop
  endfacet
  facet normal 0 1 0
    outer loop
      vertex -12.1429 2.5 0.3
      vertex -14.9726 2.5 0.299999
      vertex -21.8571 2.5 0.3
    endloop
  endfacet
  facet normal 0 1 -0
    outer loop
      vertex -14.9726 2.5 -3.2
      vertex -21.8571 2.5 0.3
      vertex -14.9726 2.5 0.299999
    endloop
  endfacet
  facet normal 0 1 0
    outer loop
      vertex -14.9726 2.5 -3.2
      vertex -21.8571 2.5 -3.2
      vertex -21.8571 2.5 0.3
    endloop
  endfacet
  facet normal 0 1 0
    outer loop
      vertex -21.8571 2.5 -3.2
      vertex -14.9726 2.5 -3.2
      vertex -12.1429 2.5 -3.2
    endloop
  endfacet
  facet normal 0.5 0.866025 -0
    outer loop
      vertex -7.21021 -6.04359 0.299999
      vertex -7.28571 -6 0.3
      vertex -7.21021 -6.04359 0.3
    endloop
  endfacet
  facet normal 0.5 0.866025 0
    outer loop
      vertex -7.28571 -6 0.3
      vertex -7.21021 -6.04359 0.299999
      vertex -7.28571 -6 0.299999
    endloop
  endfacet
  facet normal 0.500005 0.866023 -0
    outer loop
      vertex -21.8571 2.41282 -3.2
      vertex -21.9326 2.45641 0.3
      vertex -21.8571 2.41282 0.3
    endloop
  endfacet
  facet normal 0.500005 0.866023 0
    outer loop
      vertex -21.9326 2.45641 0.3
      vertex -21.8571 2.41282 -3.2
      vertex -21.9326 2.45641 -3.2
    endloop
  endfacet
  facet normal -0.499998 -0.866027 0
    outer loop
      vertex -12.1429 -14.4128 -3.2
      vertex -12.0674 -14.4564 0.3
      vertex -12.1429 -14.4128 0.3
    endloop
  endfacet
  facet normal -0.499998 -0.866027 -0
    outer loop
      vertex -12.0674 -14.4564 0.3
      vertex -12.1429 -14.4128 -3.2
      vertex -12.0674 -14.4564 -3.2
    endloop
  endfacet
  facet normal -0.500003 -0.866024 0
    outer loop
      vertex -26.7898 -5.95641 -3.2
      vertex -26.7143 -6 0.3
      vertex -26.7898 -5.95641 0.3
    endloop
  endfacet
  facet normal -0.500003 -0.866024 -0
    outer loop
      vertex -26.7143 -6 0.3
      vertex -26.7898 -5.95641 -3.2
      vertex -26.7143 -6 -3.2
    endloop
  endfacet
  facet normal 0.866025 -0.5 0
    outer loop
      vertex -7.21021 -6.04359 0.3
      vertex -9.36603 -9.77757 0.299999
      vertex -7.21021 -6.04359 0.299999
    endloop
  endfacet
  facet normal 0.866025 -0.5 0
    outer loop
      vertex -9.36603 -9.77757 0.299999
      vertex -12.0674 -14.4564 0.3
      vertex -9.36603 -9.77757 -3.2
    endloop
  endfacet
  facet normal 0.70012 -0.404214 -0.588594
    outer loop
      vertex -12.0674 -14.4564 0.3
      vertex -9.36603 -9.77757 0.299999
      vertex -7.21021 -6.04359 0.3
    endloop
  endfacet
  facet normal 0.337124 -0.194639 0.921121
    outer loop
      vertex -9.36603 -9.77757 -3.2
      vertex -12.0674 -14.4564 -3.2
      vertex -7.21021 -6.04359 -3.2
    endloop
  endfacet
  facet normal 0.866025 -0.5 0
    outer loop
      vertex -12.0674 -14.4564 -3.2
      vertex -9.36603 -9.77757 -3.2
      vertex -12.0674 -14.4564 0.3
    endloop
  endfacet
  facet normal -0.866025 0.5 0
    outer loop
      vertex -26.7898 -5.95641 -3.2
      vertex -21.9326 2.45641 0.3
      vertex -21.9326 2.45641 -3.2
    endloop
  endfacet
  facet normal -0.866025 0.5 0
    outer loop
      vertex -21.9326 2.45641 0.3
      vertex -26.7898 -5.95641 -3.2
      vertex -26.7898 -5.95641 0.3
    endloop
  endfacet
  facet normal 0.866025 -0.5 0
    outer loop
      vertex 7.54404 -12.9333 0.299999
      vertex 14.9726 -0.0666676 -3.2
      vertex 14.9726 -0.0666676 0.299999
    endloop
  endfacet
  facet normal 0.866025 -0.5 0
    outer loop
      vertex 14.9726 -0.0666676 -3.2
      vertex 7.54404 -12.9333 0.299999
      vertex 7.54404 -12.9333 -3.2
    endloop
  endfacet
  facet normal 0.866026 0.5 0
    outer loop
      vertex 14.9726 85.0667 0.299999
      vertex 7.54404 97.9333 -3.2
      vertex 7.54404 97.9333 0.299999
    endloop
  endfacet
  facet normal 0.866026 0.5 0
    outer loop
      vertex 7.54404 97.9333 -3.2
      vertex 14.9726 85.0667 0.299999
      vertex 14.9726 85.0667 -3.2
    endloop
  endfacet
  facet normal 0 0 -1
    outer loop
      vertex 9.14286 38.4128 -3.2
      vertex 9.06736 38.4564 -3.2
      vertex 9.14286 38.5 -3.2
    endloop
  endfacet
  facet normal 0 0 -1
    outer loop
      vertex 8.06218 44.9641 -3.2
      vertex 14.9726 38.5 -3.2
      vertex 9.14286 38.5 -3.2
    endloop
  endfacet
  facet normal 0 0 -1
    outer loop
      vertex 8.06218 44.9641 -3.2
      vertex 9.14286 38.5 -3.2
      vertex 9.06736 38.4564 -3.2
    endloop
  endfacet
  facet normal 0 0 -1
    outer loop
      vertex 14.9726 38.5 -3.2
      vertex 8.06218 44.9641 -3.2
      vertex 8.06218 45.0359 -3.2
    endloop
  endfacet
  facet normal 0 0 -1
    outer loop
      vertex 14.9726 38.5 -3.2
      vertex 8.06218 45.0359 -3.2
      vertex 14.9726 85.0667 -3.2
    endloop
  endfacet
  facet normal 0 0 -1
    outer loop
      vertex 4.06218 51.9641 -3.2
      vertex 14.9726 85.0667 -3.2
      vertex 8.06218 45.0359 -3.2
    endloop
  endfacet
  facet normal 0 0 -1
    outer loop
      vertex 4 52 -3.2
      vertex 14.9726 85.0667 -3.2
      vertex 4.06218 51.9641 -3.2
    endloop
  endfacet
  facet normal 0 0 -1
    outer loop
      vertex 1.21352 85.8817 -3.2
      vertex 14.9726 85.0667 -3.2
      vertex 1.5 85 -3.2
    endloop
  endfacet
  facet normal 0 0 -1
    outer loop
      vertex 4 52 -3.2
      vertex 4.06218 51.9641 -3.2
      vertex 4 51.9282 -3.2
    endloop
  endfacet
  facet normal 0 0 -1
    outer loop
      vertex -4.21021 60.0436 -3.2
      vertex 14.9726 85.0667 -3.2
      vertex 4 52 -3.2
    endloop
  endfacet
  facet normal 0 0 -1
    outer loop
      vertex 14.9726 85.0667 -3.2
      vertex 1.21352 85.8817 -3.2
      vertex 7.54404 97.9333 -3.2
    endloop
  endfacet
  facet normal 0 0 -1
    outer loop
      vertex 0.463525 86.4266 -3.2
      vertex 7.54404 97.9333 -3.2
      vertex 1.21352 85.8817 -3.2
    endloop
  endfacet
  facet normal -0 0 -1
    outer loop
      vertex 7.54404 97.9333 -3.2
      vertex 0.463525 86.4266 -3.2
      vertex 7.42857 98 -3.2
    endloop
  endfacet
  facet normal 0 0 -1
    outer loop
      vertex -0.463525 86.4266 -3.2
      vertex 7.42857 98 -3.2
      vertex 0.463525 86.4266 -3.2
    endloop
  endfacet
  facet normal 0 0 -1
    outer loop
      vertex -7.54404 97.9333 -3.2
      vertex -0.463525 86.4266 -3.2
      vertex -1.21352 85.8817 -3.2
    endloop
  endfacet
  facet normal 0 0 -1
    outer loop
      vertex -9.06736 68.4564 -3.2
      vertex 0.463525 83.5734 -3.2
      vertex -4.21021 60.0436 -3.2
    endloop
  endfacet
  facet normal -0 0 -1
    outer loop
      vertex 0.463525 83.5734 -3.2
      vertex -9.06736 68.4564 -3.2
      vertex -0.463525 83.5734 -3.2
    endloop
  endfacet
  facet normal 0 0 -1
    outer loop
      vertex -9.14286 68.5 -3.2
      vertex -0.463525 83.5734 -3.2
      vertex -9.06736 68.4564 -3.2
    endloop
  endfacet
  facet normal 0 0 -1
    outer loop
      vertex -0.463525 86.4266 -3.2
      vertex -7.42857 98 -3.2
      vertex 7.42857 98 -3.2
    endloop
  endfacet
  facet normal 0 0 -1
    outer loop
      vertex -14.9726 85.0667 -3.2
      vertex -1.21352 85.8817 -3.2
      vertex -1.5 85 -3.2
    endloop
  endfacet
  facet normal -0 0 -1
    outer loop
      vertex -0.463525 83.5734 -3.2
      vertex -9.14286 68.5 -3.2
      vertex -1.21352 84.1183 -3.2
    endloop
  endfacet
  facet normal 0 0 -1
    outer loop
      vertex -14.9726 85.0667 -3.2
      vertex -1.21352 84.1183 -3.2
      vertex -9.14286 68.5 -3.2
    endloop
  endfacet
  facet normal -0 0 -1
    outer loop
      vertex -1.21352 85.8817 -3.2
      vertex -14.9726 85.0667 -3.2
      vertex -7.54404 97.9333 -3.2
    endloop
  endfacet
  facet normal 0 0 -1
    outer loop
      vertex -9.14286 68.5 -3.2
      vertex -9.06736 68.4564 -3.2
      vertex -9.14286 68.4128 -3.2
    endloop
  endfacet
  facet normal 0 0 -1
    outer loop
      vertex -1.21352 84.1183 -3.2
      vertex -14.9726 85.0667 -3.2
      vertex -1.5 85 -3.2
    endloop
  endfacet
  facet normal 0 0 -1
    outer loop
      vertex -14.9726 85.0667 -3.2
      vertex -9.14286 68.5 -3.2
      vertex -14.9726 68.5 -3.2
    endloop
  endfacet
  facet normal 0 0 -1
    outer loop
      vertex -0.463525 86.4266 -3.2
      vertex -7.54404 97.9333 -3.2
      vertex -7.42857 98 -3.2
    endloop
  endfacet
  facet normal 0 0 -1
    outer loop
      vertex -7.21021 -6.04359 -3.2
      vertex -7.28571 -6 -3.2
      vertex -7.21021 -5.95641 -3.2
    endloop
  endfacet
  facet normal 0 0 -1
    outer loop
      vertex -4.21021 59.9564 -3.2
      vertex -4.28571 60 -3.2
      vertex -4.21021 60.0436 -3.2
    endloop
  endfacet
  facet normal 0 0 -1
    outer loop
      vertex -9.06736 51.5436 -3.2
      vertex -4.06218 51.9641 -3.2
      vertex -8.06218 45.0359 -3.2
    endloop
  endfacet
  facet normal -0 0 -1
    outer loop
      vertex -4.06218 51.9641 -3.2
      vertex -9.06736 51.5436 -3.2
      vertex -4.21021 59.9564 -3.2
    endloop
  endfacet
  facet normal 0 0 -1
    outer loop
      vertex -1.5 0 -3.2
      vertex -12.0674 2.45641 -3.2
      vertex -1.21352 0.881678 -3.2
    endloop
  endfacet
  facet normal 0 0 -1
    outer loop
      vertex -12.1429 2.5 -3.2
      vertex -1.21352 0.881678 -3.2
      vertex -12.0674 2.45641 -3.2
    endloop
  endfacet
  facet normal 0 0 -1
    outer loop
      vertex -14.9726 51.5 -3.2
      vertex -8.06218 45.0359 -3.2
      vertex -8.06218 44.9641 -3.2
    endloop
  endfacet
  facet normal 0 0 -1
    outer loop
      vertex -1.21352 0.881678 -3.2
      vertex -12.1429 2.5 -3.2
      vertex -4.06218 38.0359 -3.2
    endloop
  endfacet
  facet normal 0 0 -1
    outer loop
      vertex -14.9726 2.5 -3.2
      vertex -4.06218 38.0359 -3.2
      vertex -12.1429 2.5 -3.2
    endloop
  endfacet
  facet normal 0 0 -1
    outer loop
      vertex -8.06218 45.0359 -3.2
      vertex -9.14286 51.5 -3.2
      vertex -9.06736 51.5436 -3.2
    endloop
  endfacet
  facet normal 0 0 -1
    outer loop
      vertex -12.1429 2.5 -3.2
      vertex -12.0674 2.45641 -3.2
      vertex -12.1429 2.41282 -3.2
    endloop
  endfacet
  facet normal -0 0 -1
    outer loop
      vertex -4.06218 38.0359 -3.2
      vertex -14.9726 2.5 -3.2
      vertex -8.06218 44.9641 -3.2
    endloop
  endfacet
  facet normal -0 0 -1
    outer loop
      vertex -8.06218 44.9641 -3.2
      vertex -14.9726 2.5 -3.2
      vertex -14.9726 51.5 -3.2
    endloop
  endfacet
  facet normal 0 0 -1
    outer loop
      vertex -8.06218 45.0359 -3.2
      vertex -14.9726 51.5 -3.2
      vertex -9.14286 51.5 -3.2
    endloop
  endfacet
  facet normal -0 0 -1
    outer loop
      vertex -8 45 -3.2
      vertex -8.06218 44.9641 -3.2
      vertex -8.06218 45.0359 -3.2
    endloop
  endfacet
  facet normal -0 0 -1
    outer loop
      vertex -9.06736 51.5436 -3.2
      vertex -9.14286 51.5 -3.2
      vertex -9.14286 51.5872 -3.2
    endloop
  endfacet
  facet normal 0 0 -1
    outer loop
      vertex -4 51.9282 -3.2
      vertex -4.06218 51.9641 -3.2
      vertex -4 52 -3.2
    endloop
  endfacet
  facet normal 0 0 -1
    outer loop
      vertex 14.9726 85.0667 -3.2
      vertex 1.21352 84.1183 -3.2
      vertex 1.5 85 -3.2
    endloop
  endfacet
  facet normal 0 0 -1
    outer loop
      vertex -4.21021 60.0436 -3.2
      vertex 4 52 -3.2
      vertex -4.21021 59.9564 -3.2
    endloop
  endfacet
  facet normal 0 -0 -1
    outer loop
      vertex 0.463525 83.5734 -3.2
      vertex 14.9726 85.0667 -3.2
      vertex -4.21021 60.0436 -3.2
    endloop
  endfacet
  facet normal 0 0 -1
    outer loop
      vertex -4.21021 59.9564 -3.2
      vertex 4 52 -3.2
      vertex -4 52 -3.2
    endloop
  endfacet
  facet normal 0 0 -1
    outer loop
      vertex 14.9726 85.0667 -3.2
      vertex 0.463525 83.5734 -3.2
      vertex 1.21352 84.1183 -3.2
    endloop
  endfacet
  facet normal 0 0 -1
    outer loop
      vertex -4.21021 59.9564 -3.2
      vertex -4 52 -3.2
      vertex -4.06218 51.9641 -3.2
    endloop
  endfacet
  facet normal 0 0 -1
    outer loop
      vertex 14.9726 -0.0666676 -3.2
      vertex 9.14286 21.5 -3.2
      vertex 14.9726 21.5 -3.2
    endloop
  endfacet
  facet normal 0 0 -1
    outer loop
      vertex 9.14286 21.5 -3.2
      vertex 9.06736 21.5436 -3.2
      vertex 9.14286 21.5872 -3.2
    endloop
  endfacet
  facet normal 0 0 -1
    outer loop
      vertex 1.21352 0.881678 -3.2
      vertex 9.14286 21.5 -3.2
      vertex 14.9726 -0.0666676 -3.2
    endloop
  endfacet
  facet normal 0 0 -1
    outer loop
      vertex 1.21352 -0.881678 -3.2
      vertex 14.9726 -0.0666676 -3.2
      vertex 7.54404 -12.9333 -3.2
    endloop
  endfacet
  facet normal 0 0 -1
    outer loop
      vertex 0.463525 -1.42658 -3.2
      vertex 7.54404 -12.9333 -3.2
      vertex 7.42857 -13 -3.2
    endloop
  endfacet
  facet normal 0 0 -1
    outer loop
      vertex 1.21352 0.881678 -3.2
      vertex 14.9726 -0.0666676 -3.2
      vertex 1.5 0 -3.2
    endloop
  endfacet
  facet normal 0 0 -1
    outer loop
      vertex -4 38 -3.2
      vertex 4.21021 30.0436 -3.2
      vertex 4.21021 29.9564 -3.2
    endloop
  endfacet
  facet normal 0 0 -1
    outer loop
      vertex 4.21021 30.0436 -3.2
      vertex 4 38 -3.2
      vertex 4.06218 38.0359 -3.2
    endloop
  endfacet
  facet normal -0 0 -1
    outer loop
      vertex 9.14286 21.5 -3.2
      vertex 0.463525 1.42658 -3.2
      vertex 9.06736 21.5436 -3.2
    endloop
  endfacet
  facet normal 0 0 -1
    outer loop
      vertex 0.463525 1.42658 -3.2
      vertex 9.14286 21.5 -3.2
      vertex 1.21352 0.881678 -3.2
    endloop
  endfacet
  facet normal -0 0 -1
    outer loop
      vertex 14.9726 -0.0666676 -3.2
      vertex 1.21352 -0.881678 -3.2
      vertex 1.5 0 -3.2
    endloop
  endfacet
  facet normal 0 0 -1
    outer loop
      vertex 7.54404 -12.9333 -3.2
      vertex 0.463525 -1.42658 -3.2
      vertex 1.21352 -0.881678 -3.2
    endloop
  endfacet
  facet normal 0 0 -1
    outer loop
      vertex -7.21021 -6.04359 -3.2
      vertex 0.463525 -1.42658 -3.2
      vertex 7.42857 -13 -3.2
    endloop
  endfacet
  facet normal -0 0 -1
    outer loop
      vertex 0.463525 -1.42658 -3.2
      vertex -7.21021 -6.04359 -3.2
      vertex -0.463525 -1.42658 -3.2
    endloop
  endfacet
  facet normal 0 0 -1
    outer loop
      vertex -4 38 -3.2
      vertex -4.06218 38.0359 -3.2
      vertex -4 38.0718 -3.2
    endloop
  endfacet
  facet normal 0 0 -1
    outer loop
      vertex -1.21352 0.881678 -3.2
      vertex -4.06218 38.0359 -3.2
      vertex -4 38 -3.2
    endloop
  endfacet
  facet normal 0 0 -1
    outer loop
      vertex -12.0674 2.45641 -3.2
      vertex -1.5 0 -3.2
      vertex -7.21021 -5.95641 -3.2
    endloop
  endfacet
  facet normal -0 0 -1
    outer loop
      vertex -0.463525 -1.42658 -3.2
      vertex -7.21021 -5.95641 -3.2
      vertex -1.21352 -0.881678 -3.2
    endloop
  endfacet
  facet normal 0 0 -1
    outer loop
      vertex -7.21021 -5.95641 -3.2
      vertex -0.463525 -1.42658 -3.2
      vertex -7.21021 -6.04359 -3.2
    endloop
  endfacet
  facet normal 0 0 -1
    outer loop
      vertex -7.42857 -13 -3.2
      vertex -7.21021 -6.04359 -3.2
      vertex 7.42857 -13 -3.2
    endloop
  endfacet
  facet normal 0 0 -1
    outer loop
      vertex -9.36603 -9.77757 -3.2
      vertex -7.42857 -13 -3.2
      vertex -7.54404 -12.9333 -3.2
    endloop
  endfacet
  facet normal 0 0 -1
    outer loop
      vertex -7.42857 -13 -3.2
      vertex -9.36603 -9.77757 -3.2
      vertex -7.21021 -6.04359 -3.2
    endloop
  endfacet
  facet normal -0 0 -1
    outer loop
      vertex 4.28571 30 -3.2
      vertex 4.21021 29.9564 -3.2
      vertex 4.21021 30.0436 -3.2
    endloop
  endfacet
  facet normal 0 0 -1
    outer loop
      vertex 8.06218 44.9641 -3.2
      vertex 8 45 -3.2
      vertex 8.06218 45.0359 -3.2
    endloop
  endfacet
  facet normal 0 0 -1
    outer loop
      vertex 4.06218 38.0359 -3.2
      vertex 9.06736 38.4564 -3.2
      vertex 4.21021 30.0436 -3.2
    endloop
  endfacet
  facet normal -0 0 -1
    outer loop
      vertex 9.06736 38.4564 -3.2
      vertex 4.06218 38.0359 -3.2
      vertex 8.06218 44.9641 -3.2
    endloop
  endfacet
  facet normal -0 0 -1
    outer loop
      vertex 4.06218 38.0359 -3.2
      vertex 4 38 -3.2
      vertex 4 38.0718 -3.2
    endloop
  endfacet
  facet normal 0 0 -1
    outer loop
      vertex -0.463525 1.42658 -3.2
      vertex 9.06736 21.5436 -3.2
      vertex 0.463525 1.42658 -3.2
    endloop
  endfacet
  facet normal -0 0 -1
    outer loop
      vertex 9.06736 21.5436 -3.2
      vertex -0.463525 1.42658 -3.2
      vertex 4.21021 29.9564 -3.2
    endloop
  endfacet
  facet normal 0 0 -1
    outer loop
      vertex -1.21352 0.881678 -3.2
      vertex 4.21021 29.9564 -3.2
      vertex -0.463525 1.42658 -3.2
    endloop
  endfacet
  facet normal -0 0 -1
    outer loop
      vertex 4.21021 29.9564 -3.2
      vertex -1.21352 0.881678 -3.2
      vertex -4 38 -3.2
    endloop
  endfacet
  facet normal -0 0 -1
    outer loop
      vertex -1.21352 -0.881678 -3.2
      vertex -7.21021 -5.95641 -3.2
      vertex -1.5 0 -3.2
    endloop
  endfacet
  facet normal 0 0 -1
    outer loop
      vertex 4.21021 30.0436 -3.2
      vertex -4 38 -3.2
      vertex 4 38 -3.2
    endloop
  endfacet
  facet normal -0.499998 -0.866026 0
    outer loop
      vertex -7.54404 -12.9333 -3.2
      vertex -7.42857 -13 0.299999
      vertex -7.54404 -12.9333 0.299999
    endloop
  endfacet
  facet normal -0.499998 -0.866026 -0
    outer loop
      vertex -7.42857 -13 0.299999
      vertex -7.54404 -12.9333 -3.2
      vertex -7.42857 -13 -3.2
    endloop
  endfacet
  facet normal 0 -1 0
    outer loop
      vertex -7.42857 -13 -3.2
      vertex 7.42857 -13 0.299999
      vertex -7.42857 -13 0.299999
    endloop
  endfacet
  facet normal 0 -1 -0
    outer loop
      vertex 7.42857 -13 0.299999
      vertex -7.42857 -13 -3.2
      vertex 7.42857 -13 -3.2
    endloop
  endfacet
  facet normal 1 -0 0
    outer loop
      vertex 14.9726 -0.0666676 0.299999
      vertex 14.9726 21.5 -3.2
      vertex 14.9726 21.5 0.299999
    endloop
  endfacet
  facet normal 1 0 0
    outer loop
      vertex 14.9726 21.5 -3.2
      vertex 14.9726 -0.0666676 0.299999
      vertex 14.9726 -0.0666676 -3.2
    endloop
  endfacet
  facet normal 1 -0 0
    outer loop
      vertex 14.9726 38.5 0.299999
      vertex 14.9726 85.0667 -3.2
      vertex 14.9726 85.0667 0.299999
    endloop
  endfacet
  facet normal 1 0 0
    outer loop
      vertex 14.9726 85.0667 -3.2
      vertex 14.9726 38.5 0.299999
      vertex 14.9726 38.5 -3.2
    endloop
  endfacet
  facet normal 0 0 1
    outer loop
      vertex 8.06218 45.0359 0.299999
      vertex 8 45 0.299999
      vertex 8.06218 44.9641 0.299999
    endloop
  endfacet
  facet normal -0 0 1
    outer loop
      vertex 8.06218 45.0359 0.299999
      vertex 14.9726 38.5 0.299999
      vertex 14.9726 85.0667 0.299999
    endloop
  endfacet
  facet normal 0 0 1
    outer loop
      vertex 9.14286 38.5 0.299999
      vertex 9.06736 38.4564 0.299999
      vertex 9.14286 38.4128 0.299999
    endloop
  endfacet
  facet normal -0 0 1
    outer loop
      vertex 8.06218 44.9641 0.299999
      vertex 14.9726 38.5 0.299999
      vertex 8.06218 45.0359 0.299999
    endloop
  endfacet
  facet normal 0 0 1
    outer loop
      vertex 14.9726 38.5 0.299999
      vertex 8.06218 44.9641 0.299999
      vertex 9.14286 38.5 0.299999
    endloop
  endfacet
  facet normal 0 0 1
    outer loop
      vertex 3.17543 85 0.299999
      vertex 14.9726 85.0667 0.299999
      vertex 7.54404 97.9333 0.299999
    endloop
  endfacet
  facet normal 0 0 1
    outer loop
      vertex 1.58771 87.75 0.299999
      vertex 7.54404 97.9333 0.299999
      vertex 7.42857 98 0.299999
    endloop
  endfacet
  facet normal 0 0 1
    outer loop
      vertex 1.58771 82.25 0.299999
      vertex 14.9726 85.0667 0.299999
      vertex 3.17543 85 0.299999
    endloop
  endfacet
  facet normal 0 0 1
    outer loop
      vertex 14.9726 85.0667 0.299999
      vertex 4.06218 51.9641 0.299999
      vertex 8.06218 45.0359 0.299999
    endloop
  endfacet
  facet normal 0 -0 1
    outer loop
      vertex 4 52 0.299999
      vertex 14.9726 85.0667 0.299999
      vertex 1.58771 82.25 0.299999
    endloop
  endfacet
  facet normal 0 0 1
    outer loop
      vertex 7.54404 97.9333 0.299999
      vertex 1.58771 87.75 0.299999
      vertex 3.17543 85 0.299999
    endloop
  endfacet
  facet normal 0 0 1
    outer loop
      vertex 7.42857 98 0.299999
      vertex -1.58771 87.75 0.299999
      vertex 1.58771 87.75 0.299999
    endloop
  endfacet
  facet normal 0 0 1
    outer loop
      vertex -4 52 0.299999
      vertex -4.06218 51.9641 0.299999
      vertex -4 51.9282 0.299999
    endloop
  endfacet
  facet normal 0 0 1
    outer loop
      vertex -1.58771 82.25 0.299999
      vertex -4.06218 51.9641 0.299999
      vertex -4 52 0.299999
    endloop
  endfacet
  facet normal 0 0 1
    outer loop
      vertex -4.21021 59.9564 0.299999
      vertex -1.58771 82.25 0.299999
      vertex -4.21021 60.0436 0.299999
    endloop
  endfacet
  facet normal -0 0 1
    outer loop
      vertex -7.42857 98 0.299999
      vertex -1.58771 87.75 0.299999
      vertex 7.42857 98 0.299999
    endloop
  endfacet
  facet normal -0 0 1
    outer loop
      vertex -7.54404 97.9333 0.299999
      vertex -1.58771 87.75 0.299999
      vertex -7.42857 98 0.299999
    endloop
  endfacet
  facet normal 0 0 1
    outer loop
      vertex -1.58771 87.75 0.299999
      vertex -7.54404 97.9333 0.299999
      vertex -3.17543 85 0.299999
    endloop
  endfacet
  facet normal 0 0 1
    outer loop
      vertex -3.17543 85 0.299999
      vertex -7.54404 97.9333 0.299999
      vertex -14.9726 85.0667 0.299999
    endloop
  endfacet
  facet normal 0 0 1
    outer loop
      vertex -1.58771 82.25 0.299999
      vertex -9.06736 68.4564 0.299999
      vertex -4.21021 60.0436 0.299999
    endloop
  endfacet
  facet normal 0 0 1
    outer loop
      vertex -1.58771 82.25 0.299999
      vertex -14.9726 85.0667 0.299999
      vertex -9.14286 68.5 0.299999
    endloop
  endfacet
  facet normal 0 0 1
    outer loop
      vertex -1.58771 82.25 0.299999
      vertex -9.14286 68.5 0.299999
      vertex -9.06736 68.4564 0.299999
    endloop
  endfacet
  facet normal 0 0 1
    outer loop
      vertex -9.14286 68.5 0.299999
      vertex -14.9726 85.0667 0.299999
      vertex -14.9726 68.5 0.299999
    endloop
  endfacet
  facet normal 0 0 1
    outer loop
      vertex 9.14286 38.5 0.299999
      vertex 8.06218 44.9641 0.299999
      vertex 9.06736 38.4564 0.299999
    endloop
  endfacet
  facet normal 0 0 1
    outer loop
      vertex 4.06218 38.0359 0.299999
      vertex 9.06736 38.4564 0.299999
      vertex 8.06218 44.9641 0.299999
    endloop
  endfacet
  facet normal -0 0 1
    outer loop
      vertex 4 38 0.299999
      vertex 4.21021 30.0436 0.299999
      vertex 4.06218 38.0359 0.299999
    endloop
  endfacet
  facet normal 0 0 1
    outer loop
      vertex 9.06736 38.4564 0.299999
      vertex 4.06218 38.0359 0.299999
      vertex 4.21021 30.0436 0.299999
    endloop
  endfacet
  facet normal 0 0 1
    outer loop
      vertex 4.28571 30 0.299999
      vertex 4.21021 30.0436 0.299999
      vertex 4.21021 29.9564 0.299999
    endloop
  endfacet
  facet normal 0 0 1
    outer loop
      vertex 9.14286 21.5872 0.299999
      vertex 9.06736 21.5436 0.299999
      vertex 9.14286 21.5 0.299999
    endloop
  endfacet
  facet normal -0 0 1
    outer loop
      vertex 9.14286 21.5 0.299999
      vertex 14.9726 -0.0666676 0.299999
      vertex 14.9726 21.5 0.299999
    endloop
  endfacet
  facet normal 0 0 1
    outer loop
      vertex 1.58771 2.75 0.299999
      vertex 9.14286 21.5 0.299999
      vertex 9.06736 21.5436 0.299999
    endloop
  endfacet
  facet normal 0 0 1
    outer loop
      vertex 9.14286 21.5 0.299999
      vertex 1.58771 2.75 0.299999
      vertex 14.9726 -0.0666676 0.299999
    endloop
  endfacet
  facet normal 0 0 1
    outer loop
      vertex 14.9726 -0.0666676 0.299999
      vertex 3.17543 0 0.299999
      vertex 7.54404 -12.9333 0.299999
    endloop
  endfacet
  facet normal 0 0 1
    outer loop
      vertex -1.58771 2.75 0.299999
      vertex 9.06736 21.5436 0.299999
      vertex 4.21021 29.9564 0.299999
    endloop
  endfacet
  facet normal 0 0 1
    outer loop
      vertex 4 38 0.299999
      vertex 4.06218 38.0359 0.299999
      vertex 4 38.0718 0.299999
    endloop
  endfacet
  facet normal -0 0 1
    outer loop
      vertex -4 38 0.299999
      vertex 4.21021 30.0436 0.299999
      vertex 4 38 0.299999
    endloop
  endfacet
  facet normal 0 0 1
    outer loop
      vertex 4.21021 30.0436 0.299999
      vertex -4 38 0.299999
      vertex 4.21021 29.9564 0.299999
    endloop
  endfacet
  facet normal -0 0 1
    outer loop
      vertex 1.58771 -2.75 0.299999
      vertex 7.54404 -12.9333 0.299999
      vertex 3.17543 0 0.299999
    endloop
  endfacet
  facet normal 0 0 1
    outer loop
      vertex 7.54404 -12.9333 0.299999
      vertex 1.58771 -2.75 0.299999
      vertex 7.42857 -13 0.299999
    endloop
  endfacet
  facet normal 0 0 1
    outer loop
      vertex -1.58771 -2.75 0.299999
      vertex 7.42857 -13 0.299999
      vertex 1.58771 -2.75 0.299999
    endloop
  endfacet
  facet normal 0 0 1
    outer loop
      vertex 4.21021 29.9564 0.299999
      vertex -12.1429 2.5 0.299999
      vertex -1.58771 2.75 0.299999
    endloop
  endfacet
  facet normal 0 0 1
    outer loop
      vertex -1.58771 2.75 0.299999
      vertex -12.0674 2.45641 0.299999
      vertex -3.17543 0 0.299999
    endloop
  endfacet
  facet normal 0 0 1
    outer loop
      vertex -7.21021 -5.95641 0.299999
      vertex -1.58771 -2.75 0.299999
      vertex -3.17543 0 0.299999
    endloop
  endfacet
  facet normal 0 0 1
    outer loop
      vertex -7.21021 -6.04359 0.299999
      vertex -1.58771 -2.75 0.299999
      vertex -7.21021 -5.95641 0.299999
    endloop
  endfacet
  facet normal 0 0 1
    outer loop
      vertex -7.42857 -13 0.299999
      vertex -1.58771 -2.75 0.299999
      vertex -7.21021 -6.04359 0.299999
    endloop
  endfacet
  facet normal 0 0 1
    outer loop
      vertex -1.58771 -2.75 0.299999
      vertex -7.42857 -13 0.299999
      vertex 7.42857 -13 0.299999
    endloop
  endfacet
  facet normal -0 0 1
    outer loop
      vertex -9.36603 -9.77757 0.299999
      vertex -7.42857 -13 0.299999
      vertex -7.21021 -6.04359 0.299999
    endloop
  endfacet
  facet normal 0 0 1
    outer loop
      vertex -7.42857 -13 0.299999
      vertex -9.36603 -9.77757 0.299999
      vertex -7.54404 -12.9333 0.299999
    endloop
  endfacet
  facet normal 0 0 1
    outer loop
      vertex -9.06736 68.4564 0.299999
      vertex -9.14286 68.5 0.299999
      vertex -9.14286 68.4128 0.299999
    endloop
  endfacet
  facet normal 0 0 1
    outer loop
      vertex -12.0674 2.45641 0.299999
      vertex -12.1429 2.5 0.299999
      vertex -12.1429 2.41282 0.299999
    endloop
  endfacet
  facet normal 0 0 1
    outer loop
      vertex -4 38.0718 0.299999
      vertex -4.06218 38.0359 0.299999
      vertex -4 38 0.299999
    endloop
  endfacet
  facet normal 0 0 1
    outer loop
      vertex -7.21021 -5.95641 0.299999
      vertex -7.28571 -6 0.299999
      vertex -7.21021 -6.04359 0.299999
    endloop
  endfacet
  facet normal 0 0 1
    outer loop
      vertex -14.9726 2.5 0.299999
      vertex -4.06218 38.0359 0.299999
      vertex -8.06218 44.9641 0.299999
    endloop
  endfacet
  facet normal -0 0 1
    outer loop
      vertex -14.9726 51.5 0.299999
      vertex -8.06218 45.0359 0.299999
      vertex -9.14286 51.5 0.299999
    endloop
  endfacet
  facet normal 0 0 1
    outer loop
      vertex -9.14286 51.5 0.299999
      vertex -9.06736 51.5436 0.299999
      vertex -9.14286 51.5872 0.299999
    endloop
  endfacet
  facet normal 0 0 1
    outer loop
      vertex -8.06218 45.0359 0.299999
      vertex -14.9726 51.5 0.299999
      vertex -8.06218 44.9641 0.299999
    endloop
  endfacet
  facet normal 0 0 1
    outer loop
      vertex -3.17543 0 0.299999
      vertex -12.0674 2.45641 0.299999
      vertex -7.21021 -5.95641 0.299999
    endloop
  endfacet
  facet normal 0 0 1
    outer loop
      vertex -1.58771 2.75 0.299999
      vertex -12.1429 2.5 0.299999
      vertex -12.0674 2.45641 0.299999
    endloop
  endfacet
  facet normal 0 0 1
    outer loop
      vertex -14.9726 2.5 0.299999
      vertex -8.06218 44.9641 0.299999
      vertex -14.9726 51.5 0.299999
    endloop
  endfacet
  facet normal 0 0 1
    outer loop
      vertex -4.06218 38.0359 0.299999
      vertex -14.9726 2.5 0.299999
      vertex -12.1429 2.5 0.299999
    endloop
  endfacet
  facet normal 0 0 1
    outer loop
      vertex -4.21021 60.0436 0.299999
      vertex -4.28571 60 0.299999
      vertex -4.21021 59.9564 0.299999
    endloop
  endfacet
  facet normal 0 0 1
    outer loop
      vertex -1.58771 82.25 0.299999
      vertex -4.21021 59.9564 0.299999
      vertex -4.06218 51.9641 0.299999
    endloop
  endfacet
  facet normal 0 0 1
    outer loop
      vertex -9.06736 51.5436 0.299999
      vertex -4.06218 51.9641 0.299999
      vertex -4.21021 59.9564 0.299999
    endloop
  endfacet
  facet normal -0 0 1
    outer loop
      vertex -9.14286 51.5 0.299999
      vertex -8.06218 45.0359 0.299999
      vertex -9.06736 51.5436 0.299999
    endloop
  endfacet
  facet normal 0 0 1
    outer loop
      vertex -4.06218 51.9641 0.299999
      vertex -9.06736 51.5436 0.299999
      vertex -8.06218 45.0359 0.299999
    endloop
  endfacet
  facet normal 0 0 1
    outer loop
      vertex -8 45 0.299999
      vertex -8.06218 45.0359 0.299999
      vertex -8.06218 44.9641 0.299999
    endloop
  endfacet
  facet normal 0 0 1
    outer loop
      vertex 14.9726 -0.0666676 0.299999
      vertex 1.58771 2.75 0.299999
      vertex 3.17543 0 0.299999
    endloop
  endfacet
  facet normal 0 0 1
    outer loop
      vertex 9.06736 21.5436 0.299999
      vertex -1.58771 2.75 0.299999
      vertex 1.58771 2.75 0.299999
    endloop
  endfacet
  facet normal 0 0 1
    outer loop
      vertex -12.1429 2.5 0.299999
      vertex 4.21021 29.9564 0.299999
      vertex -4 38 0.299999
    endloop
  endfacet
  facet normal 0 0 1
    outer loop
      vertex -12.1429 2.5 0.299999
      vertex -4 38 0.299999
      vertex -4.06218 38.0359 0.299999
    endloop
  endfacet
  facet normal 0 0 1
    outer loop
      vertex 4.06218 51.9641 0.299999
      vertex 4 52 0.299999
      vertex 4 51.9282 0.299999
    endloop
  endfacet
  facet normal 0 0 1
    outer loop
      vertex 14.9726 85.0667 0.299999
      vertex 4 52 0.299999
      vertex 4.06218 51.9641 0.299999
    endloop
  endfacet
  facet normal -0 0 1
    outer loop
      vertex -1.58771 82.25 0.299999
      vertex 4 52 0.299999
      vertex 1.58771 82.25 0.299999
    endloop
  endfacet
  facet normal 0 0 1
    outer loop
      vertex -14.9726 85.0667 0.299999
      vertex -1.58771 82.25 0.299999
      vertex -3.17543 85 0.299999
    endloop
  endfacet
  facet normal 0 0 1
    outer loop
      vertex -1.58771 82.25 0.299999
      vertex -4 52 0.299999
      vertex 4 52 0.299999
    endloop
  endfacet
  facet normal 0.499998 -0.866026 0
    outer loop
      vertex 7.42857 -13 -3.2
      vertex 7.54404 -12.9333 0.299999
      vertex 7.42857 -13 0.299999
    endloop
  endfacet
  facet normal 0.499998 -0.866026 0
    outer loop
      vertex 7.54404 -12.9333 0.299999
      vertex 7.42857 -13 -3.2
      vertex 7.54404 -12.9333 -3.2
    endloop
  endfacet
  facet normal -0.866025 -0.5 0
    outer loop
      vertex -7.54404 -12.9333 -3.2
      vertex -9.36603 -9.77757 0.299999
      vertex -9.36603 -9.77757 -3.2
    endloop
  endfacet
  facet normal -0.866025 -0.5 0
    outer loop
      vertex -9.36603 -9.77757 0.299999
      vertex -7.54404 -12.9333 -3.2
      vertex -7.54404 -12.9333 0.299999
    endloop
  endfacet
  facet normal -1 0 0
    outer loop
      vertex -14.9726 68.5 -3.2
      vertex -14.9726 85.0667 0.299999
      vertex -14.9726 85.0667 -3.2
    endloop
  endfacet
  facet normal -1 -0 0
    outer loop
      vertex -14.9726 85.0667 0.299999
      vertex -14.9726 68.5 -3.2
      vertex -14.9726 68.5 0.299999
    endloop
  endfacet
  facet normal -1 0 0
    outer loop
      vertex -14.9726 2.5 -3.2
      vertex -14.9726 51.5 0.299999
      vertex -14.9726 51.5 -3.2
    endloop
  endfacet
  facet normal -1 -0 0
    outer loop
      vertex -14.9726 51.5 0.299999
      vertex -14.9726 2.5 -3.2
      vertex -14.9726 2.5 0.299999
    endloop
  endfacet
  facet normal -0.866026 0.5 0
    outer loop
      vertex -14.9726 85.0667 -3.2
      vertex -7.54404 97.9333 0.299999
      vertex -7.54404 97.9333 -3.2
    endloop
  endfacet
  facet normal -0.866026 0.5 0
    outer loop
      vertex -7.54404 97.9333 0.299999
      vertex -14.9726 85.0667 -3.2
      vertex -14.9726 85.0667 0.299999
    endloop
  endfacet
  facet normal 0 1 -0
    outer loop
      vertex 7.42857 98 -3.2
      vertex -7.42857 98 0.299999
      vertex 7.42857 98 0.299999
    endloop
  endfacet
  facet normal 0 1 0
    outer loop
      vertex -7.42857 98 0.299999
      vertex 7.42857 98 -3.2
      vertex -7.42857 98 -3.2
    endloop
  endfacet
  facet normal 0.499982 0.866036 -0
    outer loop
      vertex 7.54404 97.9333 -3.2
      vertex 7.42857 98 0.299999
      vertex 7.54404 97.9333 0.299999
    endloop
  endfacet
  facet normal 0.499982 0.866036 0
    outer loop
      vertex 7.42857 98 0.299999
      vertex 7.54404 97.9333 -3.2
      vertex 7.42857 98 -3.2
    endloop
  endfacet
  facet normal -0.499982 0.866036 0
    outer loop
      vertex -7.42857 98 -3.2
      vertex -7.54404 97.9333 0.299999
      vertex -7.42857 98 0.299999
    endloop
  endfacet
  facet normal -0.499982 0.866036 0
    outer loop
      vertex -7.54404 97.9333 0.299999
      vertex -7.42857 98 -3.2
      vertex -7.54404 97.9333 -3.2
    endloop
  endfacet
  facet normal -0.866025 -0.5 0
    outer loop
      vertex 3.17543 85 -2.099
      vertex 1.58771 87.75 0.299999
      vertex 1.58771 87.75 -2.099
    endloop
  endfacet
  facet normal -0.866025 -0.5 0
    outer loop
      vertex 1.58771 87.75 0.299999
      vertex 3.17543 85 -2.099
      vertex 3.17543 85 0.299999
    endloop
  endfacet
  facet normal 0.866025 -0.5 0
    outer loop
      vertex -3.17543 85 0.299999
      vertex -1.58771 87.75 -2.099
      vertex -1.58771 87.75 0.299999
    endloop
  endfacet
  facet normal 0.866025 -0.5 0
    outer loop
      vertex -1.58771 87.75 -2.099
      vertex -3.17543 85 0.299999
      vertex -3.17543 85 -2.099
    endloop
  endfacet
  facet normal 0 -1 0
    outer loop
      vertex -1.58771 87.75 -2.099
      vertex 1.58771 87.75 0.299999
      vertex -1.58771 87.75 0.299999
    endloop
  endfacet
  facet normal 0 -1 -0
    outer loop
      vertex 1.58771 87.75 0.299999
      vertex -1.58771 87.75 -2.099
      vertex 1.58771 87.75 -2.099
    endloop
  endfacet
  facet normal -0 0 1
    outer loop
      vertex 1.21352 85.8817 -2.099
      vertex 3.17543 85 -2.099
      vertex 1.58771 87.75 -2.099
    endloop
  endfacet
  facet normal 0 0 1
    outer loop
      vertex 1.21352 84.1183 -2.099
      vertex 3.17543 85 -2.099
      vertex 1.5 85 -2.099
    endloop
  endfacet
  facet normal 0 0 1
    outer loop
      vertex 3.17543 85 -2.099
      vertex 1.21352 85.8817 -2.099
      vertex 1.5 85 -2.099
    endloop
  endfacet
  facet normal 0 0 1
    outer loop
      vertex 1.58771 87.75 -2.099
      vertex 0.463525 86.4266 -2.099
      vertex 1.21352 85.8817 -2.099
    endloop
  endfacet
  facet normal 0 0 1
    outer loop
      vertex 1.58771 87.75 -2.099
      vertex -0.463525 86.4266 -2.099
      vertex 0.463525 86.4266 -2.099
    endloop
  endfacet
  facet normal 0 0 1
    outer loop
      vertex -3.17543 85 -2.099
      vertex -1.21352 85.8817 -2.099
      vertex -1.58771 87.75 -2.099
    endloop
  endfacet
  facet normal 0 0 1
    outer loop
      vertex -0.463525 86.4266 -2.099
      vertex -1.58771 87.75 -2.099
      vertex -1.21352 85.8817 -2.099
    endloop
  endfacet
  facet normal -0 0 1
    outer loop
      vertex -1.58771 87.75 -2.099
      vertex -0.463525 86.4266 -2.099
      vertex 1.58771 87.75 -2.099
    endloop
  endfacet
  facet normal 0 0 1
    outer loop
      vertex 3.17543 85 -2.099
      vertex 1.21352 84.1183 -2.099
      vertex 1.58771 82.25 -2.099
    endloop
  endfacet
  facet normal -0 0 1
    outer loop
      vertex 0.463525 83.5734 -2.099
      vertex 1.58771 82.25 -2.099
      vertex 1.21352 84.1183 -2.099
    endloop
  endfacet
  facet normal -0 0 1
    outer loop
      vertex -0.463525 83.5734 -2.099
      vertex 1.58771 82.25 -2.099
      vertex 0.463525 83.5734 -2.099
    endloop
  endfacet
  facet normal 0 0 1
    outer loop
      vertex -0.463525 83.5734 -2.099
      vertex -1.58771 82.25 -2.099
      vertex 1.58771 82.25 -2.099
    endloop
  endfacet
  facet normal 0 0 1
    outer loop
      vertex -1.21352 84.1183 -2.099
      vertex -1.58771 82.25 -2.099
      vertex -0.463525 83.5734 -2.099
    endloop
  endfacet
  facet normal -0 0 1
    outer loop
      vertex -3.17543 85 -2.099
      vertex -1.21352 84.1183 -2.099
      vertex -1.5 85 -2.099
    endloop
  endfacet
  facet normal 0 0 1
    outer loop
      vertex -1.21352 85.8817 -2.099
      vertex -3.17543 85 -2.099
      vertex -1.5 85 -2.099
    endloop
  endfacet
  facet normal 0 0 1
    outer loop
      vertex -1.21352 84.1183 -2.099
      vertex -3.17543 85 -2.099
      vertex -1.58771 82.25 -2.099
    endloop
  endfacet
  facet normal -0.866025 0.5 0
    outer loop
      vertex 1.58771 82.25 -2.099
      vertex 3.17543 85 0.299999
      vertex 3.17543 85 -2.099
    endloop
  endfacet
  facet normal -0.866025 0.5 0
    outer loop
      vertex 3.17543 85 0.299999
      vertex 1.58771 82.25 -2.099
      vertex 1.58771 82.25 0.299999
    endloop
  endfacet
  facet normal 0.866025 0.5 0
    outer loop
      vertex -1.58771 82.25 0.299999
      vertex -3.17543 85 -2.099
      vertex -3.17543 85 0.299999
    endloop
  endfacet
  facet normal 0.866025 0.5 0
    outer loop
      vertex -3.17543 85 -2.099
      vertex -1.58771 82.25 0.299999
      vertex -1.58771 82.25 -2.099
    endloop
  endfacet
  facet normal 0 1 -0
    outer loop
      vertex 1.58771 82.25 -2.099
      vertex -1.58771 82.25 0.299999
      vertex 1.58771 82.25 0.299999
    endloop
  endfacet
  facet normal 0 1 0
    outer loop
      vertex -1.58771 82.25 0.299999
      vertex 1.58771 82.25 -2.099
      vertex -1.58771 82.25 -2.099
    endloop
  endfacet
  facet normal -0.866025 -0.5 0
    outer loop
      vertex 3.17543 0 -2.099
      vertex 1.58771 2.75 0.299999
      vertex 1.58771 2.75 -2.099
    endloop
  endfacet
  facet normal -0.866025 -0.5 0
    outer loop
      vertex 1.58771 2.75 0.299999
      vertex 3.17543 0 -2.099
      vertex 3.17543 0 0.299999
    endloop
  endfacet
  facet normal 0.866025 -0.5 0
    outer loop
      vertex -3.17543 0 0.299999
      vertex -1.58771 2.75 -2.099
      vertex -1.58771 2.75 0.299999
    endloop
  endfacet
  facet normal 0.866025 -0.5 0
    outer loop
      vertex -1.58771 2.75 -2.099
      vertex -3.17543 0 0.299999
      vertex -3.17543 0 -2.099
    endloop
  endfacet
  facet normal 0 -1 0
    outer loop
      vertex -1.58771 2.75 -2.099
      vertex 1.58771 2.75 0.299999
      vertex -1.58771 2.75 0.299999
    endloop
  endfacet
  facet normal 0 -1 -0
    outer loop
      vertex 1.58771 2.75 0.299999
      vertex -1.58771 2.75 -2.099
      vertex 1.58771 2.75 -2.099
    endloop
  endfacet
  facet normal -0 0 1
    outer loop
      vertex 1.21352 0.881678 -2.099
      vertex 3.17543 0 -2.099
      vertex 1.58771 2.75 -2.099
    endloop
  endfacet
  facet normal 0 0 1
    outer loop
      vertex 1.21352 -0.881678 -2.099
      vertex 3.17543 0 -2.099
      vertex 1.5 0 -2.099
    endloop
  endfacet
  facet normal 0 0 1
    outer loop
      vertex 3.17543 0 -2.099
      vertex 1.21352 0.881678 -2.099
      vertex 1.5 0 -2.099
    endloop
  endfacet
  facet normal 0 0 1
    outer loop
      vertex 1.58771 2.75 -2.099
      vertex 0.463525 1.42658 -2.099
      vertex 1.21352 0.881678 -2.099
    endloop
  endfacet
  facet normal 0 0 1
    outer loop
      vertex 1.58771 2.75 -2.099
      vertex -0.463525 1.42658 -2.099
      vertex 0.463525 1.42658 -2.099
    endloop
  endfacet
  facet normal 0 0 1
    outer loop
      vertex -3.17543 0 -2.099
      vertex -1.21352 0.881678 -2.099
      vertex -1.58771 2.75 -2.099
    endloop
  endfacet
  facet normal 0 0 1
    outer loop
      vertex -0.463525 1.42658 -2.099
      vertex -1.58771 2.75 -2.099
      vertex -1.21352 0.881678 -2.099
    endloop
  endfacet
  facet normal -0 0 1
    outer loop
      vertex -1.58771 2.75 -2.099
      vertex -0.463525 1.42658 -2.099
      vertex 1.58771 2.75 -2.099
    endloop
  endfacet
  facet normal 0 0 1
    outer loop
      vertex 3.17543 0 -2.099
      vertex 1.21352 -0.881678 -2.099
      vertex 1.58771 -2.75 -2.099
    endloop
  endfacet
  facet normal -0 0 1
    outer loop
      vertex 0.463525 -1.42658 -2.099
      vertex 1.58771 -2.75 -2.099
      vertex 1.21352 -0.881678 -2.099
    endloop
  endfacet
  facet normal -0 0 1
    outer loop
      vertex -0.463525 -1.42658 -2.099
      vertex 1.58771 -2.75 -2.099
      vertex 0.463525 -1.42658 -2.099
    endloop
  endfacet
  facet normal 0 0 1
    outer loop
      vertex -0.463525 -1.42658 -2.099
      vertex -1.58771 -2.75 -2.099
      vertex 1.58771 -2.75 -2.099
    endloop
  endfacet
  facet normal 0 0 1
    outer loop
      vertex -1.21352 -0.881678 -2.099
      vertex -1.58771 -2.75 -2.099
      vertex -0.463525 -1.42658 -2.099
    endloop
  endfacet
  facet normal -0 0 1
    outer loop
      vertex -3.17543 0 -2.099
      vertex -1.21352 -0.881678 -2.099
      vertex -1.5 0 -2.099
    endloop
  endfacet
  facet normal 0 0 1
    outer loop
      vertex -1.21352 0.881678 -2.099
      vertex -3.17543 0 -2.099
      vertex -1.5 0 -2.099
    endloop
  endfacet
  facet normal 0 0 1
    outer loop
      vertex -1.21352 -0.881678 -2.099
      vertex -3.17543 0 -2.099
      vertex -1.58771 -2.75 -2.099
    endloop
  endfacet
  facet normal -0.866025 0.5 0
    outer loop
      vertex 1.58771 -2.75 -2.099
      vertex 3.17543 0 0.299999
      vertex 3.17543 0 -2.099
    endloop
  endfacet
  facet normal -0.866025 0.5 0
    outer loop
      vertex 3.17543 0 0.299999
      vertex 1.58771 -2.75 -2.099
      vertex 1.58771 -2.75 0.299999
    endloop
  endfacet
  facet normal 0.866025 0.5 0
    outer loop
      vertex -1.58771 -2.75 0.299999
      vertex -3.17543 0 -2.099
      vertex -3.17543 0 0.299999
    endloop
  endfacet
  facet normal 0.866025 0.5 0
    outer loop
      vertex -3.17543 0 -2.099
      vertex -1.58771 -2.75 0.299999
      vertex -1.58771 -2.75 -2.099
    endloop
  endfacet
  facet normal 3.0033e-07 1 -0
    outer loop
      vertex 1.58771 -2.75 -2.099
      vertex -1.58771 -2.75 0.299999
      vertex 1.58771 -2.75 0.299999
    endloop
  endfacet
  facet normal 3.0033e-07 1 0
    outer loop
      vertex -1.58771 -2.75 0.299999
      vertex 1.58771 -2.75 -2.099
      vertex -1.58771 -2.75 -2.099
    endloop
  endfacet
  facet normal 0.500001 -0.866025 0
    outer loop
      vertex -22.1828 -6.02308 -3.2
      vertex -22.1429 -6 0.3
      vertex -22.1828 -6.02308 0.3
    endloop
  endfacet
  facet normal 0.500001 -0.866025 0
    outer loop
      vertex -22.1429 -6 0.3
      vertex -22.1828 -6.02308 -3.2
      vertex -22.1429 -6 -3.2
    endloop
  endfacet
  facet normal 0.5 -0.866025 0
    outer loop
      vertex -14.4286 -1.54616 -3.2
      vertex -14.3886 -1.52308 0.3
      vertex -14.4286 -1.54616 0.3
    endloop
  endfacet
  facet normal 0.5 -0.866025 0
    outer loop
      vertex -14.3886 -1.52308 0.3
      vertex -14.4286 -1.54616 -3.2
      vertex -14.3886 -1.52308 -3.2
    endloop
  endfacet
  facet normal -0.499984 0.866035 0
    outer loop
      vertex -19.5714 -10.4538 -3.2
      vertex -19.6114 -10.4769 0.3
      vertex -19.5714 -10.4538 0.3
    endloop
  endfacet
  facet normal -0.499984 0.866035 0
    outer loop
      vertex -19.6114 -10.4769 0.3
      vertex -19.5714 -10.4538 -3.2
      vertex -19.6114 -10.4769 -3.2
    endloop
  endfacet
  facet normal -0.500001 0.866025 0
    outer loop
      vertex -11.8172 -5.97692 -3.2
      vertex -11.8571 -6 0.3
      vertex -11.8172 -5.97692 0.3
    endloop
  endfacet
  facet normal -0.500001 0.866025 0
    outer loop
      vertex -11.8571 -6 0.3
      vertex -11.8172 -5.97692 -3.2
      vertex -11.8571 -6 -3.2
    endloop
  endfacet
  facet normal -0.866025 -0.5 0
    outer loop
      vertex -11.8172 -5.97692 -3.2
      vertex -14.3886 -1.52308 0.3
      vertex -14.3886 -1.52308 -3.2
    endloop
  endfacet
  facet normal -0.866025 -0.5 0
    outer loop
      vertex -14.3886 -1.52308 0.3
      vertex -11.8172 -5.97692 -3.2
      vertex -11.8172 -5.97692 0.3
    endloop
  endfacet
  facet normal 0.866026 0.5 0
    outer loop
      vertex -19.6114 -10.4769 0.3
      vertex -22.1828 -6.02308 -3.2
      vertex -22.1828 -6.02308 0.3
    endloop
  endfacet
  facet normal 0.866026 0.5 0
    outer loop
      vertex -22.1828 -6.02308 -3.2
      vertex -19.6114 -10.4769 0.3
      vertex -19.6114 -10.4769 -3.2
    endloop
  endfacet
  facet normal 1 -0 0
    outer loop
      vertex -19.5714 -10.5 0.3
      vertex -19.5714 -10.4538 -3.2
      vertex -19.5714 -10.4538 0.3
    endloop
  endfacet
  facet normal 1 0 0
    outer loop
      vertex -19.5714 -10.4538 -3.2
      vertex -19.5714 -10.5 0.3
      vertex -19.5714 -10.5 -3.2
    endloop
  endfacet
  facet normal 1 -0 0
    outer loop
      vertex -19.5714 -1.54616 0.3
      vertex -19.5714 -1.5 -3.2
      vertex -19.5714 -1.5 0.3
    endloop
  endfacet
  facet normal 1 0 0
    outer loop
      vertex -19.5714 -1.5 -3.2
      vertex -19.5714 -1.54616 0.3
      vertex -19.5714 -1.54616 -3.2
    endloop
  endfacet
  facet normal -1 0 0
    outer loop
      vertex -14.4286 -10.5 -3.2
      vertex -14.4286 -10.4538 0.3
      vertex -14.4286 -10.4538 -3.2
    endloop
  endfacet
  facet normal -1 -0 0
    outer loop
      vertex -14.4286 -10.4538 0.3
      vertex -14.4286 -10.5 -3.2
      vertex -14.4286 -10.5 0.3
    endloop
  endfacet
  facet normal -1 0 0
    outer loop
      vertex -14.4286 -1.54616 -3.2
      vertex -14.4286 -1.5 0.3
      vertex -14.4286 -1.5 -3.2
    endloop
  endfacet
  facet normal -1 -0 0
    outer loop
      vertex -14.4286 -1.5 0.3
      vertex -14.4286 -1.54616 -3.2
      vertex -14.4286 -1.54616 0.3
    endloop
  endfacet
  facet normal 0 -1 0
    outer loop
      vertex -19.5714 -1.5 -3.2
      vertex -14.4286 -1.5 0.3
      vertex -19.5714 -1.5 0.3
    endloop
  endfacet
  facet normal 0 -1 -0
    outer loop
      vertex -14.4286 -1.5 0.3
      vertex -19.5714 -1.5 -3.2
      vertex -14.4286 -1.5 -3.2
    endloop
  endfacet
  facet normal 0 1 -0
    outer loop
      vertex -14.4286 -10.5 -3.2
      vertex -19.5714 -10.5 0.3
      vertex -14.4286 -10.5 0.3
    endloop
  endfacet
  facet normal 0 1 0
    outer loop
      vertex -19.5714 -10.5 0.3
      vertex -14.4286 -10.5 -3.2
      vertex -19.5714 -10.5 -3.2
    endloop
  endfacet
  facet normal -0.500001 -0.866025 0
    outer loop
      vertex -11.8571 -6 -3.2
      vertex -11.8172 -6.02308 0.3
      vertex -11.8571 -6 0.3
    endloop
  endfacet
  facet normal -0.500001 -0.866025 -0
    outer loop
      vertex -11.8172 -6.02308 0.3
      vertex -11.8571 -6 -3.2
      vertex -11.8172 -6.02308 -3.2
    endloop
  endfacet
  facet normal -0.499991 -0.86603 0
    outer loop
      vertex -19.6114 -1.52308 -3.2
      vertex -19.5714 -1.54616 0.3
      vertex -19.6114 -1.52308 0.3
    endloop
  endfacet
  facet normal -0.499991 -0.86603 -0
    outer loop
      vertex -19.5714 -1.54616 0.3
      vertex -19.6114 -1.52308 -3.2
      vertex -19.5714 -1.54616 -3.2
    endloop
  endfacet
  facet normal 0.499993 0.86603 -0
    outer loop
      vertex -14.3886 -10.4769 -3.2
      vertex -14.4286 -10.4538 0.3
      vertex -14.3886 -10.4769 0.3
    endloop
  endfacet
  facet normal 0.499993 0.86603 0
    outer loop
      vertex -14.4286 -10.4538 0.3
      vertex -14.3886 -10.4769 -3.2
      vertex -14.4286 -10.4538 -3.2
    endloop
  endfacet
  facet normal 0.500001 0.866025 -0
    outer loop
      vertex -22.1429 -6 -3.2
      vertex -22.1828 -5.97692 0.3
      vertex -22.1429 -6 0.3
    endloop
  endfacet
  facet normal 0.500001 0.866025 0
    outer loop
      vertex -22.1828 -5.97692 0.3
      vertex -22.1429 -6 -3.2
      vertex -22.1828 -5.97692 -3.2
    endloop
  endfacet
  facet normal -0.866025 0.5 0
    outer loop
      vertex -14.3886 -10.4769 -3.2
      vertex -11.8172 -6.02308 0.3
      vertex -11.8172 -6.02308 -3.2
    endloop
  endfacet
  facet normal -0.866025 0.5 0
    outer loop
      vertex -11.8172 -6.02308 0.3
      vertex -14.3886 -10.4769 -3.2
      vertex -14.3886 -10.4769 0.3
    endloop
  endfacet
  facet normal 0.866026 -0.5 0
    outer loop
      vertex -22.1828 -5.97692 0.3
      vertex -19.6114 -1.52308 -3.2
      vertex -19.6114 -1.52308 0.3
    endloop
  endfacet
  facet normal 0.866026 -0.5 0
    outer loop
      vertex -19.6114 -1.52308 -3.2
      vertex -22.1828 -5.97692 0.3
      vertex -22.1828 -5.97692 -3.2
    endloop
  endfacet
  facet normal 0.499965 -0.866046 0
    outer loop
      vertex -9.14286 68.4128 -3.2
      vertex -9.06736 68.4564 0.299999
      vertex -9.14286 68.4128 0.299999
    endloop
  endfacet
  facet normal 0.499965 -0.866046 0
    outer loop
      vertex -9.06736 68.4564 0.299999
      vertex -9.14286 68.4128 -3.2
      vertex -9.06736 68.4564 -3.2
    endloop
  endfacet
  facet normal -0.5 0.866025 0
    outer loop
      vertex -4.21021 60.0436 -3.2
      vertex -4.28571 60 0.299999
      vertex -4.21021 60.0436 0.299999
    endloop
  endfacet
  facet normal -0.5 0.866025 0
    outer loop
      vertex -4.28571 60 0.299999
      vertex -4.21021 60.0436 -3.2
      vertex -4.28571 60 -3.2
    endloop
  endfacet
  facet normal -0.866025 -0.5 0
    outer loop
      vertex -4.21021 60.0436 -3.2
      vertex -9.06736 68.4564 0.299999
      vertex -9.06736 68.4564 -3.2
    endloop
  endfacet
  facet normal -0.866025 -0.5 0
    outer loop
      vertex -9.06736 68.4564 0.299999
      vertex -4.21021 60.0436 -3.2
      vertex -4.21021 60.0436 0.299999
    endloop
  endfacet
  facet normal -1 0 0
    outer loop
      vertex -9.14286 51.5 -3.2
      vertex -9.14286 51.5872 0.299999
      vertex -9.14286 51.5872 -3.2
    endloop
  endfacet
  facet normal -1 -0 0
    outer loop
      vertex -9.14286 51.5872 0.299999
      vertex -9.14286 51.5 -3.2
      vertex -9.14286 51.5 0.299999
    endloop
  endfacet
  facet normal -1 0 0
    outer loop
      vertex -9.14286 68.4128 -3.2
      vertex -9.14286 68.5 0.299999
      vertex -9.14286 68.5 -3.2
    endloop
  endfacet
  facet normal -1 -0 0
    outer loop
      vertex -9.14286 68.5 0.299999
      vertex -9.14286 68.4128 -3.2
      vertex -9.14286 68.4128 0.299999
    endloop
  endfacet
  facet normal 0 -1 0
    outer loop
      vertex -14.9726 68.5 -3.2
      vertex -9.14286 68.5 0.299999
      vertex -14.9726 68.5 0.299999
    endloop
  endfacet
  facet normal 0 -1 -0
    outer loop
      vertex -9.14286 68.5 0.299999
      vertex -14.9726 68.5 -3.2
      vertex -9.14286 68.5 -3.2
    endloop
  endfacet
  facet normal 0 1 -0
    outer loop
      vertex -9.14286 51.5 -3.2
      vertex -14.9726 51.5 0.299999
      vertex -9.14286 51.5 0.299999
    endloop
  endfacet
  facet normal 0 1 0
    outer loop
      vertex -14.9726 51.5 0.299999
      vertex -9.14286 51.5 -3.2
      vertex -14.9726 51.5 -3.2
    endloop
  endfacet
  facet normal -0.5 -0.866025 0
    outer loop
      vertex -4.28571 60 -3.2
      vertex -4.21021 59.9564 0.299999
      vertex -4.28571 60 0.299999
    endloop
  endfacet
  facet normal -0.5 -0.866025 -0
    outer loop
      vertex -4.21021 59.9564 0.299999
      vertex -4.28571 60 -3.2
      vertex -4.21021 59.9564 -3.2
    endloop
  endfacet
  facet normal 0.499998 0.866027 -0
    outer loop
      vertex -9.06736 51.5436 -3.2
      vertex -9.14286 51.5872 0.299999
      vertex -9.06736 51.5436 0.299999
    endloop
  endfacet
  facet normal 0.499998 0.866027 0
    outer loop
      vertex -9.14286 51.5872 0.299999
      vertex -9.06736 51.5436 -3.2
      vertex -9.14286 51.5872 -3.2
    endloop
  endfacet
  facet normal -0.866025 0.5 0
    outer loop
      vertex -9.06736 51.5436 -3.2
      vertex -4.21021 59.9564 0.299999
      vertex -4.21021 59.9564 -3.2
    endloop
  endfacet
  facet normal -0.866025 0.5 0
    outer loop
      vertex -4.21021 59.9564 0.299999
      vertex -9.06736 51.5436 -3.2
      vertex -9.06736 51.5436 0.299999
    endloop
  endfacet
  facet normal 0.5 -0.866025 0
    outer loop
      vertex 4.21021 29.9564 -3.2
      vertex 4.28571 30 0.299999
      vertex 4.21021 29.9564 0.299999
    endloop
  endfacet
  facet normal 0.5 -0.866025 0
    outer loop
      vertex 4.28571 30 0.299999
      vertex 4.21021 29.9564 -3.2
      vertex 4.28571 30 -3.2
    endloop
  endfacet
  facet normal -0.500014 0.866017 0
    outer loop
      vertex 9.14286 21.5872 -3.2
      vertex 9.06736 21.5436 0.299999
      vertex 9.14286 21.5872 0.299999
    endloop
  endfacet
  facet normal -0.500014 0.866017 0
    outer loop
      vertex 9.06736 21.5436 0.299999
      vertex 9.14286 21.5872 -3.2
      vertex 9.06736 21.5436 -3.2
    endloop
  endfacet
  facet normal 0.866025 0.5 0
    outer loop
      vertex 9.06736 21.5436 0.299999
      vertex 4.21021 29.9564 -3.2
      vertex 4.21021 29.9564 0.299999
    endloop
  endfacet
  facet normal 0.866025 0.5 0
    outer loop
      vertex 4.21021 29.9564 -3.2
      vertex 9.06736 21.5436 0.299999
      vertex 9.06736 21.5436 -3.2
    endloop
  endfacet
  facet normal 1 -0 0
    outer loop
      vertex 9.14286 21.5 0.299999
      vertex 9.14286 21.5872 -3.2
      vertex 9.14286 21.5872 0.299999
    endloop
  endfacet
  facet normal 1 0 0
    outer loop
      vertex 9.14286 21.5872 -3.2
      vertex 9.14286 21.5 0.299999
      vertex 9.14286 21.5 -3.2
    endloop
  endfacet
  facet normal 1 -0 0
    outer loop
      vertex 9.14286 38.4128 0.299999
      vertex 9.14286 38.5 -3.2
      vertex 9.14286 38.5 0.299999
    endloop
  endfacet
  facet normal 1 0 0
    outer loop
      vertex 9.14286 38.5 -3.2
      vertex 9.14286 38.4128 0.299999
      vertex 9.14286 38.4128 -3.2
    endloop
  endfacet
  facet normal 0 -1 0
    outer loop
      vertex 9.14286 38.5 -3.2
      vertex 14.9726 38.5 0.299999
      vertex 9.14286 38.5 0.299999
    endloop
  endfacet
  facet normal 0 -1 -0
    outer loop
      vertex 14.9726 38.5 0.299999
      vertex 9.14286 38.5 -3.2
      vertex 14.9726 38.5 -3.2
    endloop
  endfacet
  facet normal 0 1 -0
    outer loop
      vertex 14.9726 21.5 -3.2
      vertex 9.14286 21.5 0.299999
      vertex 14.9726 21.5 0.299999
    endloop
  endfacet
  facet normal 0 1 0
    outer loop
      vertex 9.14286 21.5 0.299999
      vertex 14.9726 21.5 -3.2
      vertex 9.14286 21.5 -3.2
    endloop
  endfacet
  facet normal -0.499998 -0.866027 0
    outer loop
      vertex 9.06736 38.4564 -3.2
      vertex 9.14286 38.4128 0.299999
      vertex 9.06736 38.4564 0.299999
    endloop
  endfacet
  facet normal -0.499998 -0.866027 -0
    outer loop
      vertex 9.14286 38.4128 0.299999
      vertex 9.06736 38.4564 -3.2
      vertex 9.14286 38.4128 -3.2
    endloop
  endfacet
  facet normal 0.866025 -0.5 0
    outer loop
      vertex 4.21021 30.0436 0.299999
      vertex 9.06736 38.4564 -3.2
      vertex 9.06736 38.4564 0.299999
    endloop
  endfacet
  facet normal 0.866025 -0.5 0
    outer loop
      vertex 9.06736 38.4564 -3.2
      vertex 4.21021 30.0436 0.299999
      vertex 4.21021 30.0436 -3.2
    endloop
  endfacet
  facet normal 0.5 0.866025 -0
    outer loop
      vertex 4.28571 30 -3.2
      vertex 4.21021 30.0436 0.299999
      vertex 4.28571 30 0.299999
    endloop
  endfacet
  facet normal 0.5 0.866025 0
    outer loop
      vertex 4.21021 30.0436 0.299999
      vertex 4.28571 30 -3.2
      vertex 4.21021 30.0436 -3.2
    endloop
  endfacet
  facet normal 0.499979 -0.866037 0
    outer loop
      vertex -8.06218 44.9641 -3.2
      vertex -8 45 0.299999
      vertex -8.06218 44.9641 0.299999
    endloop
  endfacet
  facet normal 0.499979 -0.866037 0
    outer loop
      vertex -8 45 0.299999
      vertex -8.06218 44.9641 -3.2
      vertex -8 45 -3.2
    endloop
  endfacet
  facet normal 0.499979 -0.866037 0
    outer loop
      vertex 4 51.9282 -3.2
      vertex 4.06218 51.9641 0.299999
      vertex 4 51.9282 0.299999
    endloop
  endfacet
  facet normal 0.499979 -0.866037 0
    outer loop
      vertex 4.06218 51.9641 0.299999
      vertex 4 51.9282 -3.2
      vertex 4.06218 51.9641 -3.2
    endloop
  endfacet
  facet normal -0.499979 0.866037 0
    outer loop
      vertex -4 38.0718 -3.2
      vertex -4.06218 38.0359 0.299999
      vertex -4 38.0718 0.299999
    endloop
  endfacet
  facet normal -0.499979 0.866037 0
    outer loop
      vertex -4.06218 38.0359 0.299999
      vertex -4 38.0718 -3.2
      vertex -4.06218 38.0359 -3.2
    endloop
  endfacet
  facet normal -0.499979 0.866037 0
    outer loop
      vertex 8.06218 45.0359 -3.2
      vertex 8 45 0.299999
      vertex 8.06218 45.0359 0.299999
    endloop
  endfacet
  facet normal -0.499979 0.866037 0
    outer loop
      vertex 8 45 0.299999
      vertex 8.06218 45.0359 -3.2
      vertex 8 45 -3.2
    endloop
  endfacet
  facet normal 0.866025 0.5 0
    outer loop
      vertex -4.06218 38.0359 0.299999
      vertex -8.06218 44.9641 -3.2
      vertex -8.06218 44.9641 0.299999
    endloop
  endfacet
  facet normal 0.866025 0.5 0
    outer loop
      vertex -8.06218 44.9641 -3.2
      vertex -4.06218 38.0359 0.299999
      vertex -4.06218 38.0359 -3.2
    endloop
  endfacet
  facet normal -0.866025 -0.5 0
    outer loop
      vertex 8.06218 45.0359 -3.2
      vertex 4.06218 51.9641 0.299999
      vertex 4.06218 51.9641 -3.2
    endloop
  endfacet
  facet normal -0.866025 -0.5 0
    outer loop
      vertex 4.06218 51.9641 0.299999
      vertex 8.06218 45.0359 -3.2
      vertex 8.06218 45.0359 0.299999
    endloop
  endfacet
  facet normal 1 -0 0
    outer loop
      vertex -4 38 0.299999
      vertex -4 38.0718 -3.2
      vertex -4 38.0718 0.299999
    endloop
  endfacet
  facet normal 1 0 0
    outer loop
      vertex -4 38.0718 -3.2
      vertex -4 38 0.299999
      vertex -4 38 -3.2
    endloop
  endfacet
  facet normal 1 -0 0
    outer loop
      vertex -4 51.9282 0.299999
      vertex -4 52 -3.2
      vertex -4 52 0.299999
    endloop
  endfacet
  facet normal 1 0 0
    outer loop
      vertex -4 52 -3.2
      vertex -4 51.9282 0.299999
      vertex -4 51.9282 -3.2
    endloop
  endfacet
  facet normal -1 0 0
    outer loop
      vertex 4 38 -3.2
      vertex 4 38.0718 0.299999
      vertex 4 38.0718 -3.2
    endloop
  endfacet
  facet normal -1 -0 0
    outer loop
      vertex 4 38.0718 0.299999
      vertex 4 38 -3.2
      vertex 4 38 0.299999
    endloop
  endfacet
  facet normal -1 0 0
    outer loop
      vertex 4 51.9282 -3.2
      vertex 4 52 0.299999
      vertex 4 52 -3.2
    endloop
  endfacet
  facet normal -1 -0 0
    outer loop
      vertex 4 52 0.299999
      vertex 4 51.9282 -3.2
      vertex 4 51.9282 0.299999
    endloop
  endfacet
  facet normal 0 -1 0
    outer loop
      vertex -4 52 -3.2
      vertex 4 52 0.299999
      vertex -4 52 0.299999
    endloop
  endfacet
  facet normal 0 -1 -0
    outer loop
      vertex 4 52 0.299999
      vertex -4 52 -3.2
      vertex 4 52 -3.2
    endloop
  endfacet
  facet normal 0 1 -0
    outer loop
      vertex 4 38 -3.2
      vertex -4 38 0.299999
      vertex 4 38 0.299999
    endloop
  endfacet
  facet normal 0 1 0
    outer loop
      vertex -4 38 0.299999
      vertex 4 38 -3.2
      vertex -4 38 -3.2
    endloop
  endfacet
  facet normal -0.499979 -0.866037 0
    outer loop
      vertex 8 45 -3.2
      vertex 8.06218 44.9641 0.299999
      vertex 8 45 0.299999
    endloop
  endfacet
  facet normal -0.499979 -0.866037 -0
    outer loop
      vertex 8.06218 44.9641 0.299999
      vertex 8 45 -3.2
      vertex 8.06218 44.9641 -3.2
    endloop
  endfacet
  facet normal -0.499979 -0.866037 0
    outer loop
      vertex -4.06218 51.9641 -3.2
      vertex -4 51.9282 0.299999
      vertex -4.06218 51.9641 0.299999
    endloop
  endfacet
  facet normal -0.499979 -0.866037 -0
    outer loop
      vertex -4 51.9282 0.299999
      vertex -4.06218 51.9641 -3.2
      vertex -4 51.9282 -3.2
    endloop
  endfacet
  facet normal 0.866025 -0.5 0
    outer loop
      vertex -8.06218 45.0359 0.299999
      vertex -4.06218 51.9641 -3.2
      vertex -4.06218 51.9641 0.299999
    endloop
  endfacet
  facet normal 0.866025 -0.5 0
    outer loop
      vertex -4.06218 51.9641 -3.2
      vertex -8.06218 45.0359 0.299999
      vertex -8.06218 45.0359 -3.2
    endloop
  endfacet
  facet normal 0.499979 0.866037 -0
    outer loop
      vertex 4.06218 38.0359 -3.2
      vertex 4 38.0718 0.299999
      vertex 4.06218 38.0359 0.299999
    endloop
  endfacet
  facet normal 0.499979 0.866037 0
    outer loop
      vertex 4 38.0718 0.299999
      vertex 4.06218 38.0359 -3.2
      vertex 4 38.0718 -3.2
    endloop
  endfacet
  facet normal 0.499979 0.866037 -0
    outer loop
      vertex -8 45 -3.2
      vertex -8.06218 45.0359 0.299999
      vertex -8 45 0.299999
    endloop
  endfacet
  facet normal 0.499979 0.866037 0
    outer loop
      vertex -8.06218 45.0359 0.299999
      vertex -8 45 -3.2
      vertex -8.06218 45.0359 -3.2
    endloop
  endfacet
  facet normal -0.866025 0.5 0
    outer loop
      vertex 4.06218 38.0359 -3.2
      vertex 8.06218 44.9641 0.299999
      vertex 8.06218 44.9641 -3.2
    endloop
  endfacet
  facet normal -0.866025 0.5 0
    outer loop
      vertex 8.06218 44.9641 0.299999
      vertex 4.06218 38.0359 -3.2
      vertex 4.06218 38.0359 0.299999
    endloop
  endfacet
  facet normal -0.951056 -0.309018 0
    outer loop
      vertex 1.5 0 -3.2
      vertex 1.21352 0.881678 -2.099
      vertex 1.21352 0.881678 -3.2
    endloop
  endfacet
  facet normal -0.951056 -0.309018 0
    outer loop
      vertex 1.21352 0.881678 -2.099
      vertex 1.5 0 -3.2
      vertex 1.5 0 -2.099
    endloop
  endfacet
  facet normal 0.951056 -0.309018 0
    outer loop
      vertex -1.5 0 -2.099
      vertex -1.21352 0.881678 -3.2
      vertex -1.21352 0.881678 -2.099
    endloop
  endfacet
  facet normal 0.951056 -0.309018 0
    outer loop
      vertex -1.21352 0.881678 -3.2
      vertex -1.5 0 -2.099
      vertex -1.5 0 -3.2
    endloop
  endfacet
  facet normal 0 -1 0
    outer loop
      vertex -0.463525 1.42658 -3.2
      vertex 0.463525 1.42658 -2.099
      vertex -0.463525 1.42658 -2.099
    endloop
  endfacet
  facet normal 0 -1 -0
    outer loop
      vertex 0.463525 1.42658 -2.099
      vertex -0.463525 1.42658 -3.2
      vertex 0.463525 1.42658 -3.2
    endloop
  endfacet
  facet normal -0.587785 -0.809017 0
    outer loop
      vertex 0.463525 1.42658 -3.2
      vertex 1.21352 0.881678 -2.099
      vertex 0.463525 1.42658 -2.099
    endloop
  endfacet
  facet normal -0.587785 -0.809017 -0
    outer loop
      vertex 1.21352 0.881678 -2.099
      vertex 0.463525 1.42658 -3.2
      vertex 1.21352 0.881678 -3.2
    endloop
  endfacet
  facet normal 0.587785 -0.809017 0
    outer loop
      vertex -1.21352 0.881678 -3.2
      vertex -0.463525 1.42658 -2.099
      vertex -1.21352 0.881678 -2.099
    endloop
  endfacet
  facet normal 0.587785 -0.809017 0
    outer loop
      vertex -0.463525 1.42658 -2.099
      vertex -1.21352 0.881678 -3.2
      vertex -0.463525 1.42658 -3.2
    endloop
  endfacet
  facet normal -0.951056 0.309018 0
    outer loop
      vertex 1.21352 -0.881678 -3.2
      vertex 1.5 0 -2.099
      vertex 1.5 0 -3.2
    endloop
  endfacet
  facet normal -0.951056 0.309018 0
    outer loop
      vertex 1.5 0 -2.099
      vertex 1.21352 -0.881678 -3.2
      vertex 1.21352 -0.881678 -2.099
    endloop
  endfacet
  facet normal 0.951056 0.309018 0
    outer loop
      vertex -1.21352 -0.881678 -2.099
      vertex -1.5 0 -3.2
      vertex -1.5 0 -2.099
    endloop
  endfacet
  facet normal 0.951056 0.309018 0
    outer loop
      vertex -1.5 0 -3.2
      vertex -1.21352 -0.881678 -2.099
      vertex -1.21352 -0.881678 -3.2
    endloop
  endfacet
  facet normal 0.587785 0.809017 -0
    outer loop
      vertex -0.463525 -1.42658 -3.2
      vertex -1.21352 -0.881678 -2.099
      vertex -0.463525 -1.42658 -2.099
    endloop
  endfacet
  facet normal 0.587785 0.809017 0
    outer loop
      vertex -1.21352 -0.881678 -2.099
      vertex -0.463525 -1.42658 -3.2
      vertex -1.21352 -0.881678 -3.2
    endloop
  endfacet
  facet normal -0.587785 0.809017 0
    outer loop
      vertex 1.21352 -0.881678 -3.2
      vertex 0.463525 -1.42658 -2.099
      vertex 1.21352 -0.881678 -2.099
    endloop
  endfacet
  facet normal -0.587785 0.809017 0
    outer loop
      vertex 0.463525 -1.42658 -2.099
      vertex 1.21352 -0.881678 -3.2
      vertex 0.463525 -1.42658 -3.2
    endloop
  endfacet
  facet normal 0 1 -0
    outer loop
      vertex 0.463525 -1.42658 -3.2
      vertex -0.463525 -1.42658 -2.099
      vertex 0.463525 -1.42658 -2.099
    endloop
  endfacet
  facet normal 0 1 0
    outer loop
      vertex -0.463525 -1.42658 -2.099
      vertex 0.463525 -1.42658 -3.2
      vertex -0.463525 -1.42658 -3.2
    endloop
  endfacet
  facet normal -0.951056 -0.309018 0
    outer loop
      vertex 1.5 85 -3.2
      vertex 1.21352 85.8817 -2.099
      vertex 1.21352 85.8817 -3.2
    endloop
  endfacet
  facet normal -0.951056 -0.309018 0
    outer loop
      vertex 1.21352 85.8817 -2.099
      vertex 1.5 85 -3.2
      vertex 1.5 85 -2.099
    endloop
  endfacet
  facet normal -0.587785 0.809017 0
    outer loop
      vertex 1.21352 84.1183 -3.2
      vertex 0.463525 83.5734 -2.099
      vertex 1.21352 84.1183 -2.099
    endloop
  endfacet
  facet normal -0.587785 0.809017 0
    outer loop
      vertex 0.463525 83.5734 -2.099
      vertex 1.21352 84.1183 -3.2
      vertex 0.463525 83.5734 -3.2
    endloop
  endfacet
  facet normal 0.587785 -0.809017 0
    outer loop
      vertex -1.21352 85.8817 -3.2
      vertex -0.463525 86.4266 -2.099
      vertex -1.21352 85.8817 -2.099
    endloop
  endfacet
  facet normal 0.587785 -0.809017 0
    outer loop
      vertex -0.463525 86.4266 -2.099
      vertex -1.21352 85.8817 -3.2
      vertex -0.463525 86.4266 -3.2
    endloop
  endfacet
  facet normal -0.587785 -0.809017 0
    outer loop
      vertex 0.463525 86.4266 -3.2
      vertex 1.21352 85.8817 -2.099
      vertex 0.463525 86.4266 -2.099
    endloop
  endfacet
  facet normal -0.587785 -0.809017 -0
    outer loop
      vertex 1.21352 85.8817 -2.099
      vertex 0.463525 86.4266 -3.2
      vertex 1.21352 85.8817 -3.2
    endloop
  endfacet
  facet normal 0.951056 -0.309018 0
    outer loop
      vertex -1.5 85 -2.099
      vertex -1.21352 85.8817 -3.2
      vertex -1.21352 85.8817 -2.099
    endloop
  endfacet
  facet normal 0.951056 -0.309018 0
    outer loop
      vertex -1.21352 85.8817 -3.2
      vertex -1.5 85 -2.099
      vertex -1.5 85 -3.2
    endloop
  endfacet
  facet normal -0.951056 0.309018 0
    outer loop
      vertex 1.21352 84.1183 -3.2
      vertex 1.5 85 -2.099
      vertex 1.5 85 -3.2
    endloop
  endfacet
  facet normal -0.951056 0.309018 0
    outer loop
      vertex 1.5 85 -2.099
      vertex 1.21352 84.1183 -3.2
      vertex 1.21352 84.1183 -2.099
    endloop
  endfacet
  facet normal 0 -1 0
    outer loop
      vertex -0.463525 86.4266 -3.2
      vertex 0.463525 86.4266 -2.099
      vertex -0.463525 86.4266 -2.099
    endloop
  endfacet
  facet normal 0 -1 -0
    outer loop
      vertex 0.463525 86.4266 -2.099
      vertex -0.463525 86.4266 -3.2
      vertex 0.463525 86.4266 -3.2
    endloop
  endfacet
  facet normal 0.951056 0.309018 0
    outer loop
      vertex -1.21352 84.1183 -2.099
      vertex -1.5 85 -3.2
      vertex -1.5 85 -2.099
    endloop
  endfacet
  facet normal 0.951056 0.309018 0
    outer loop
      vertex -1.5 85 -3.2
      vertex -1.21352 84.1183 -2.099
      vertex -1.21352 84.1183 -3.2
    endloop
  endfacet
  facet normal 0.587785 0.809017 -0
    outer loop
      vertex -0.463525 83.5734 -3.2
      vertex -1.21352 84.1183 -2.099
      vertex -0.463525 83.5734 -2.099
    endloop
  endfacet
  facet normal 0.587785 0.809017 0
    outer loop
      vertex -1.21352 84.1183 -2.099
      vertex -0.463525 83.5734 -3.2
      vertex -1.21352 84.1183 -3.2
    endloop
  endfacet
  facet normal 0 1 -0
    outer loop
      vertex 0.463525 83.5734 -3.2
      vertex -0.463525 83.5734 -2.099
      vertex 0.463525 83.5734 -2.099
    endloop
  endfacet
  facet normal 0 1 0
    outer loop
      vertex -0.463525 83.5734 -2.099
      vertex 0.463525 83.5734 -3.2
      vertex -0.463525 83.5734 -3.2
    endloop
  endfacet
endsolid OpenSCAD_Model
