solid OpenSCAD_Model
  facet normal 0.5 0.866025 -0
    outer loop
      vertex -0.571429 -8.7 -2.75
      vertex -0.57587 -8.69744 -1.95
      vertex -0.571429 -8.7 -1.95
    endloop
  endfacet
  facet normal 0.5 0.866025 0
    outer loop
      vertex -0.57587 -8.69744 -1.95
      vertex -0.571429 -8.7 -2.75
      vertex -0.57587 -8.69744 -2.75
    endloop
  endfacet
  facet normal 0.500039 0.866003 -0
    outer loop
      vertex 0.290155 -9.19744 -2.75
      vertex 0.285714 -9.19487 -1.95
      vertex 0.290155 -9.19744 -1.95
    endloop
  endfacet
  facet normal 0.500039 0.866003 0
    outer loop
      vertex 0.285714 -9.19487 -1.95
      vertex 0.290155 -9.19744 -2.75
      vertex 0.285714 -9.19487 -2.75
    endloop
  endfacet
  facet normal -0.500039 -0.866003 0
    outer loop
      vertex -0.290155 -8.20256 -2.75
      vertex -0.285714 -8.20513 -1.95
      vertex -0.290155 -8.20256 -1.95
    endloop
  endfacet
  facet normal -0.500039 -0.866003 -0
    outer loop
      vertex -0.285714 -8.20513 -1.95
      vertex -0.290155 -8.20256 -2.75
      vertex -0.285714 -8.20513 -2.75
    endloop
  endfacet
  facet normal -0.5 -0.866025 0
    outer loop
      vertex 0.571429 -8.7 -2.75
      vertex 0.57587 -8.70256 -1.95
      vertex 0.571429 -8.7 -1.95
    endloop
  endfacet
  facet normal -0.5 -0.866025 -0
    outer loop
      vertex 0.57587 -8.70256 -1.95
      vertex 0.571429 -8.7 -2.75
      vertex 0.57587 -8.70256 -2.75
    endloop
  endfacet
  facet normal 0.866026 -0.499999 0
    outer loop
      vertex -0.57587 -8.69744 -1.95
      vertex -0.290155 -8.20256 -2.75
      vertex -0.290155 -8.20256 -1.95
    endloop
  endfacet
  facet normal 0.866026 -0.499999 0
    outer loop
      vertex -0.290155 -8.20256 -2.75
      vertex -0.57587 -8.69744 -1.95
      vertex -0.57587 -8.69744 -2.75
    endloop
  endfacet
  facet normal -0.866026 0.499999 0
    outer loop
      vertex 0.290155 -9.19744 -2.75
      vertex 0.57587 -8.70256 -1.95
      vertex 0.57587 -8.70256 -2.75
    endloop
  endfacet
  facet normal -0.866026 0.499999 0
    outer loop
      vertex 0.57587 -8.70256 -1.95
      vertex 0.290155 -9.19744 -2.75
      vertex 0.290155 -9.19744 -1.95
    endloop
  endfacet
  facet normal 1 -0 0
    outer loop
      vertex -0.285714 -8.20513 -1.95
      vertex -0.285714 -8.2 -2.75
      vertex -0.285714 -8.2 -1.95
    endloop
  endfacet
  facet normal 1 0 0
    outer loop
      vertex -0.285714 -8.2 -2.75
      vertex -0.285714 -8.20513 -1.95
      vertex -0.285714 -8.20513 -2.75
    endloop
  endfacet
  facet normal 1 -0 0
    outer loop
      vertex -0.285714 -9.2 -1.95
      vertex -0.285714 -9.19487 -2.75
      vertex -0.285714 -9.19487 -1.95
    endloop
  endfacet
  facet normal 1 0 0
    outer loop
      vertex -0.285714 -9.19487 -2.75
      vertex -0.285714 -9.2 -1.95
      vertex -0.285714 -9.2 -2.75
    endloop
  endfacet
  facet normal -1 0 0
    outer loop
      vertex 0.285714 -8.20513 -2.75
      vertex 0.285714 -8.2 -1.95
      vertex 0.285714 -8.2 -2.75
    endloop
  endfacet
  facet normal -1 -0 0
    outer loop
      vertex 0.285714 -8.2 -1.95
      vertex 0.285714 -8.20513 -2.75
      vertex 0.285714 -8.20513 -1.95
    endloop
  endfacet
  facet normal -1 0 0
    outer loop
      vertex 0.285714 -9.2 -2.75
      vertex 0.285714 -9.19487 -1.95
      vertex 0.285714 -9.19487 -2.75
    endloop
  endfacet
  facet normal -1 -0 0
    outer loop
      vertex 0.285714 -9.19487 -1.95
      vertex 0.285714 -9.2 -2.75
      vertex 0.285714 -9.2 -1.95
    endloop
  endfacet
  facet normal 0 1 -0
    outer loop
      vertex 0.285714 -9.2 -2.75
      vertex -0.285714 -9.2 -1.95
      vertex 0.285714 -9.2 -1.95
    endloop
  endfacet
  facet normal 0 1 0
    outer loop
      vertex -0.285714 -9.2 -1.95
      vertex 0.285714 -9.2 -2.75
      vertex -0.285714 -9.2 -2.75
    endloop
  endfacet
  facet normal 0 -1 0
    outer loop
      vertex -0.285714 -8.2 -2.75
      vertex 0.285714 -8.2 -1.95
      vertex -0.285714 -8.2 -1.95
    endloop
  endfacet
  facet normal 0 -1 -0
    outer loop
      vertex 0.285714 -8.2 -1.95
      vertex -0.285714 -8.2 -2.75
      vertex 0.285714 -8.2 -2.75
    endloop
  endfacet
  facet normal -0.5 0.866025 0
    outer loop
      vertex 0.57587 -8.69744 -2.75
      vertex 0.571429 -8.7 -1.95
      vertex 0.57587 -8.69744 -1.95
    endloop
  endfacet
  facet normal -0.5 0.866025 0
    outer loop
      vertex 0.571429 -8.7 -1.95
      vertex 0.57587 -8.69744 -2.75
      vertex 0.571429 -8.7 -2.75
    endloop
  endfacet
  facet normal -0.500039 0.866003 0
    outer loop
      vertex -0.285714 -9.19487 -2.75
      vertex -0.290155 -9.19744 -1.95
      vertex -0.285714 -9.19487 -1.95
    endloop
  endfacet
  facet normal -0.500039 0.866003 0
    outer loop
      vertex -0.290155 -9.19744 -1.95
      vertex -0.285714 -9.19487 -2.75
      vertex -0.290155 -9.19744 -2.75
    endloop
  endfacet
  facet normal 0.866026 0.499999 0
    outer loop
      vertex -0.290155 -9.19744 -1.95
      vertex -0.57587 -8.70256 -2.75
      vertex -0.57587 -8.70256 -1.95
    endloop
  endfacet
  facet normal 0.866026 0.499999 0
    outer loop
      vertex -0.57587 -8.70256 -2.75
      vertex -0.290155 -9.19744 -1.95
      vertex -0.290155 -9.19744 -2.75
    endloop
  endfacet
  facet normal 0.500039 -0.866003 0
    outer loop
      vertex 0.285714 -8.20513 -2.75
      vertex 0.290155 -8.20256 -1.95
      vertex 0.285714 -8.20513 -1.95
    endloop
  endfacet
  facet normal 0.500039 -0.866003 0
    outer loop
      vertex 0.290155 -8.20256 -1.95
      vertex 0.285714 -8.20513 -2.75
      vertex 0.290155 -8.20256 -2.75
    endloop
  endfacet
  facet normal 0.5 -0.866025 0
    outer loop
      vertex -0.57587 -8.70256 -2.75
      vertex -0.571429 -8.7 -1.95
      vertex -0.57587 -8.70256 -1.95
    endloop
  endfacet
  facet normal 0.5 -0.866025 0
    outer loop
      vertex -0.571429 -8.7 -1.95
      vertex -0.57587 -8.70256 -2.75
      vertex -0.571429 -8.7 -2.75
    endloop
  endfacet
  facet normal -0.866026 -0.499999 0
    outer loop
      vertex 0.57587 -8.69744 -2.75
      vertex 0.290155 -8.20256 -1.95
      vertex 0.290155 -8.20256 -2.75
    endloop
  endfacet
  facet normal -0.866026 -0.499999 0
    outer loop
      vertex 0.290155 -8.20256 -1.95
      vertex 0.57587 -8.69744 -2.75
      vertex 0.57587 -8.69744 -1.95
    endloop
  endfacet
  facet normal -0 0 1
    outer loop
      vertex -7.04999 -2.38806e-16 -1.95
      vertex -6 -4.1 -1.95
      vertex -6 -2.38806e-16 -1.95
    endloop
  endfacet
  facet normal 0 0 1
    outer loop
      vertex -6 -4.1 -1.95
      vertex -7.04999 -2.38806e-16 -1.95
      vertex -7.04999 -5 -1.95
    endloop
  endfacet
  facet normal 0 0 1
    outer loop
      vertex -6 -4.1 -1.95
      vertex -7.04999 -5 -1.95
      vertex -6.29999 -8.59999 -1.95
    endloop
  endfacet
  facet normal 0 0 1
    outer loop
      vertex -7.59999 -8.59999 -1.95
      vertex -7.04999 -5 -1.95
      vertex -7.59999 -5 -1.95
    endloop
  endfacet
  facet normal 0 0 1
    outer loop
      vertex -7.04999 -5 -1.95
      vertex -7.59999 -8.59999 -1.95
      vertex -6.29999 -8.59999 -1.95
    endloop
  endfacet
  facet normal -0 0 1
    outer loop
      vertex 6 -4.1 -1.95
      vertex 7.04999 -5 -1.95
      vertex 7.04999 -2.38806e-16 -1.95
    endloop
  endfacet
  facet normal 0 0 1
    outer loop
      vertex 7.04999 -5 -1.95
      vertex 6 -4.1 -1.95
      vertex 6.29999 -8.59999 -1.95
    endloop
  endfacet
  facet normal 0 0 1
    outer loop
      vertex 6 -4.1 -1.95
      vertex 7.04999 -2.38806e-16 -1.95
      vertex 6 -2.38806e-16 -1.95
    endloop
  endfacet
  facet normal -0 0 1
    outer loop
      vertex 7.04999 -5 -1.95
      vertex 7.59999 -8.59999 -1.95
      vertex 7.59999 -5 -1.95
    endloop
  endfacet
  facet normal 0 0 1
    outer loop
      vertex 7.59999 -8.59999 -1.95
      vertex 7.04999 -5 -1.95
      vertex 6.29999 -8.59999 -1.95
    endloop
  endfacet
  facet normal -0 0 1
    outer loop
      vertex 6.29999 -9.59999 -1.95
      vertex 7.59999 -34.2 -1.95
      vertex 7.59999 -9.59999 -1.95
    endloop
  endfacet
  facet normal -0 0 1
    outer loop
      vertex 0.290155 -8.20256 -1.95
      vertex 6.29999 -8.59999 -1.95
      vertex 6 -4.1 -1.95
    endloop
  endfacet
  facet normal 0 0 1
    outer loop
      vertex 0.57587 -8.70256 -1.95
      vertex 6.29999 -8.59999 -1.95
      vertex 0.57587 -8.69744 -1.95
    endloop
  endfacet
  facet normal 0 0 1
    outer loop
      vertex 6.29999 -8.59999 -1.95
      vertex 0.57587 -8.70256 -1.95
      vertex 6.29999 -9.59999 -1.95
    endloop
  endfacet
  facet normal 0 0 1
    outer loop
      vertex 6.29999 -9.59999 -1.95
      vertex 0.57587 -8.70256 -1.95
      vertex 0.290155 -9.19744 -1.95
    endloop
  endfacet
  facet normal -0 0 1
    outer loop
      vertex 0.285714 -9.2 -1.95
      vertex 6.29999 -9.59999 -1.95
      vertex 0.290155 -9.19744 -1.95
    endloop
  endfacet
  facet normal 0 0 1
    outer loop
      vertex 0.285714 -9.2 -1.95
      vertex 0.290155 -9.19744 -1.95
      vertex 0.285714 -9.19487 -1.95
    endloop
  endfacet
  facet normal 0 0 1
    outer loop
      vertex 6.29999 -9.59999 -1.95
      vertex 0.285714 -9.2 -1.95
      vertex 7.59999 -34.2 -1.95
    endloop
  endfacet
  facet normal -0 0 1
    outer loop
      vertex -0.285714 -9.2 -1.95
      vertex 7.59999 -34.2 -1.95
      vertex 0.285714 -9.2 -1.95
    endloop
  endfacet
  facet normal 0 0 1
    outer loop
      vertex -6.29999 -9.59999 -1.95
      vertex -0.285714 -9.2 -1.95
      vertex -0.290155 -9.19744 -1.95
    endloop
  endfacet
  facet normal 0 0 1
    outer loop
      vertex -6.29999 -9.59999 -1.95
      vertex -0.290155 -9.19744 -1.95
      vertex -0.57587 -8.70256 -1.95
    endloop
  endfacet
  facet normal 0 0 1
    outer loop
      vertex -0.57587 -8.69744 -1.95
      vertex -6.29999 -8.59999 -1.95
      vertex -0.57587 -8.70256 -1.95
    endloop
  endfacet
  facet normal 0 0 1
    outer loop
      vertex -6.29999 -9.59999 -1.95
      vertex -0.57587 -8.70256 -1.95
      vertex -6.29999 -8.59999 -1.95
    endloop
  endfacet
  facet normal 0 0 1
    outer loop
      vertex -0.285714 -9.2 -1.95
      vertex -6.29999 -9.59999 -1.95
      vertex -7.59999 -34.2 -1.95
    endloop
  endfacet
  facet normal 0 0 1
    outer loop
      vertex -7.59999 -34.2 -1.95
      vertex -6.29999 -9.59999 -1.95
      vertex -7.59999 -9.59999 -1.95
    endloop
  endfacet
  facet normal 0 0 1
    outer loop
      vertex -0.285714 -9.2 -1.95
      vertex -7.59999 -34.2 -1.95
      vertex 7.59999 -34.2 -1.95
    endloop
  endfacet
  facet normal 0 0 1
    outer loop
      vertex -0.571429 -8.7 -1.95
      vertex -0.57587 -8.69744 -1.95
      vertex -0.57587 -8.70256 -1.95
    endloop
  endfacet
  facet normal 0 0 1
    outer loop
      vertex -0.285714 -9.19487 -1.95
      vertex -0.290155 -9.19744 -1.95
      vertex -0.285714 -9.2 -1.95
    endloop
  endfacet
  facet normal 0 0 1
    outer loop
      vertex 0.57587 -8.69744 -1.95
      vertex 0.571429 -8.7 -1.95
      vertex 0.57587 -8.70256 -1.95
    endloop
  endfacet
  facet normal 0 0 1
    outer loop
      vertex 6.29999 -8.59999 -1.95
      vertex 0.290155 -8.20256 -1.95
      vertex 0.57587 -8.69744 -1.95
    endloop
  endfacet
  facet normal 0 0 1
    outer loop
      vertex 6 -4.1 -1.95
      vertex 0.285714 -8.2 -1.95
      vertex 0.290155 -8.20256 -1.95
    endloop
  endfacet
  facet normal 0 0 1
    outer loop
      vertex 6 -4.1 -1.95
      vertex -0.285714 -8.2 -1.95
      vertex 0.285714 -8.2 -1.95
    endloop
  endfacet
  facet normal 0 0 1
    outer loop
      vertex -0.285714 -8.2 -1.95
      vertex -0.290155 -8.20256 -1.95
      vertex -0.285714 -8.20513 -1.95
    endloop
  endfacet
  facet normal -0 0 1
    outer loop
      vertex -6 -4.1 -1.95
      vertex -0.285714 -8.2 -1.95
      vertex 6 -4.1 -1.95
    endloop
  endfacet
  facet normal 0 0 1
    outer loop
      vertex -0.290155 -8.20256 -1.95
      vertex -6.29999 -8.59999 -1.95
      vertex -0.57587 -8.69744 -1.95
    endloop
  endfacet
  facet normal 0 0 1
    outer loop
      vertex -6.29999 -8.59999 -1.95
      vertex -0.290155 -8.20256 -1.95
      vertex -6 -4.1 -1.95
    endloop
  endfacet
  facet normal 0 0 1
    outer loop
      vertex -0.285714 -8.2 -1.95
      vertex -6 -4.1 -1.95
      vertex -0.290155 -8.20256 -1.95
    endloop
  endfacet
  facet normal 0 0 1
    outer loop
      vertex 0.290155 -8.20256 -1.95
      vertex 0.285714 -8.2 -1.95
      vertex 0.285714 -8.20513 -1.95
    endloop
  endfacet
  facet normal 0 -1 0
    outer loop
      vertex -7.59999 -9.59999 -1.95
      vertex -6.29999 -9.59999 1.17566e-15
      vertex -7.59999 -9.59999 1.17566e-15
    endloop
  endfacet
  facet normal 0 -1 -0
    outer loop
      vertex -6.29999 -9.59999 1.17566e-15
      vertex -7.59999 -9.59999 -1.95
      vertex -6.29999 -9.59999 -1.95
    endloop
  endfacet
  facet normal 1 0 0
    outer loop
      vertex -6.29999 -9.59999 1.17566e-15
      vertex -6.29999 -8.59999 -1.95
      vertex -6.29999 -8.59999 1.0532e-15
    endloop
  endfacet
  facet normal 1 0 0
    outer loop
      vertex -6.29999 -8.59999 -1.95
      vertex -6.29999 -9.59999 1.17566e-15
      vertex -6.29999 -9.59999 -1.95
    endloop
  endfacet
  facet normal 0 1 -0
    outer loop
      vertex -6.29999 -8.59999 -1.95
      vertex -7.59999 -8.59999 1.0532e-15
      vertex -6.29999 -8.59999 1.0532e-15
    endloop
  endfacet
  facet normal 0 1 0
    outer loop
      vertex -7.59999 -8.59999 1.0532e-15
      vertex -6.29999 -8.59999 -1.95
      vertex -7.59999 -8.59999 -1.95
    endloop
  endfacet
  facet normal 1 0 0
    outer loop
      vertex -7.59999 -8.59999 1.0532e-15
      vertex -7.59999 -5 -1.95
      vertex -7.59999 -5 6.12323e-16
    endloop
  endfacet
  facet normal 1 0 0
    outer loop
      vertex -7.59999 -5 -1.95
      vertex -7.59999 -8.59999 1.0532e-15
      vertex -7.59999 -8.59999 -1.95
    endloop
  endfacet
  facet normal 0 -1 0
    outer loop
      vertex -7.59999 -5 -1.95
      vertex -7.04999 -5 6.12323e-16
      vertex -7.59999 -5 6.12323e-16
    endloop
  endfacet
  facet normal 0 -1 -0
    outer loop
      vertex -7.04999 -5 6.12323e-16
      vertex -7.59999 -5 -1.95
      vertex -7.04999 -5 -1.95
    endloop
  endfacet
  facet normal 1 0 0
    outer loop
      vertex -7.04999 -5 6.12323e-16
      vertex -7.04999 -2.38806e-16 -1.95
      vertex -7.04999 0 0
    endloop
  endfacet
  facet normal 1 0 0
    outer loop
      vertex -7.04999 -2.38806e-16 -1.95
      vertex -7.04999 -5 6.12323e-16
      vertex -7.04999 -5 -1.95
    endloop
  endfacet
  facet normal 0 -1 1.22465e-16
    outer loop
      vertex 6 -2.38806e-16 -1.95
      vertex 7.04999 0 0
      vertex 6 0 0
    endloop
  endfacet
  facet normal 0 -1 1.22465e-16
    outer loop
      vertex 7.04999 0 0
      vertex 6 -2.38806e-16 -1.95
      vertex 7.04999 -2.38806e-16 -1.95
    endloop
  endfacet
  facet normal 0 -1 1.22465e-16
    outer loop
      vertex -7.04999 -2.38806e-16 -1.95
      vertex -6 0 0
      vertex -7.04999 0 0
    endloop
  endfacet
  facet normal 0 -1 1.22465e-16
    outer loop
      vertex -6 0 0
      vertex -7.04999 -2.38806e-16 -1.95
      vertex -6 -2.38806e-16 -1.95
    endloop
  endfacet
  facet normal -1 0 0
    outer loop
      vertex 7.04999 -5 -1.95
      vertex 7.04999 0 0
      vertex 7.04999 -2.38806e-16 -1.95
    endloop
  endfacet
  facet normal -1 -0 0
    outer loop
      vertex 7.04999 0 0
      vertex 7.04999 -5 -1.95
      vertex 7.04999 -5 6.12323e-16
    endloop
  endfacet
  facet normal 0 -1 0
    outer loop
      vertex 7.04999 -5 -1.95
      vertex 7.59999 -5 6.12323e-16
      vertex 7.04999 -5 6.12323e-16
    endloop
  endfacet
  facet normal 0 -1 -0
    outer loop
      vertex 7.59999 -5 6.12323e-16
      vertex 7.04999 -5 -1.95
      vertex 7.59999 -5 -1.95
    endloop
  endfacet
  facet normal -1 0 0
    outer loop
      vertex 7.59999 -8.59999 -1.95
      vertex 7.59999 -5 6.12323e-16
      vertex 7.59999 -5 -1.95
    endloop
  endfacet
  facet normal -1 -0 0
    outer loop
      vertex 7.59999 -5 6.12323e-16
      vertex 7.59999 -8.59999 -1.95
      vertex 7.59999 -8.59999 1.0532e-15
    endloop
  endfacet
  facet normal 0 1 -0
    outer loop
      vertex 7.59999 -8.59999 -1.95
      vertex 6.29999 -8.59999 1.0532e-15
      vertex 7.59999 -8.59999 1.0532e-15
    endloop
  endfacet
  facet normal 0 1 0
    outer loop
      vertex 6.29999 -8.59999 1.0532e-15
      vertex 7.59999 -8.59999 -1.95
      vertex 6.29999 -8.59999 -1.95
    endloop
  endfacet
  facet normal -1 0 0
    outer loop
      vertex 6.29999 -9.59999 -1.95
      vertex 6.29999 -8.59999 1.0532e-15
      vertex 6.29999 -8.59999 -1.95
    endloop
  endfacet
  facet normal -1 -0 0
    outer loop
      vertex 6.29999 -8.59999 1.0532e-15
      vertex 6.29999 -9.59999 -1.95
      vertex 6.29999 -9.59999 1.17566e-15
    endloop
  endfacet
  facet normal 0 -1 0
    outer loop
      vertex 6.29999 -9.59999 -1.95
      vertex 7.59999 -9.59999 1.17566e-15
      vertex 6.29999 -9.59999 1.17566e-15
    endloop
  endfacet
  facet normal 0 -1 -0
    outer loop
      vertex 7.59999 -9.59999 1.17566e-15
      vertex 6.29999 -9.59999 -1.95
      vertex 7.59999 -9.59999 -1.95
    endloop
  endfacet
  facet normal -1 0 0
    outer loop
      vertex 7.59999 -34.2 -1.95
      vertex 7.59999 -9.59999 1.17566e-15
      vertex 7.59999 -9.59999 -1.95
    endloop
  endfacet
  facet normal -1 -0 0
    outer loop
      vertex 7.59999 -9.59999 1.17566e-15
      vertex 7.59999 -34.2 -1.95
      vertex 7.59999 -34.2 4.18829e-15
    endloop
  endfacet
  facet normal 0 1 -0
    outer loop
      vertex 7.59999 -34.2 -1.95
      vertex -7.59999 -34.2 4.18829e-15
      vertex 7.59999 -34.2 4.18829e-15
    endloop
  endfacet
  facet normal 0 1 0
    outer loop
      vertex -7.59999 -34.2 4.18829e-15
      vertex 7.59999 -34.2 -1.95
      vertex -7.59999 -34.2 -1.95
    endloop
  endfacet
  facet normal 1 0 0
    outer loop
      vertex -7.59999 -34.2 4.18829e-15
      vertex -7.59999 -9.59999 -1.95
      vertex -7.59999 -9.59999 1.17566e-15
    endloop
  endfacet
  facet normal 1 0 0
    outer loop
      vertex -7.59999 -9.59999 -1.95
      vertex -7.59999 -34.2 4.18829e-15
      vertex -7.59999 -34.2 -1.95
    endloop
  endfacet
  facet normal 1 0 0
    outer loop
      vertex -6 -2.38806e-16 -1.95
      vertex -6 2.3 -2.81669e-16
      vertex -6 0 0
    endloop
  endfacet
  facet normal 1 0 0
    outer loop
      vertex -6 2.3 -2.81669e-16
      vertex -6 -2.38806e-16 -1.95
      vertex -6 2.3 -2.2
    endloop
  endfacet
  facet normal 1 0 0
    outer loop
      vertex -6 -4.1 -2.2
      vertex -6 -2.38806e-16 -1.95
      vertex -6 -4.1 -1.95
    endloop
  endfacet
  facet normal 1 0 0
    outer loop
      vertex -6 -2.38806e-16 -1.95
      vertex -6 -4.1 -2.2
      vertex -6 2.3 -2.2
    endloop
  endfacet
  facet normal -0 0 1
    outer loop
      vertex -6 2.3 -2.2
      vertex 6 -4.1 -2.2
      vertex 6 2.3 -2.2
    endloop
  endfacet
  facet normal 0 0 1
    outer loop
      vertex 6 -4.1 -2.2
      vertex -6 2.3 -2.2
      vertex -6 -4.1 -2.2
    endloop
  endfacet
  facet normal -1 0 0
    outer loop
      vertex 6 -2.38806e-16 -1.95
      vertex 6 2.3 -2.81669e-16
      vertex 6 2.3 -2.2
    endloop
  endfacet
  facet normal -1 -0 0
    outer loop
      vertex 6 2.3 -2.81669e-16
      vertex 6 -2.38806e-16 -1.95
      vertex 6 0 0
    endloop
  endfacet
  facet normal -1 0 0
    outer loop
      vertex 6 -4.1 -2.2
      vertex 6 -2.38806e-16 -1.95
      vertex 6 2.3 -2.2
    endloop
  endfacet
  facet normal -1 -0 0
    outer loop
      vertex 6 -2.38806e-16 -1.95
      vertex 6 -4.1 -2.2
      vertex 6 -4.1 -1.95
    endloop
  endfacet
  facet normal 0 1 -0
    outer loop
      vertex 6 -4.1 -2.2
      vertex -6 -4.1 -1.95
      vertex 6 -4.1 -1.95
    endloop
  endfacet
  facet normal 0 1 0
    outer loop
      vertex -6 -4.1 -1.95
      vertex 6 -4.1 -2.2
      vertex -6 -4.1 -2.2
    endloop
  endfacet
  facet normal -1 0 0
    outer loop
      vertex -8.6 -36.7 -2.75
      vertex -8.6 2.3 -2.81669e-16
      vertex -8.6 2.3 -2.75
    endloop
  endfacet
  facet normal -1 -0 0
    outer loop
      vertex -8.6 2.3 -2.81669e-16
      vertex -8.6 -36.7 -2.75
      vertex -8.6 -36.7 4.49445e-15
    endloop
  endfacet
  facet normal 0 0 -1
    outer loop
      vertex -0.285714 -8.20513 -2.75
      vertex -0.290155 -8.20256 -2.75
      vertex -0.285714 -8.2 -2.75
    endloop
  endfacet
  facet normal 0 0 -1
    outer loop
      vertex 0.57587 -8.70256 -2.75
      vertex 0.571429 -8.7 -2.75
      vertex 0.57587 -8.69744 -2.75
    endloop
  endfacet
  facet normal 0 0 -1
    outer loop
      vertex 8.6 -36.7 -2.75
      vertex 0.57587 -8.70256 -2.75
      vertex 8.6 2.3 -2.75
    endloop
  endfacet
  facet normal 0 0 -1
    outer loop
      vertex 8.6 -36.7 -2.75
      vertex 0.290155 -9.19744 -2.75
      vertex 0.57587 -8.70256 -2.75
    endloop
  endfacet
  facet normal 0 0 -1
    outer loop
      vertex 8.6 -36.7 -2.75
      vertex 0.285714 -9.2 -2.75
      vertex 0.290155 -9.19744 -2.75
    endloop
  endfacet
  facet normal 0 0 -1
    outer loop
      vertex 8.6 -36.7 -2.75
      vertex -0.285714 -9.2 -2.75
      vertex 0.285714 -9.2 -2.75
    endloop
  endfacet
  facet normal 0 0 -1
    outer loop
      vertex -0.285714 -9.2 -2.75
      vertex -0.290155 -9.19744 -2.75
      vertex -0.285714 -9.19487 -2.75
    endloop
  endfacet
  facet normal 0 0 -1
    outer loop
      vertex -8.6 -36.7 -2.75
      vertex -0.285714 -9.2 -2.75
      vertex 8.6 -36.7 -2.75
    endloop
  endfacet
  facet normal -0 0 -1
    outer loop
      vertex -0.285714 -9.2 -2.75
      vertex -8.6 -36.7 -2.75
      vertex -0.290155 -9.19744 -2.75
    endloop
  endfacet
  facet normal 0 0 -1
    outer loop
      vertex -8.6 2.3 -2.75
      vertex -0.57587 -8.70256 -2.75
      vertex -8.6 -36.7 -2.75
    endloop
  endfacet
  facet normal -0 0 -1
    outer loop
      vertex -0.290155 -9.19744 -2.75
      vertex -8.6 -36.7 -2.75
      vertex -0.57587 -8.70256 -2.75
    endloop
  endfacet
  facet normal 0 0 -1
    outer loop
      vertex 0.57587 -8.69744 -2.75
      vertex 8.6 2.3 -2.75
      vertex 0.57587 -8.70256 -2.75
    endloop
  endfacet
  facet normal 0 0 -1
    outer loop
      vertex 0.290155 -8.20256 -2.75
      vertex 8.6 2.3 -2.75
      vertex 0.57587 -8.69744 -2.75
    endloop
  endfacet
  facet normal 0 0 -1
    outer loop
      vertex 0.285714 -8.2 -2.75
      vertex 0.290155 -8.20256 -2.75
      vertex 0.285714 -8.20513 -2.75
    endloop
  endfacet
  facet normal 0 0 -1
    outer loop
      vertex 0.290155 -8.20256 -2.75
      vertex 0.285714 -8.2 -2.75
      vertex 8.6 2.3 -2.75
    endloop
  endfacet
  facet normal 0 0 -1
    outer loop
      vertex -0.285714 -8.2 -2.75
      vertex 8.6 2.3 -2.75
      vertex 0.285714 -8.2 -2.75
    endloop
  endfacet
  facet normal 0 0 -1
    outer loop
      vertex -8.6 2.3 -2.75
      vertex -0.285714 -8.2 -2.75
      vertex -0.290155 -8.20256 -2.75
    endloop
  endfacet
  facet normal 0 0 -1
    outer loop
      vertex -0.285714 -8.2 -2.75
      vertex -8.6 2.3 -2.75
      vertex 8.6 2.3 -2.75
    endloop
  endfacet
  facet normal 0 0 -1
    outer loop
      vertex -0.57587 -8.69744 -2.75
      vertex -8.6 2.3 -2.75
      vertex -0.290155 -8.20256 -2.75
    endloop
  endfacet
  facet normal 0 0 -1
    outer loop
      vertex -0.57587 -8.70256 -2.75
      vertex -8.6 2.3 -2.75
      vertex -0.57587 -8.69744 -2.75
    endloop
  endfacet
  facet normal -0 0 -1
    outer loop
      vertex 0.290155 -9.19744 -2.75
      vertex 0.285714 -9.2 -2.75
      vertex 0.285714 -9.19487 -2.75
    endloop
  endfacet
  facet normal -0 0 -1
    outer loop
      vertex -0.571429 -8.7 -2.75
      vertex -0.57587 -8.70256 -2.75
      vertex -0.57587 -8.69744 -2.75
    endloop
  endfacet
  facet normal 1 0 0
    outer loop
      vertex 8.6 -36.7 4.49445e-15
      vertex 8.6 2.3 -2.75
      vertex 8.6 2.3 -2.81669e-16
    endloop
  endfacet
  facet normal 1 0 0
    outer loop
      vertex 8.6 2.3 -2.75
      vertex 8.6 -36.7 4.49445e-15
      vertex 8.6 -36.7 -2.75
    endloop
  endfacet
  facet normal 0 1.22465e-16 1
    outer loop
      vertex -6 2.3 -2.81669e-16
      vertex -7.04999 0 0
      vertex -6 0 0
    endloop
  endfacet
  facet normal 0 1.22465e-16 1
    outer loop
      vertex -7.04999 0 0
      vertex -7.59999 -5 6.12323e-16
      vertex -7.04999 -5 6.12323e-16
    endloop
  endfacet
  facet normal 4.48774e-23 1.22465e-16 1
    outer loop
      vertex -8.6 2.3 -2.81669e-16
      vertex -7.59999 -8.59999 1.0532e-15
      vertex -7.59999 -5 6.12323e-16
    endloop
  endfacet
  facet normal -2.72304e-22 1.22465e-16 1
    outer loop
      vertex -7.59999 -8.59999 1.0532e-15
      vertex -8.6 2.3 -2.81669e-16
      vertex -7.59999 -9.59999 1.17566e-15
    endloop
  endfacet
  facet normal -3.00061e-23 1.22465e-16 1
    outer loop
      vertex -7.59999 -9.59999 1.17566e-15
      vertex -8.6 2.3 -2.81669e-16
      vertex -8.6 -36.7 4.49445e-15
    endloop
  endfacet
  facet normal -7.19074e-24 1.22465e-16 1
    outer loop
      vertex -7.04999 0 0
      vertex -8.6 2.3 -2.81669e-16
      vertex -7.59999 -5 6.12323e-16
    endloop
  endfacet
  facet normal -0 1.22465e-16 1
    outer loop
      vertex -8.6 2.3 -2.81669e-16
      vertex -7.04999 0 0
      vertex -6 2.3 -2.81669e-16
    endloop
  endfacet
  facet normal -0 1.22465e-16 1
    outer loop
      vertex -7.59999 -8.59999 1.0532e-15
      vertex -6.29999 -9.59999 1.17566e-15
      vertex -6.29999 -8.59999 1.0532e-15
    endloop
  endfacet
  facet normal 0 1.22465e-16 1
    outer loop
      vertex -6.29999 -9.59999 1.17566e-15
      vertex -7.59999 -8.59999 1.0532e-15
      vertex -7.59999 -9.59999 1.17566e-15
    endloop
  endfacet
  facet normal -0 1.22465e-16 1
    outer loop
      vertex 6.29999 -8.59999 1.0532e-15
      vertex 7.59999 -9.59999 1.17566e-15
      vertex 7.59999 -8.59999 1.0532e-15
    endloop
  endfacet
  facet normal 0 1.22465e-16 1
    outer loop
      vertex 7.59999 -9.59999 1.17566e-15
      vertex 6.29999 -8.59999 1.0532e-15
      vertex 6.29999 -9.59999 1.17566e-15
    endloop
  endfacet
  facet normal -4.48774e-23 1.22465e-16 1
    outer loop
      vertex 7.59999 -8.59999 1.0532e-15
      vertex 8.6 2.3 -2.81669e-16
      vertex 7.59999 -5 6.12323e-16
    endloop
  endfacet
  facet normal 7.19074e-24 1.22465e-16 1
    outer loop
      vertex 8.6 2.3 -2.81669e-16
      vertex 7.04999 0 0
      vertex 7.59999 -5 6.12323e-16
    endloop
  endfacet
  facet normal -0 1.22465e-16 1
    outer loop
      vertex 6 2.3 -2.81669e-16
      vertex 7.04999 0 0
      vertex 8.6 2.3 -2.81669e-16
    endloop
  endfacet
  facet normal 0 1.22465e-16 1
    outer loop
      vertex 7.04999 0 0
      vertex 6 2.3 -2.81669e-16
      vertex 6 0 0
    endloop
  endfacet
  facet normal 2.72304e-22 1.22465e-16 1
    outer loop
      vertex 7.59999 -9.59999 1.17566e-15
      vertex 8.6 2.3 -2.81669e-16
      vertex 7.59999 -8.59999 1.0532e-15
    endloop
  endfacet
  facet normal 3.00061e-23 1.22465e-16 1
    outer loop
      vertex 8.6 2.3 -2.81669e-16
      vertex 7.59999 -9.59999 1.17566e-15
      vertex 8.6 -36.7 4.49445e-15
    endloop
  endfacet
  facet normal -1.55269e-23 1.22465e-16 1
    outer loop
      vertex 7.59999 -34.2 4.18829e-15
      vertex 8.6 -36.7 4.49445e-15
      vertex 7.59999 -9.59999 1.17566e-15
    endloop
  endfacet
  facet normal -0 1.22465e-16 1
    outer loop
      vertex -7.59999 -34.2 4.18829e-15
      vertex 8.6 -36.7 4.49445e-15
      vertex 7.59999 -34.2 4.18829e-15
    endloop
  endfacet
  facet normal 0 1.22465e-16 1
    outer loop
      vertex -7.59999 -34.2 4.18829e-15
      vertex -8.6 -36.7 4.49445e-15
      vertex 8.6 -36.7 4.49445e-15
    endloop
  endfacet
  facet normal 1.55269e-23 1.22465e-16 1
    outer loop
      vertex -7.59999 -9.59999 1.17566e-15
      vertex -8.6 -36.7 4.49445e-15
      vertex -7.59999 -34.2 4.18829e-15
    endloop
  endfacet
  facet normal 0 1.22465e-16 1
    outer loop
      vertex 7.59999 -5 6.12323e-16
      vertex 7.04999 0 0
      vertex 7.04999 -5 6.12323e-16
    endloop
  endfacet
  facet normal 0 1 0
    outer loop
      vertex 8.6 2.3 -2.81669e-16
      vertex 6 2.3 -2.2
      vertex 6 2.3 -2.81669e-16
    endloop
  endfacet
  facet normal 0 1 0
    outer loop
      vertex 6 2.3 -2.2
      vertex 8.6 2.3 -2.75
      vertex -6 2.3 -2.2
    endloop
  endfacet
  facet normal 0 1 -0
    outer loop
      vertex 8.6 2.3 -2.75
      vertex 6 2.3 -2.2
      vertex 8.6 2.3 -2.81669e-16
    endloop
  endfacet
  facet normal 0 1 -0
    outer loop
      vertex -6 2.3 -2.2
      vertex -8.6 2.3 -2.81669e-16
      vertex -6 2.3 -2.81669e-16
    endloop
  endfacet
  facet normal 0 1 0
    outer loop
      vertex -6 2.3 -2.2
      vertex -8.6 2.3 -2.75
      vertex -8.6 2.3 -2.81669e-16
    endloop
  endfacet
  facet normal 0 1 0
    outer loop
      vertex -8.6 2.3 -2.75
      vertex -6 2.3 -2.2
      vertex 8.6 2.3 -2.75
    endloop
  endfacet
  facet normal 0 -1 0
    outer loop
      vertex -8.6 -36.7 -2.75
      vertex 8.6 -36.7 4.49445e-15
      vertex -8.6 -36.7 4.49445e-15
    endloop
  endfacet
  facet normal 0 -1 -0
    outer loop
      vertex 8.6 -36.7 4.49445e-15
      vertex -8.6 -36.7 -2.75
      vertex 8.6 -36.7 -2.75
    endloop
  endfacet
endsolid OpenSCAD_Model
