solid OpenSCAD_Model
  facet normal -0 0 1
    outer loop
      vertex -7.5 8.59999 0
      vertex -7.04999 5 0
      vertex -6.29999 8.59999 0
    endloop
  endfacet
  facet normal 0 0 1
    outer loop
      vertex -7.04999 5 0
      vertex -7.5 8.59999 0
      vertex -7.5 5 0
    endloop
  endfacet
  facet normal 0 0 1
    outer loop
      vertex -7.5 9.89999 0
      vertex -6.2718 32.0615 0
      vertex -6.35086 32.0818 0
    endloop
  endfacet
  facet normal 0 0 1
    outer loop
      vertex -7.5 9.89999 0
      vertex -6.35086 32.0818 0
      vertex -6.42676 32.1119 0
    endloop
  endfacet
  facet normal 0 0 1
    outer loop
      vertex -7.5 9.89999 0
      vertex -6.42676 32.1119 0
      vertex -6.49829 32.1512 0
    endloop
  endfacet
  facet normal 0 0 1
    outer loop
      vertex -7.5 9.89999 0
      vertex -6.49829 32.1512 0
      vertex -6.56433 32.1992 0
    endloop
  endfacet
  facet normal 0 0 1
    outer loop
      vertex -7.5 9.89999 0
      vertex -6.56433 32.1992 0
      vertex -6.62383 32.255 0
    endloop
  endfacet
  facet normal 0 0 1
    outer loop
      vertex -7.5 9.89999 0
      vertex -6.62383 32.255 0
      vertex -6.67586 32.3179 0
    endloop
  endfacet
  facet normal 0 0 1
    outer loop
      vertex -7.5 9.89999 0
      vertex -6.67586 32.3179 0
      vertex -6.7196 32.3869 0
    endloop
  endfacet
  facet normal 0 0 1
    outer loop
      vertex -7.5 9.89999 0
      vertex -6.7196 32.3869 0
      vertex -6.75435 32.4607 0
    endloop
  endfacet
  facet normal 0 0 1
    outer loop
      vertex -7.5 34 0
      vertex -6.75435 32.4607 0
      vertex -6.77958 32.5384 0
    endloop
  endfacet
  facet normal 0 0 1
    outer loop
      vertex -7.5 34 0
      vertex -6.77958 32.5384 0
      vertex -6.79487 32.6185 0
    endloop
  endfacet
  facet normal 0 0 1
    outer loop
      vertex -7.5 34 0
      vertex -6.79487 32.6185 0
      vertex -6.8 32.7 0
    endloop
  endfacet
  facet normal 0 0 1
    outer loop
      vertex -6.75435 32.4607 0
      vertex -7.5 34 0
      vertex -7.5 9.89999 0
    endloop
  endfacet
  facet normal 0 0 1
    outer loop
      vertex -6.2718 32.0615 0
      vertex -7.5 9.89999 0
      vertex -6.29999 9.89999 0
    endloop
  endfacet
  facet normal 0 0 1
    outer loop
      vertex 5.65512 9.33147 0
      vertex -5.65512 9.33147 0
      vertex -5.65 9.25 0
    endloop
  endfacet
  facet normal 0 0 1
    outer loop
      vertex 5.95171 9.79881 0
      vertex -5.67042 9.41165 0
      vertex -5.65512 9.33147 0
    endloop
  endfacet
  facet normal 0 0 1
    outer loop
      vertex 7.5 32.4 0
      vertex -5.80171 32.1512 0
      vertex 6.02324 9.83814 0
    endloop
  endfacet
  facet normal 0 0 1
    outer loop
      vertex 5.95171 9.79881 0
      vertex -5.69564 9.48928 0
      vertex -5.67042 9.41165 0
    endloop
  endfacet
  facet normal 0 0 1
    outer loop
      vertex 5.95171 9.79881 0
      vertex -5.7304 9.56314 0
      vertex -5.69564 9.48928 0
    endloop
  endfacet
  facet normal -0 0 1
    outer loop
      vertex -5.87324 32.1119 0
      vertex 6.02324 9.83814 0
      vertex -5.80171 32.1512 0
    endloop
  endfacet
  facet normal 0 0 1
    outer loop
      vertex 5.95171 9.79881 0
      vertex -5.77414 9.63206 0
      vertex -5.7304 9.56314 0
    endloop
  endfacet
  facet normal 0 0 1
    outer loop
      vertex 6.02324 9.83814 0
      vertex -5.87324 32.1119 0
      vertex 5.95171 9.79881 0
    endloop
  endfacet
  facet normal 0 0 1
    outer loop
      vertex 5.95171 9.79881 0
      vertex -5.82617 9.69495 0
      vertex -5.77414 9.63206 0
    endloop
  endfacet
  facet normal 0 0 1
    outer loop
      vertex 5.95171 9.79881 0
      vertex -5.87324 32.1119 0
      vertex -5.95171 9.79881 0
    endloop
  endfacet
  facet normal 0 0 1
    outer loop
      vertex 5.95171 9.79881 0
      vertex -5.88567 9.75083 0
      vertex -5.82617 9.69495 0
    endloop
  endfacet
  facet normal 0 0 1
    outer loop
      vertex -6.02324 9.83814 0
      vertex -5.87324 32.1119 0
      vertex -5.94914 32.0818 0
    endloop
  endfacet
  facet normal 0 0 1
    outer loop
      vertex 5.95171 9.79881 0
      vertex -5.95171 9.79881 0
      vertex -5.88567 9.75083 0
    endloop
  endfacet
  facet normal 0 0 1
    outer loop
      vertex -5.87324 32.1119 0
      vertex -6.02324 9.83814 0
      vertex -5.95171 9.79881 0
    endloop
  endfacet
  facet normal 0 0 1
    outer loop
      vertex -6.09914 9.86819 0
      vertex -5.94914 32.0818 0
      vertex -6.0282 32.0615 0
    endloop
  endfacet
  facet normal 0 0 1
    outer loop
      vertex -5.94914 32.0818 0
      vertex -6.09914 9.86819 0
      vertex -6.02324 9.83814 0
    endloop
  endfacet
  facet normal 0 0 1
    outer loop
      vertex -6.1782 9.88849 0
      vertex -6.0282 32.0615 0
      vertex -6.10919 32.0513 0
    endloop
  endfacet
  facet normal 0 0 1
    outer loop
      vertex -6.0282 32.0615 0
      vertex -6.1782 9.88849 0
      vertex -6.09914 9.86819 0
    endloop
  endfacet
  facet normal 0 0 1
    outer loop
      vertex -6.29999 9.89999 0
      vertex -6.10919 32.0513 0
      vertex -6.19081 32.0513 0
    endloop
  endfacet
  facet normal 0 0 1
    outer loop
      vertex -6.10919 32.0513 0
      vertex -6.25919 9.89872 0
      vertex -6.1782 9.88849 0
    endloop
  endfacet
  facet normal 0 0 1
    outer loop
      vertex -6.29999 9.89999 0
      vertex -6.19081 32.0513 0
      vertex -6.2718 32.0615 0
    endloop
  endfacet
  facet normal 0 0 1
    outer loop
      vertex -6.10919 32.0513 0
      vertex -6.29999 9.89999 0
      vertex -6.25919 9.89872 0
    endloop
  endfacet
  facet normal 0 0 1
    outer loop
      vertex -6.25919 9.89872 0
      vertex -6.29999 9.89999 0
      vertex -6.29999 9.89872 0
    endloop
  endfacet
  facet normal 0 0 1
    outer loop
      vertex 7.5 32.4 0
      vertex 6.29999 9.89999 0
      vertex 7.5 9.89999 0
    endloop
  endfacet
  facet normal 0 0 1
    outer loop
      vertex 6.29999 9.89999 0
      vertex 6.25919 9.89872 0
      vertex 6.29999 9.89872 0
    endloop
  endfacet
  facet normal 0 0 1
    outer loop
      vertex 7.5 32.4 0
      vertex 6.25919 9.89872 0
      vertex 6.29999 9.89999 0
    endloop
  endfacet
  facet normal 0 0 1
    outer loop
      vertex 7.5 32.4 0
      vertex 6.1782 9.88849 0
      vertex 6.25919 9.89872 0
    endloop
  endfacet
  facet normal 0 0 1
    outer loop
      vertex 7.5 32.4 0
      vertex 6.09914 9.86819 0
      vertex 6.1782 9.88849 0
    endloop
  endfacet
  facet normal 0 0 1
    outer loop
      vertex 7.5 32.4 0
      vertex 6.02324 9.83814 0
      vertex 6.09914 9.86819 0
    endloop
  endfacet
  facet normal 0 0 1
    outer loop
      vertex -5.67617 32.255 0
      vertex 7.5 32.4 0
      vertex -5.62414 32.3179 0
    endloop
  endfacet
  facet normal 0 0 1
    outer loop
      vertex -5.62414 32.3179 0
      vertex 7.5 32.4 0
      vertex 5.89999 34 0
    endloop
  endfacet
  facet normal 0 0 1
    outer loop
      vertex -5.73567 32.1992 0
      vertex 7.5 32.4 0
      vertex -5.67617 32.255 0
    endloop
  endfacet
  facet normal 0 0 1
    outer loop
      vertex -5.80171 32.1512 0
      vertex 7.5 32.4 0
      vertex -5.73567 32.1992 0
    endloop
  endfacet
  facet normal 0 0 1
    outer loop
      vertex -5.65512 9.33147 0
      vertex 5.88567 9.75083 0
      vertex 5.95171 9.79881 0
    endloop
  endfacet
  facet normal 0 0 1
    outer loop
      vertex -5.65512 9.33147 0
      vertex 5.82617 9.69495 0
      vertex 5.88567 9.75083 0
    endloop
  endfacet
  facet normal 0 0 1
    outer loop
      vertex -5.65512 9.33147 0
      vertex 5.77414 9.63206 0
      vertex 5.82617 9.69495 0
    endloop
  endfacet
  facet normal 0 0 1
    outer loop
      vertex -5.65512 9.33147 0
      vertex 5.7304 9.56314 0
      vertex 5.77414 9.63206 0
    endloop
  endfacet
  facet normal 0 0 1
    outer loop
      vertex -5.65512 9.33147 0
      vertex 5.69564 9.48928 0
      vertex 5.7304 9.56314 0
    endloop
  endfacet
  facet normal 0 0 1
    outer loop
      vertex -5.65512 9.33147 0
      vertex 5.67042 9.41165 0
      vertex 5.69564 9.48928 0
    endloop
  endfacet
  facet normal 0 0 1
    outer loop
      vertex -5.50513 32.6185 0
      vertex 5.89999 34 0
      vertex -5.5 32.7 0
    endloop
  endfacet
  facet normal 0 0 1
    outer loop
      vertex 5.89999 34 0
      vertex -5.50513 32.7815 0
      vertex -5.5 32.7 0
    endloop
  endfacet
  facet normal 0 0 1
    outer loop
      vertex 5.89999 34 0
      vertex -5.52042 32.8616 0
      vertex -5.50513 32.7815 0
    endloop
  endfacet
  facet normal 0 0 1
    outer loop
      vertex 5.89999 34 0
      vertex -5.54564 32.9393 0
      vertex -5.52042 32.8616 0
    endloop
  endfacet
  facet normal 0 0 1
    outer loop
      vertex 5.89999 34 0
      vertex -5.5804 33.0131 0
      vertex -5.54564 32.9393 0
    endloop
  endfacet
  facet normal 0 0 1
    outer loop
      vertex 5.89999 34 0
      vertex -5.62414 33.0821 0
      vertex -5.5804 33.0131 0
    endloop
  endfacet
  facet normal 0 0 1
    outer loop
      vertex 5.89999 34 0
      vertex -5.67617 33.145 0
      vertex -5.62414 33.0821 0
    endloop
  endfacet
  facet normal 0 0 1
    outer loop
      vertex 5.89999 34 0
      vertex -5.73567 33.2008 0
      vertex -5.67617 33.145 0
    endloop
  endfacet
  facet normal 0 0 1
    outer loop
      vertex 5.89999 34 0
      vertex -5.80171 33.2488 0
      vertex -5.73567 33.2008 0
    endloop
  endfacet
  facet normal 0 0 1
    outer loop
      vertex 5.89999 34 0
      vertex -5.87324 33.2881 0
      vertex -5.80171 33.2488 0
    endloop
  endfacet
  facet normal 0 0 1
    outer loop
      vertex 5.89999 34 0
      vertex -5.94914 33.3182 0
      vertex -5.87324 33.2881 0
    endloop
  endfacet
  facet normal -0 0 1
    outer loop
      vertex -7.5 34 0
      vertex -5.94914 33.3182 0
      vertex 5.89999 34 0
    endloop
  endfacet
  facet normal 0 0 1
    outer loop
      vertex -5.94914 33.3182 0
      vertex -7.5 34 0
      vertex -6.0282 33.3385 0
    endloop
  endfacet
  facet normal 0 0 1
    outer loop
      vertex -6.0282 33.3385 0
      vertex -7.5 34 0
      vertex -6.10919 33.3487 0
    endloop
  endfacet
  facet normal 0 0 1
    outer loop
      vertex -6.79487 32.7815 0
      vertex -7.5 34 0
      vertex -6.8 32.7 0
    endloop
  endfacet
  facet normal 0 0 1
    outer loop
      vertex -6.77958 32.8616 0
      vertex -7.5 34 0
      vertex -6.79487 32.7815 0
    endloop
  endfacet
  facet normal 0 0 1
    outer loop
      vertex -6.75435 32.9393 0
      vertex -7.5 34 0
      vertex -6.77958 32.8616 0
    endloop
  endfacet
  facet normal 0 0 1
    outer loop
      vertex -6.7196 33.0131 0
      vertex -7.5 34 0
      vertex -6.75435 32.9393 0
    endloop
  endfacet
  facet normal 0 0 1
    outer loop
      vertex -6.67586 33.0821 0
      vertex -7.5 34 0
      vertex -6.7196 33.0131 0
    endloop
  endfacet
  facet normal 0 0 1
    outer loop
      vertex -6.62383 33.145 0
      vertex -7.5 34 0
      vertex -6.67586 33.0821 0
    endloop
  endfacet
  facet normal 0 0 1
    outer loop
      vertex -6.56433 33.2008 0
      vertex -7.5 34 0
      vertex -6.62383 33.145 0
    endloop
  endfacet
  facet normal 0 0 1
    outer loop
      vertex -6.49829 33.2488 0
      vertex -7.5 34 0
      vertex -6.56433 33.2008 0
    endloop
  endfacet
  facet normal 0 0 1
    outer loop
      vertex -6.42676 33.2881 0
      vertex -7.5 34 0
      vertex -6.49829 33.2488 0
    endloop
  endfacet
  facet normal 0 0 1
    outer loop
      vertex -6.35086 33.3182 0
      vertex -7.5 34 0
      vertex -6.42676 33.2881 0
    endloop
  endfacet
  facet normal 0 0 1
    outer loop
      vertex -6.2718 33.3385 0
      vertex -7.5 34 0
      vertex -6.35086 33.3182 0
    endloop
  endfacet
  facet normal 0 0 1
    outer loop
      vertex -6.19081 33.3487 0
      vertex -7.5 34 0
      vertex -6.2718 33.3385 0
    endloop
  endfacet
  facet normal 0 0 1
    outer loop
      vertex -6.10919 33.3487 0
      vertex -7.5 34 0
      vertex -6.19081 33.3487 0
    endloop
  endfacet
  facet normal 0 0 1
    outer loop
      vertex 6.29999 8.60128 0
      vertex 6.25919 8.60128 0
      vertex 6.29999 8.59999 0
    endloop
  endfacet
  facet normal 0 0 1
    outer loop
      vertex 7.5 8.59999 0
      vertex 7.04999 5 0
      vertex 7.5 5 0
    endloop
  endfacet
  facet normal -0 0 1
    outer loop
      vertex 6.29999 8.59999 0
      vertex 7.04999 5 0
      vertex 7.5 8.59999 0
    endloop
  endfacet
  facet normal 0 0 1
    outer loop
      vertex 6.25919 8.60128 0
      vertex 7.04999 5 0
      vertex 6.29999 8.59999 0
    endloop
  endfacet
  facet normal 0 0 1
    outer loop
      vertex 6.1782 8.61151 0
      vertex 7.04999 5 0
      vertex 6.25919 8.60128 0
    endloop
  endfacet
  facet normal 0 0 1
    outer loop
      vertex 6.09914 8.63181 0
      vertex 7.04999 5 0
      vertex 6.1782 8.61151 0
    endloop
  endfacet
  facet normal 0 0 1
    outer loop
      vertex 6.02324 8.66186 0
      vertex 7.04999 5 0
      vertex 6.09914 8.63181 0
    endloop
  endfacet
  facet normal 0 0 1
    outer loop
      vertex 5.95171 8.70119 0
      vertex 7.04999 5 0
      vertex 6.02324 8.66186 0
    endloop
  endfacet
  facet normal 0 0 1
    outer loop
      vertex 7.04999 5 0
      vertex 6 0 0
      vertex 7.04999 0 0
    endloop
  endfacet
  facet normal 0 0 1
    outer loop
      vertex 5.88567 8.74917 0
      vertex 7.04999 5 0
      vertex 5.95171 8.70119 0
    endloop
  endfacet
  facet normal 0 0 1
    outer loop
      vertex 5.82617 8.80504 0
      vertex 7.04999 5 0
      vertex 5.88567 8.74917 0
    endloop
  endfacet
  facet normal 0 0 1
    outer loop
      vertex 5.77414 8.86794 0
      vertex 7.04999 5 0
      vertex 5.82617 8.80504 0
    endloop
  endfacet
  facet normal 0 0 1
    outer loop
      vertex -7.04999 5 0
      vertex 7.04999 5 0
      vertex 5.77414 8.86794 0
    endloop
  endfacet
  facet normal 0 0 1
    outer loop
      vertex -5.77414 8.86794 0
      vertex 5.77414 8.86794 0
      vertex 5.7304 8.93686 0
    endloop
  endfacet
  facet normal 0 0 1
    outer loop
      vertex -5.7304 8.93686 0
      vertex 5.7304 8.93686 0
      vertex 5.69564 9.01072 0
    endloop
  endfacet
  facet normal 0 0 1
    outer loop
      vertex -5.69564 9.01072 0
      vertex 5.69564 9.01072 0
      vertex 5.67042 9.08835 0
    endloop
  endfacet
  facet normal 0 0 1
    outer loop
      vertex -5.67042 9.08835 0
      vertex 5.67042 9.08835 0
      vertex 5.65512 9.16853 0
    endloop
  endfacet
  facet normal 0 0 1
    outer loop
      vertex -5.65512 9.16853 0
      vertex 5.65512 9.16853 0
      vertex 5.65 9.25 0
    endloop
  endfacet
  facet normal 0 0 1
    outer loop
      vertex -5.52042 32.5384 0
      vertex 5.89999 34 0
      vertex -5.50513 32.6185 0
    endloop
  endfacet
  facet normal 0 0 1
    outer loop
      vertex -5.54564 32.4607 0
      vertex 5.89999 34 0
      vertex -5.52042 32.5384 0
    endloop
  endfacet
  facet normal 0 0 1
    outer loop
      vertex -5.5804 32.3869 0
      vertex 5.89999 34 0
      vertex -5.54564 32.4607 0
    endloop
  endfacet
  facet normal 0 0 1
    outer loop
      vertex -5.62414 32.3179 0
      vertex 5.89999 34 0
      vertex -5.5804 32.3869 0
    endloop
  endfacet
  facet normal 0 0 1
    outer loop
      vertex -5.65512 9.33147 0
      vertex 5.65512 9.33147 0
      vertex 5.67042 9.41165 0
    endloop
  endfacet
  facet normal 0 0 1
    outer loop
      vertex 5.65512 9.33147 0
      vertex -5.65 9.25 0
      vertex 5.65 9.25 0
    endloop
  endfacet
  facet normal 0 0 1
    outer loop
      vertex -5.65512 9.16853 0
      vertex 5.65 9.25 0
      vertex -5.65 9.25 0
    endloop
  endfacet
  facet normal 0 0 1
    outer loop
      vertex 5.65512 9.16853 0
      vertex -5.65512 9.16853 0
      vertex -5.67042 9.08835 0
    endloop
  endfacet
  facet normal 0 0 1
    outer loop
      vertex 5.67042 9.08835 0
      vertex -5.67042 9.08835 0
      vertex -5.69564 9.01072 0
    endloop
  endfacet
  facet normal 0 0 1
    outer loop
      vertex 5.69564 9.01072 0
      vertex -5.69564 9.01072 0
      vertex -5.7304 8.93686 0
    endloop
  endfacet
  facet normal 0 0 1
    outer loop
      vertex 5.7304 8.93686 0
      vertex -5.7304 8.93686 0
      vertex -5.77414 8.86794 0
    endloop
  endfacet
  facet normal 0 0 1
    outer loop
      vertex 5.77414 8.86794 0
      vertex -5.77414 8.86794 0
      vertex -7.04999 5 0
    endloop
  endfacet
  facet normal 0 0 1
    outer loop
      vertex -7.04999 5 0
      vertex -5.77414 8.86794 0
      vertex -5.82617 8.80504 0
    endloop
  endfacet
  facet normal 0 0 1
    outer loop
      vertex -7.04999 5 0
      vertex -5.82617 8.80504 0
      vertex -5.88567 8.74917 0
    endloop
  endfacet
  facet normal 0 0 1
    outer loop
      vertex -7.04999 5 0
      vertex -5.88567 8.74917 0
      vertex -5.95171 8.70119 0
    endloop
  endfacet
  facet normal 0 0 1
    outer loop
      vertex 7.04999 5 0
      vertex -7.04999 5 0
      vertex 6 0 0
    endloop
  endfacet
  facet normal 0 0 1
    outer loop
      vertex -7.04999 5 0
      vertex -5.95171 8.70119 0
      vertex -6.02324 8.66186 0
    endloop
  endfacet
  facet normal 0 0 1
    outer loop
      vertex -7.04999 5 0
      vertex -6.02324 8.66186 0
      vertex -6.09914 8.63181 0
    endloop
  endfacet
  facet normal 0 0 1
    outer loop
      vertex -7.04999 5 0
      vertex -6.09914 8.63181 0
      vertex -6.1782 8.61151 0
    endloop
  endfacet
  facet normal 0 0 1
    outer loop
      vertex -7.04999 5 0
      vertex -6.1782 8.61151 0
      vertex -6.25919 8.60128 0
    endloop
  endfacet
  facet normal 0 0 1
    outer loop
      vertex -6.29999 8.59999 0
      vertex -6.25919 8.60128 0
      vertex -6.29999 8.60128 0
    endloop
  endfacet
  facet normal 0 0 1
    outer loop
      vertex -7.04999 5 0
      vertex -6.25919 8.60128 0
      vertex -6.29999 8.59999 0
    endloop
  endfacet
  facet normal 0 0 1
    outer loop
      vertex 6 0 0
      vertex -7.04999 5 0
      vertex -6 0 0
    endloop
  endfacet
  facet normal 0 0 1
    outer loop
      vertex -6 0 0
      vertex -7.04999 5 0
      vertex -7.04999 0 0
    endloop
  endfacet
  facet normal 0 1 -0
    outer loop
      vertex -6.29999 9.89999 0
      vertex -7.5 9.89999 1.8
      vertex -6.29999 9.89999 1.8
    endloop
  endfacet
  facet normal 0 1 0
    outer loop
      vertex -7.5 9.89999 1.8
      vertex -6.29999 9.89999 0
      vertex -7.5 9.89999 0
    endloop
  endfacet
  facet normal 1 -0 0
    outer loop
      vertex -6.29999 9.89872 1.8
      vertex -6.29999 9.89999 0
      vertex -6.29999 9.89999 1.8
    endloop
  endfacet
  facet normal 1 0 0
    outer loop
      vertex -6.29999 9.89999 0
      vertex -6.29999 9.89872 1.8
      vertex -6.29999 9.89872 0
    endloop
  endfacet
  facet normal 1 -0 0
    outer loop
      vertex -6.29999 8.59999 1.8
      vertex -6.29999 8.60128 0
      vertex -6.29999 8.60128 1.8
    endloop
  endfacet
  facet normal 1 0 0
    outer loop
      vertex -6.29999 8.60128 0
      vertex -6.29999 8.59999 1.8
      vertex -6.29999 8.59999 0
    endloop
  endfacet
  facet normal 0 -1 0
    outer loop
      vertex -7.5 8.59999 0
      vertex -6.29999 8.59999 1.8
      vertex -7.5 8.59999 1.8
    endloop
  endfacet
  facet normal 0 -1 -0
    outer loop
      vertex -6.29999 8.59999 1.8
      vertex -7.5 8.59999 0
      vertex -6.29999 8.59999 0
    endloop
  endfacet
  facet normal 1 -0 0
    outer loop
      vertex -7.5 5 1.8
      vertex -7.5 8.59999 0
      vertex -7.5 8.59999 1.8
    endloop
  endfacet
  facet normal 1 0 0
    outer loop
      vertex -7.5 8.59999 0
      vertex -7.5 5 1.8
      vertex -7.5 5 0
    endloop
  endfacet
  facet normal 0 1 -0
    outer loop
      vertex -7.04999 5 0
      vertex -7.5 5 1.8
      vertex -7.04999 5 1.8
    endloop
  endfacet
  facet normal 0 1 0
    outer loop
      vertex -7.5 5 1.8
      vertex -7.04999 5 0
      vertex -7.5 5 0
    endloop
  endfacet
  facet normal 1 -0 0
    outer loop
      vertex -7.04999 0 1.8
      vertex -7.04999 5 0
      vertex -7.04999 5 1.8
    endloop
  endfacet
  facet normal 1 0 0
    outer loop
      vertex -7.04999 5 0
      vertex -7.04999 0 1.8
      vertex -7.04999 0 0
    endloop
  endfacet
  facet normal 0 -1 0
    outer loop
      vertex -6 0 -0.349999
      vertex 6 0 0
      vertex -6 0 0
    endloop
  endfacet
  facet normal 0 -1 -0
    outer loop
      vertex 6 0 0
      vertex -6 0 -0.349999
      vertex 6 0 -0.349999
    endloop
  endfacet
  facet normal 0 1 -0
    outer loop
      vertex -6 0 0
      vertex -7.04999 0 1.8
      vertex -6 0 1.8
    endloop
  endfacet
  facet normal 0 1 0
    outer loop
      vertex -7.04999 0 1.8
      vertex -6 0 0
      vertex -7.04999 0 0
    endloop
  endfacet
  facet normal 0 1 -0
    outer loop
      vertex 7.04999 0 0
      vertex 6 0 1.8
      vertex 7.04999 0 1.8
    endloop
  endfacet
  facet normal 0 1 0
    outer loop
      vertex 6 0 1.8
      vertex 7.04999 0 0
      vertex 6 0 0
    endloop
  endfacet
  facet normal -1 0 0
    outer loop
      vertex 7.04999 0 0
      vertex 7.04999 5 1.8
      vertex 7.04999 5 0
    endloop
  endfacet
  facet normal -1 -0 0
    outer loop
      vertex 7.04999 5 1.8
      vertex 7.04999 0 0
      vertex 7.04999 0 1.8
    endloop
  endfacet
  facet normal 0 1 -0
    outer loop
      vertex 7.5 5 0
      vertex 7.04999 5 1.8
      vertex 7.5 5 1.8
    endloop
  endfacet
  facet normal 0 1 0
    outer loop
      vertex 7.04999 5 1.8
      vertex 7.5 5 0
      vertex 7.04999 5 0
    endloop
  endfacet
  facet normal -1 0 0
    outer loop
      vertex 7.5 5 0
      vertex 7.5 8.59999 1.8
      vertex 7.5 8.59999 0
    endloop
  endfacet
  facet normal -1 -0 0
    outer loop
      vertex 7.5 8.59999 1.8
      vertex 7.5 5 0
      vertex 7.5 5 1.8
    endloop
  endfacet
  facet normal 0 -1 0
    outer loop
      vertex 6.29999 8.59999 0
      vertex 7.5 8.59999 1.8
      vertex 6.29999 8.59999 1.8
    endloop
  endfacet
  facet normal 0 -1 -0
    outer loop
      vertex 7.5 8.59999 1.8
      vertex 6.29999 8.59999 0
      vertex 7.5 8.59999 0
    endloop
  endfacet
  facet normal -1 0 0
    outer loop
      vertex 6.29999 8.59999 0
      vertex 6.29999 8.60128 1.8
      vertex 6.29999 8.60128 0
    endloop
  endfacet
  facet normal -1 -0 0
    outer loop
      vertex 6.29999 8.60128 1.8
      vertex 6.29999 8.59999 0
      vertex 6.29999 8.59999 1.8
    endloop
  endfacet
  facet normal -1 0 0
    outer loop
      vertex 6.29999 9.89872 0
      vertex 6.29999 9.89999 1.8
      vertex 6.29999 9.89999 0
    endloop
  endfacet
  facet normal -1 -0 0
    outer loop
      vertex 6.29999 9.89999 1.8
      vertex 6.29999 9.89872 0
      vertex 6.29999 9.89872 1.8
    endloop
  endfacet
  facet normal 0 1 -0
    outer loop
      vertex 7.5 9.89999 0
      vertex 6.29999 9.89999 1.8
      vertex 7.5 9.89999 1.8
    endloop
  endfacet
  facet normal 0 1 0
    outer loop
      vertex 6.29999 9.89999 1.8
      vertex 7.5 9.89999 0
      vertex 6.29999 9.89999 0
    endloop
  endfacet
  facet normal -1 0 0
    outer loop
      vertex 7.5 9.89999 0
      vertex 7.5 32.4 1.8
      vertex 7.5 32.4 0
    endloop
  endfacet
  facet normal -1 -0 0
    outer loop
      vertex 7.5 32.4 1.8
      vertex 7.5 9.89999 0
      vertex 7.5 9.89999 1.8
    endloop
  endfacet
  facet normal -0.707107 -0.707107 0
    outer loop
      vertex 7.5 32.4 0
      vertex 5.89999 34 1.8
      vertex 5.89999 34 0
    endloop
  endfacet
  facet normal -0.707107 -0.707107 0
    outer loop
      vertex 5.89999 34 1.8
      vertex 7.5 32.4 0
      vertex 7.5 32.4 1.8
    endloop
  endfacet
  facet normal 0 -1 0
    outer loop
      vertex -7.5 34 0
      vertex 5.89999 34 1.8
      vertex -7.5 34 1.8
    endloop
  endfacet
  facet normal 0 -1 -0
    outer loop
      vertex 5.89999 34 1.8
      vertex -7.5 34 0
      vertex 5.89999 34 0
    endloop
  endfacet
  facet normal 1 -0 0
    outer loop
      vertex -7.5 9.89999 1.8
      vertex -7.5 34 0
      vertex -7.5 34 1.8
    endloop
  endfacet
  facet normal 1 0 0
    outer loop
      vertex -7.5 34 0
      vertex -7.5 9.89999 1.8
      vertex -7.5 9.89999 0
    endloop
  endfacet
  facet normal 0.84434 0.535808 0
    outer loop
      vertex -5.5804 33.0131 1.8
      vertex -5.62414 33.0821 0
      vertex -5.62414 33.0821 1.8
    endloop
  endfacet
  facet normal 0.84434 0.535808 0
    outer loop
      vertex -5.62414 33.0821 0
      vertex -5.5804 33.0131 1.8
      vertex -5.5804 33.0131 0
    endloop
  endfacet
  facet normal 0.24871 0.968578 -0
    outer loop
      vertex -5.94914 33.3182 0
      vertex -6.0282 33.3385 1.8
      vertex -5.94914 33.3182 1.8
    endloop
  endfacet
  facet normal 0.24871 0.968578 0
    outer loop
      vertex -6.0282 33.3385 1.8
      vertex -5.94914 33.3182 0
      vertex -6.0282 33.3385 0
    endloop
  endfacet
  facet normal 0.368077 0.929795 -0
    outer loop
      vertex -5.87324 33.2881 0
      vertex -5.94914 33.3182 1.8
      vertex -5.87324 33.2881 1.8
    endloop
  endfacet
  facet normal 0.368077 0.929795 0
    outer loop
      vertex -5.94914 33.3182 1.8
      vertex -5.87324 33.2881 0
      vertex -5.94914 33.3182 0
    endloop
  endfacet
  facet normal -0.368077 0.929795 0
    outer loop
      vertex -6.35086 33.3182 0
      vertex -6.42676 33.2881 1.8
      vertex -6.35086 33.3182 1.8
    endloop
  endfacet
  facet normal -0.368077 0.929795 0
    outer loop
      vertex -6.42676 33.2881 1.8
      vertex -6.35086 33.3182 0
      vertex -6.42676 33.2881 0
    endloop
  endfacet
  facet normal -0.90482 0.425795 0
    outer loop
      vertex -6.75435 32.9393 0
      vertex -6.7196 33.0131 1.8
      vertex -6.7196 33.0131 0
    endloop
  endfacet
  facet normal -0.90482 0.425795 0
    outer loop
      vertex -6.7196 33.0131 1.8
      vertex -6.75435 32.9393 0
      vertex -6.75435 32.9393 1.8
    endloop
  endfacet
  facet normal 0.982288 0.187377 0
    outer loop
      vertex -5.50513 32.7815 1.8
      vertex -5.52042 32.8616 0
      vertex -5.52042 32.8616 1.8
    endloop
  endfacet
  facet normal 0.982288 0.187377 0
    outer loop
      vertex -5.52042 32.8616 0
      vertex -5.50513 32.7815 1.8
      vertex -5.50513 32.7815 0
    endloop
  endfacet
  facet normal 0.125339 0.992114 -0
    outer loop
      vertex -6.0282 33.3385 0
      vertex -6.10919 33.3487 1.8
      vertex -6.0282 33.3385 1.8
    endloop
  endfacet
  facet normal 0.125339 0.992114 0
    outer loop
      vertex -6.10919 33.3487 1.8
      vertex -6.0282 33.3385 0
      vertex -6.10919 33.3487 0
    endloop
  endfacet
  facet normal 0.481764 0.876301 -0
    outer loop
      vertex -5.80171 33.2488 0
      vertex -5.87324 33.2881 1.8
      vertex -5.80171 33.2488 1.8
    endloop
  endfacet
  facet normal 0.481764 0.876301 0
    outer loop
      vertex -5.87324 33.2881 1.8
      vertex -5.80171 33.2488 0
      vertex -5.87324 33.2881 0
    endloop
  endfacet
  facet normal -0.998027 0.0627856 0
    outer loop
      vertex -6.8 32.7 0
      vertex -6.79487 32.7815 1.8
      vertex -6.79487 32.7815 0
    endloop
  endfacet
  facet normal -0.998027 0.0627856 0
    outer loop
      vertex -6.79487 32.7815 1.8
      vertex -6.8 32.7 0
      vertex -6.8 32.7 1.8
    endloop
  endfacet
  facet normal -0.770501 0.637438 0
    outer loop
      vertex -6.67586 33.0821 0
      vertex -6.62383 33.145 1.8
      vertex -6.62383 33.145 0
    endloop
  endfacet
  facet normal -0.770501 0.637438 0
    outer loop
      vertex -6.62383 33.145 1.8
      vertex -6.67586 33.0821 0
      vertex -6.67586 33.0821 1.8
    endloop
  endfacet
  facet normal -0.125337 0.992114 0
    outer loop
      vertex -6.19081 33.3487 0
      vertex -6.2718 33.3385 1.8
      vertex -6.19081 33.3487 1.8
    endloop
  endfacet
  facet normal -0.125337 0.992114 0
    outer loop
      vertex -6.2718 33.3385 1.8
      vertex -6.19081 33.3487 0
      vertex -6.2718 33.3385 0
    endloop
  endfacet
  facet normal -0.684548 0.728968 0
    outer loop
      vertex -6.56433 33.2008 0
      vertex -6.62383 33.145 1.8
      vertex -6.56433 33.2008 1.8
    endloop
  endfacet
  facet normal -0.684548 0.728968 0
    outer loop
      vertex -6.62383 33.145 1.8
      vertex -6.56433 33.2008 0
      vertex -6.62383 33.145 0
    endloop
  endfacet
  facet normal 0.95106 -0.309006 0
    outer loop
      vertex -5.54564 32.4607 1.8
      vertex -5.52042 32.5384 0
      vertex -5.52042 32.5384 1.8
    endloop
  endfacet
  facet normal 0.95106 -0.309006 0
    outer loop
      vertex -5.52042 32.5384 0
      vertex -5.54564 32.4607 1.8
      vertex -5.54564 32.4607 0
    endloop
  endfacet
  facet normal 0.587799 -0.809007 0
    outer loop
      vertex -5.80171 32.1512 0
      vertex -5.73567 32.1992 1.8
      vertex -5.80171 32.1512 1.8
    endloop
  endfacet
  facet normal 0.587799 -0.809007 0
    outer loop
      vertex -5.73567 32.1992 1.8
      vertex -5.80171 32.1512 0
      vertex -5.73567 32.1992 0
    endloop
  endfacet
  facet normal 0.684548 0.728968 -0
    outer loop
      vertex -5.67617 33.145 0
      vertex -5.73567 33.2008 1.8
      vertex -5.67617 33.145 1.8
    endloop
  endfacet
  facet normal 0.684548 0.728968 0
    outer loop
      vertex -5.73567 33.2008 1.8
      vertex -5.67617 33.145 0
      vertex -5.73567 33.2008 0
    endloop
  endfacet
  facet normal 0.770501 0.637438 0
    outer loop
      vertex -5.62414 33.0821 1.8
      vertex -5.67617 33.145 0
      vertex -5.67617 33.145 1.8
    endloop
  endfacet
  facet normal 0.770501 0.637438 0
    outer loop
      vertex -5.67617 33.145 0
      vertex -5.62414 33.0821 1.8
      vertex -5.62414 33.0821 0
    endloop
  endfacet
  facet normal 0 1 -0
    outer loop
      vertex -6.10919 33.3487 0
      vertex -6.19081 33.3487 1.8
      vertex -6.10919 33.3487 1.8
    endloop
  endfacet
  facet normal 0 1 0
    outer loop
      vertex -6.19081 33.3487 1.8
      vertex -6.10919 33.3487 0
      vertex -6.19081 33.3487 0
    endloop
  endfacet
  facet normal 0.587799 0.809007 -0
    outer loop
      vertex -5.73567 33.2008 0
      vertex -5.80171 33.2488 1.8
      vertex -5.73567 33.2008 1.8
    endloop
  endfacet
  facet normal 0.587799 0.809007 0
    outer loop
      vertex -5.80171 33.2488 1.8
      vertex -5.73567 33.2008 0
      vertex -5.80171 33.2488 0
    endloop
  endfacet
  facet normal -0.951059 0.309009 0
    outer loop
      vertex -6.77958 32.8616 0
      vertex -6.75435 32.9393 1.8
      vertex -6.75435 32.9393 0
    endloop
  endfacet
  facet normal -0.951059 0.309009 0
    outer loop
      vertex -6.75435 32.9393 1.8
      vertex -6.77958 32.8616 0
      vertex -6.77958 32.8616 1.8
    endloop
  endfacet
  facet normal -0.982286 0.187389 0
    outer loop
      vertex -6.79487 32.7815 0
      vertex -6.77958 32.8616 1.8
      vertex -6.77958 32.8616 0
    endloop
  endfacet
  facet normal -0.982286 0.187389 0
    outer loop
      vertex -6.77958 32.8616 1.8
      vertex -6.79487 32.7815 0
      vertex -6.79487 32.7815 1.8
    endloop
  endfacet
  facet normal -0.84434 0.535808 0
    outer loop
      vertex -6.7196 33.0131 0
      vertex -6.67586 33.0821 1.8
      vertex -6.67586 33.0821 0
    endloop
  endfacet
  facet normal -0.84434 0.535808 0
    outer loop
      vertex -6.67586 33.0821 1.8
      vertex -6.7196 33.0131 0
      vertex -6.7196 33.0131 1.8
    endloop
  endfacet
  facet normal -0.24871 0.968578 0
    outer loop
      vertex -6.2718 33.3385 0
      vertex -6.35086 33.3182 1.8
      vertex -6.2718 33.3385 1.8
    endloop
  endfacet
  facet normal -0.24871 0.968578 0
    outer loop
      vertex -6.35086 33.3182 1.8
      vertex -6.2718 33.3385 0
      vertex -6.35086 33.3182 0
    endloop
  endfacet
  facet normal -0.587799 0.809007 0
    outer loop
      vertex -6.49829 33.2488 0
      vertex -6.56433 33.2008 1.8
      vertex -6.49829 33.2488 1.8
    endloop
  endfacet
  facet normal -0.587799 0.809007 0
    outer loop
      vertex -6.56433 33.2008 1.8
      vertex -6.49829 33.2488 0
      vertex -6.56433 33.2008 0
    endloop
  endfacet
  facet normal -0.481764 0.876301 0
    outer loop
      vertex -6.42676 33.2881 0
      vertex -6.49829 33.2488 1.8
      vertex -6.42676 33.2881 1.8
    endloop
  endfacet
  facet normal -0.481764 0.876301 0
    outer loop
      vertex -6.49829 33.2488 1.8
      vertex -6.42676 33.2881 0
      vertex -6.49829 33.2488 0
    endloop
  endfacet
  facet normal 0.998027 0.0627856 0
    outer loop
      vertex -5.5 32.7 1.8
      vertex -5.50513 32.7815 0
      vertex -5.50513 32.7815 1.8
    endloop
  endfacet
  facet normal 0.998027 0.0627856 0
    outer loop
      vertex -5.50513 32.7815 0
      vertex -5.5 32.7 1.8
      vertex -5.5 32.7 0
    endloop
  endfacet
  facet normal 0.998027 -0.0627856 0
    outer loop
      vertex -5.50513 32.6185 1.8
      vertex -5.5 32.7 0
      vertex -5.5 32.7 1.8
    endloop
  endfacet
  facet normal 0.998027 -0.0627856 0
    outer loop
      vertex -5.5 32.7 0
      vertex -5.50513 32.6185 1.8
      vertex -5.50513 32.6185 0
    endloop
  endfacet
  facet normal 0.982288 -0.187377 0
    outer loop
      vertex -5.52042 32.5384 1.8
      vertex -5.50513 32.6185 0
      vertex -5.50513 32.6185 1.8
    endloop
  endfacet
  facet normal 0.982288 -0.187377 0
    outer loop
      vertex -5.50513 32.6185 0
      vertex -5.52042 32.5384 1.8
      vertex -5.52042 32.5384 0
    endloop
  endfacet
  facet normal 0 -1 0
    outer loop
      vertex -6.19081 32.0513 0
      vertex -6.10919 32.0513 1.8
      vertex -6.19081 32.0513 1.8
    endloop
  endfacet
  facet normal 0 -1 -0
    outer loop
      vertex -6.10919 32.0513 1.8
      vertex -6.19081 32.0513 0
      vertex -6.10919 32.0513 0
    endloop
  endfacet
  facet normal -0.998027 -0.0627856 0
    outer loop
      vertex -6.79487 32.6185 0
      vertex -6.8 32.7 1.8
      vertex -6.8 32.7 0
    endloop
  endfacet
  facet normal -0.998027 -0.0627856 0
    outer loop
      vertex -6.8 32.7 1.8
      vertex -6.79487 32.6185 0
      vertex -6.79487 32.6185 1.8
    endloop
  endfacet
  facet normal -0.90482 -0.425795 0
    outer loop
      vertex -6.7196 32.3869 0
      vertex -6.75435 32.4607 1.8
      vertex -6.75435 32.4607 0
    endloop
  endfacet
  facet normal -0.90482 -0.425795 0
    outer loop
      vertex -6.75435 32.4607 1.8
      vertex -6.7196 32.3869 0
      vertex -6.7196 32.3869 1.8
    endloop
  endfacet
  facet normal 0.90482 0.425795 0
    outer loop
      vertex -5.54564 32.9393 1.8
      vertex -5.5804 33.0131 0
      vertex -5.5804 33.0131 1.8
    endloop
  endfacet
  facet normal 0.90482 0.425795 0
    outer loop
      vertex -5.5804 33.0131 0
      vertex -5.54564 32.9393 1.8
      vertex -5.54564 32.9393 0
    endloop
  endfacet
  facet normal 0.951056 0.309019 0
    outer loop
      vertex -5.52042 32.8616 1.8
      vertex -5.54564 32.9393 0
      vertex -5.54564 32.9393 1.8
    endloop
  endfacet
  facet normal 0.951056 0.309019 0
    outer loop
      vertex -5.54564 32.9393 0
      vertex -5.52042 32.8616 1.8
      vertex -5.52042 32.8616 0
    endloop
  endfacet
  facet normal -0.951064 -0.308995 0
    outer loop
      vertex -6.75435 32.4607 0
      vertex -6.77958 32.5384 1.8
      vertex -6.77958 32.5384 0
    endloop
  endfacet
  facet normal -0.951064 -0.308995 0
    outer loop
      vertex -6.77958 32.5384 1.8
      vertex -6.75435 32.4607 0
      vertex -6.75435 32.4607 1.8
    endloop
  endfacet
  facet normal -0.982286 -0.187389 0
    outer loop
      vertex -6.77958 32.5384 0
      vertex -6.79487 32.6185 1.8
      vertex -6.79487 32.6185 0
    endloop
  endfacet
  facet normal -0.982286 -0.187389 0
    outer loop
      vertex -6.79487 32.6185 1.8
      vertex -6.77958 32.5384 0
      vertex -6.77958 32.5384 1.8
    endloop
  endfacet
  facet normal 0.125339 -0.992114 0
    outer loop
      vertex -6.10919 32.0513 0
      vertex -6.0282 32.0615 1.8
      vertex -6.10919 32.0513 1.8
    endloop
  endfacet
  facet normal 0.125339 -0.992114 0
    outer loop
      vertex -6.0282 32.0615 1.8
      vertex -6.10919 32.0513 0
      vertex -6.0282 32.0615 0
    endloop
  endfacet
  facet normal 0.481728 -0.876321 0
    outer loop
      vertex -5.87324 32.1119 0
      vertex -5.80171 32.1512 1.8
      vertex -5.87324 32.1119 1.8
    endloop
  endfacet
  facet normal 0.481728 -0.876321 0
    outer loop
      vertex -5.80171 32.1512 1.8
      vertex -5.87324 32.1119 0
      vertex -5.80171 32.1512 0
    endloop
  endfacet
  facet normal 0.368117 -0.929779 0
    outer loop
      vertex -5.94914 32.0818 0
      vertex -5.87324 32.1119 1.8
      vertex -5.94914 32.0818 1.8
    endloop
  endfacet
  facet normal 0.368117 -0.929779 0
    outer loop
      vertex -5.87324 32.1119 1.8
      vertex -5.94914 32.0818 0
      vertex -5.87324 32.1119 0
    endloop
  endfacet
  facet normal 0.77052 -0.637415 0
    outer loop
      vertex -5.67617 32.255 1.8
      vertex -5.62414 32.3179 0
      vertex -5.62414 32.3179 1.8
    endloop
  endfacet
  facet normal 0.77052 -0.637415 0
    outer loop
      vertex -5.62414 32.3179 0
      vertex -5.67617 32.255 1.8
      vertex -5.67617 32.255 0
    endloop
  endfacet
  facet normal 0.90482 -0.425795 0
    outer loop
      vertex -5.5804 32.3869 1.8
      vertex -5.54564 32.4607 0
      vertex -5.54564 32.4607 1.8
    endloop
  endfacet
  facet normal 0.90482 -0.425795 0
    outer loop
      vertex -5.54564 32.4607 0
      vertex -5.5804 32.3869 1.8
      vertex -5.5804 32.3869 0
    endloop
  endfacet
  facet normal 0.844326 -0.53583 0
    outer loop
      vertex -5.62414 32.3179 1.8
      vertex -5.5804 32.3869 0
      vertex -5.5804 32.3869 1.8
    endloop
  endfacet
  facet normal 0.844326 -0.53583 0
    outer loop
      vertex -5.5804 32.3869 0
      vertex -5.62414 32.3179 1.8
      vertex -5.62414 32.3179 0
    endloop
  endfacet
  facet normal -0.587799 -0.809007 0
    outer loop
      vertex -6.56433 32.1992 0
      vertex -6.49829 32.1512 1.8
      vertex -6.56433 32.1992 1.8
    endloop
  endfacet
  facet normal -0.587799 -0.809007 -0
    outer loop
      vertex -6.49829 32.1512 1.8
      vertex -6.56433 32.1992 0
      vertex -6.49829 32.1512 0
    endloop
  endfacet
  facet normal -0.368117 -0.929779 0
    outer loop
      vertex -6.42676 32.1119 0
      vertex -6.35086 32.0818 1.8
      vertex -6.42676 32.1119 1.8
    endloop
  endfacet
  facet normal -0.368117 -0.929779 -0
    outer loop
      vertex -6.35086 32.0818 1.8
      vertex -6.42676 32.1119 0
      vertex -6.35086 32.0818 0
    endloop
  endfacet
  facet normal -0.24871 -0.968578 0
    outer loop
      vertex -6.35086 32.0818 0
      vertex -6.2718 32.0615 1.8
      vertex -6.35086 32.0818 1.8
    endloop
  endfacet
  facet normal -0.24871 -0.968578 -0
    outer loop
      vertex -6.2718 32.0615 1.8
      vertex -6.35086 32.0818 0
      vertex -6.2718 32.0615 0
    endloop
  endfacet
  facet normal -0.77052 -0.637415 0
    outer loop
      vertex -6.62383 32.255 0
      vertex -6.67586 32.3179 1.8
      vertex -6.67586 32.3179 0
    endloop
  endfacet
  facet normal -0.77052 -0.637415 0
    outer loop
      vertex -6.67586 32.3179 1.8
      vertex -6.62383 32.255 0
      vertex -6.62383 32.255 1.8
    endloop
  endfacet
  facet normal -0.684548 -0.728968 0
    outer loop
      vertex -6.62383 32.255 0
      vertex -6.56433 32.1992 1.8
      vertex -6.62383 32.255 1.8
    endloop
  endfacet
  facet normal -0.684548 -0.728968 -0
    outer loop
      vertex -6.56433 32.1992 1.8
      vertex -6.62383 32.255 0
      vertex -6.56433 32.1992 0
    endloop
  endfacet
  facet normal 0.24871 -0.968578 0
    outer loop
      vertex -6.0282 32.0615 0
      vertex -5.94914 32.0818 1.8
      vertex -6.0282 32.0615 1.8
    endloop
  endfacet
  facet normal 0.24871 -0.968578 0
    outer loop
      vertex -5.94914 32.0818 1.8
      vertex -6.0282 32.0615 0
      vertex -5.94914 32.0818 0
    endloop
  endfacet
  facet normal 0.684548 -0.728968 0
    outer loop
      vertex -5.73567 32.1992 0
      vertex -5.67617 32.255 1.8
      vertex -5.73567 32.1992 1.8
    endloop
  endfacet
  facet normal 0.684548 -0.728968 0
    outer loop
      vertex -5.67617 32.255 1.8
      vertex -5.73567 32.1992 0
      vertex -5.67617 32.255 0
    endloop
  endfacet
  facet normal -0.481728 -0.876321 0
    outer loop
      vertex -6.49829 32.1512 0
      vertex -6.42676 32.1119 1.8
      vertex -6.49829 32.1512 1.8
    endloop
  endfacet
  facet normal -0.481728 -0.876321 -0
    outer loop
      vertex -6.42676 32.1119 1.8
      vertex -6.49829 32.1512 0
      vertex -6.42676 32.1119 0
    endloop
  endfacet
  facet normal -0.125337 -0.992114 0
    outer loop
      vertex -6.2718 32.0615 0
      vertex -6.19081 32.0513 1.8
      vertex -6.2718 32.0615 1.8
    endloop
  endfacet
  facet normal -0.125337 -0.992114 -0
    outer loop
      vertex -6.19081 32.0513 1.8
      vertex -6.2718 32.0615 0
      vertex -6.19081 32.0513 0
    endloop
  endfacet
  facet normal -0.844326 -0.53583 0
    outer loop
      vertex -6.67586 32.3179 0
      vertex -6.7196 32.3869 1.8
      vertex -6.7196 32.3869 0
    endloop
  endfacet
  facet normal -0.844326 -0.53583 0
    outer loop
      vertex -6.7196 32.3869 1.8
      vertex -6.67586 32.3179 0
      vertex -6.67586 32.3179 1.8
    endloop
  endfacet
  facet normal -0.481746 0.876311 0
    outer loop
      vertex 6.02324 9.83814 0
      vertex 5.95171 9.79881 1.8
      vertex 6.02324 9.83814 1.8
    endloop
  endfacet
  facet normal -0.481746 0.876311 0
    outer loop
      vertex 5.95171 9.79881 1.8
      vertex 6.02324 9.83814 0
      vertex 5.95171 9.79881 0
    endloop
  endfacet
  facet normal -0.951059 0.309009 0
    outer loop
      vertex 5.67042 9.41165 0
      vertex 5.69564 9.48928 1.8
      vertex 5.69564 9.48928 0
    endloop
  endfacet
  facet normal -0.951059 0.309009 0
    outer loop
      vertex 5.69564 9.48928 1.8
      vertex 5.67042 9.41165 0
      vertex 5.67042 9.41165 1.8
    endloop
  endfacet
  facet normal -0.368127 -0.929775 0
    outer loop
      vertex 6.02324 8.66186 0
      vertex 6.09914 8.63181 1.8
      vertex 6.02324 8.66186 1.8
    endloop
  endfacet
  facet normal -0.368127 -0.929775 -0
    outer loop
      vertex 6.09914 8.63181 1.8
      vertex 6.02324 8.66186 0
      vertex 6.09914 8.63181 0
    endloop
  endfacet
  facet normal 0 1 -0
    outer loop
      vertex 6.29999 9.89872 0
      vertex 6.25919 9.89872 1.8
      vertex 6.29999 9.89872 1.8
    endloop
  endfacet
  facet normal 0 1 0
    outer loop
      vertex 6.25919 9.89872 1.8
      vertex 6.29999 9.89872 0
      vertex 6.25919 9.89872 0
    endloop
  endfacet
  facet normal -0.84433 0.535824 0
    outer loop
      vertex 5.7304 9.56314 0
      vertex 5.77414 9.63206 1.8
      vertex 5.77414 9.63206 0
    endloop
  endfacet
  facet normal -0.84433 0.535824 0
    outer loop
      vertex 5.77414 9.63206 1.8
      vertex 5.7304 9.56314 0
      vertex 5.7304 9.56314 1.8
    endloop
  endfacet
  facet normal -0.587784 0.809018 0
    outer loop
      vertex 5.95171 9.79881 0
      vertex 5.88567 9.75083 1.8
      vertex 5.95171 9.79881 1.8
    endloop
  endfacet
  facet normal -0.587784 0.809018 0
    outer loop
      vertex 5.88567 9.75083 1.8
      vertex 5.95171 9.79881 0
      vertex 5.88567 9.75083 0
    endloop
  endfacet
  facet normal -0.248688 0.968584 0
    outer loop
      vertex 6.1782 9.88849 0
      vertex 6.09914 9.86819 1.8
      vertex 6.1782 9.88849 1.8
    endloop
  endfacet
  facet normal -0.248688 0.968584 0
    outer loop
      vertex 6.09914 9.86819 1.8
      vertex 6.1782 9.88849 0
      vertex 6.09914 9.86819 0
    endloop
  endfacet
  facet normal 0 -1 0
    outer loop
      vertex 6.25919 8.60128 0
      vertex 6.29999 8.60128 1.8
      vertex 6.25919 8.60128 1.8
    endloop
  endfacet
  facet normal 0 -1 -0
    outer loop
      vertex 6.29999 8.60128 1.8
      vertex 6.25919 8.60128 0
      vertex 6.29999 8.60128 0
    endloop
  endfacet
  facet normal -0.587784 -0.809018 0
    outer loop
      vertex 5.88567 8.74917 0
      vertex 5.95171 8.70119 1.8
      vertex 5.88567 8.74917 1.8
    endloop
  endfacet
  facet normal -0.587784 -0.809018 -0
    outer loop
      vertex 5.95171 8.70119 1.8
      vertex 5.88567 8.74917 0
      vertex 5.95171 8.70119 0
    endloop
  endfacet
  facet normal -0.84433 -0.535824 0
    outer loop
      vertex 5.77414 8.86794 0
      vertex 5.7304 8.93686 1.8
      vertex 5.7304 8.93686 0
    endloop
  endfacet
  facet normal -0.84433 -0.535824 0
    outer loop
      vertex 5.7304 8.93686 1.8
      vertex 5.77414 8.86794 0
      vertex 5.77414 8.86794 1.8
    endloop
  endfacet
  facet normal -0.998027 -0.0627856 0
    outer loop
      vertex 5.65512 9.16853 0
      vertex 5.65 9.25 1.8
      vertex 5.65 9.25 0
    endloop
  endfacet
  facet normal -0.998027 -0.0627856 0
    outer loop
      vertex 5.65 9.25 1.8
      vertex 5.65512 9.16853 0
      vertex 5.65512 9.16853 1.8
    endloop
  endfacet
  facet normal -0.982286 0.187386 0
    outer loop
      vertex 5.65512 9.33147 0
      vertex 5.67042 9.41165 1.8
      vertex 5.67042 9.41165 0
    endloop
  endfacet
  facet normal -0.982286 0.187386 0
    outer loop
      vertex 5.67042 9.41165 1.8
      vertex 5.65512 9.33147 0
      vertex 5.65512 9.33147 1.8
    endloop
  endfacet
  facet normal -0.904824 0.425786 0
    outer loop
      vertex 5.69564 9.48928 0
      vertex 5.7304 9.56314 1.8
      vertex 5.7304 9.56314 0
    endloop
  endfacet
  facet normal -0.904824 0.425786 0
    outer loop
      vertex 5.7304 9.56314 1.8
      vertex 5.69564 9.48928 0
      vertex 5.69564 9.48928 1.8
    endloop
  endfacet
  facet normal -0.368127 0.929775 0
    outer loop
      vertex 6.09914 9.86819 0
      vertex 6.02324 9.83814 1.8
      vertex 6.09914 9.86819 1.8
    endloop
  endfacet
  facet normal -0.368127 0.929775 0
    outer loop
      vertex 6.02324 9.83814 1.8
      vertex 6.09914 9.86819 0
      vertex 6.02324 9.83814 0
    endloop
  endfacet
  facet normal -0.125337 0.992114 0
    outer loop
      vertex 6.25919 9.89872 0
      vertex 6.1782 9.88849 1.8
      vertex 6.25919 9.89872 1.8
    endloop
  endfacet
  facet normal -0.125337 0.992114 0
    outer loop
      vertex 6.1782 9.88849 1.8
      vertex 6.25919 9.89872 0
      vertex 6.1782 9.88849 0
    endloop
  endfacet
  facet normal -0.684554 0.728962 0
    outer loop
      vertex 5.88567 9.75083 0
      vertex 5.82617 9.69495 1.8
      vertex 5.88567 9.75083 1.8
    endloop
  endfacet
  facet normal -0.684554 0.728962 0
    outer loop
      vertex 5.82617 9.69495 1.8
      vertex 5.88567 9.75083 0
      vertex 5.82617 9.69495 0
    endloop
  endfacet
  facet normal -0.770511 0.637427 0
    outer loop
      vertex 5.77414 9.63206 0
      vertex 5.82617 9.69495 1.8
      vertex 5.82617 9.69495 0
    endloop
  endfacet
  facet normal -0.770511 0.637427 0
    outer loop
      vertex 5.82617 9.69495 1.8
      vertex 5.77414 9.63206 0
      vertex 5.77414 9.63206 1.8
    endloop
  endfacet
  facet normal -0.248688 -0.968584 0
    outer loop
      vertex 6.09914 8.63181 0
      vertex 6.1782 8.61151 1.8
      vertex 6.09914 8.63181 1.8
    endloop
  endfacet
  facet normal -0.248688 -0.968584 -0
    outer loop
      vertex 6.1782 8.61151 1.8
      vertex 6.09914 8.63181 0
      vertex 6.1782 8.61151 0
    endloop
  endfacet
  facet normal -0.481746 -0.876311 0
    outer loop
      vertex 5.95171 8.70119 0
      vertex 6.02324 8.66186 1.8
      vertex 5.95171 8.70119 1.8
    endloop
  endfacet
  facet normal -0.481746 -0.876311 -0
    outer loop
      vertex 6.02324 8.66186 1.8
      vertex 5.95171 8.70119 0
      vertex 6.02324 8.66186 0
    endloop
  endfacet
  facet normal -0.904824 -0.425786 0
    outer loop
      vertex 5.7304 8.93686 0
      vertex 5.69564 9.01072 1.8
      vertex 5.69564 9.01072 0
    endloop
  endfacet
  facet normal -0.904824 -0.425786 0
    outer loop
      vertex 5.69564 9.01072 1.8
      vertex 5.7304 8.93686 0
      vertex 5.7304 8.93686 1.8
    endloop
  endfacet
  facet normal -0.982286 -0.187386 0
    outer loop
      vertex 5.67042 9.08835 0
      vertex 5.65512 9.16853 1.8
      vertex 5.65512 9.16853 0
    endloop
  endfacet
  facet normal -0.982286 -0.187386 0
    outer loop
      vertex 5.65512 9.16853 1.8
      vertex 5.67042 9.08835 0
      vertex 5.67042 9.08835 1.8
    endloop
  endfacet
  facet normal -0.770511 -0.637427 0
    outer loop
      vertex 5.82617 8.80504 0
      vertex 5.77414 8.86794 1.8
      vertex 5.77414 8.86794 0
    endloop
  endfacet
  facet normal -0.770511 -0.637427 0
    outer loop
      vertex 5.77414 8.86794 1.8
      vertex 5.82617 8.80504 0
      vertex 5.82617 8.80504 1.8
    endloop
  endfacet
  facet normal -0.684554 -0.728962 0
    outer loop
      vertex 5.82617 8.80504 0
      vertex 5.88567 8.74917 1.8
      vertex 5.82617 8.80504 1.8
    endloop
  endfacet
  facet normal -0.684554 -0.728962 -0
    outer loop
      vertex 5.88567 8.74917 1.8
      vertex 5.82617 8.80504 0
      vertex 5.88567 8.74917 0
    endloop
  endfacet
  facet normal -0.998027 0.0627863 0
    outer loop
      vertex 5.65 9.25 0
      vertex 5.65512 9.33147 1.8
      vertex 5.65512 9.33147 0
    endloop
  endfacet
  facet normal -0.998027 0.0627863 0
    outer loop
      vertex 5.65512 9.33147 1.8
      vertex 5.65 9.25 0
      vertex 5.65 9.25 1.8
    endloop
  endfacet
  facet normal -0.125337 -0.992114 0
    outer loop
      vertex 6.1782 8.61151 0
      vertex 6.25919 8.60128 1.8
      vertex 6.1782 8.61151 1.8
    endloop
  endfacet
  facet normal -0.125337 -0.992114 -0
    outer loop
      vertex 6.25919 8.60128 1.8
      vertex 6.1782 8.61151 0
      vertex 6.25919 8.60128 0
    endloop
  endfacet
  facet normal -0.951059 -0.309009 0
    outer loop
      vertex 5.69564 9.01072 0
      vertex 5.67042 9.08835 1.8
      vertex 5.67042 9.08835 0
    endloop
  endfacet
  facet normal -0.951059 -0.309009 0
    outer loop
      vertex 5.67042 9.08835 1.8
      vertex 5.69564 9.01072 0
      vertex 5.69564 9.01072 1.8
    endloop
  endfacet
  facet normal 0.904824 0.425786 0
    outer loop
      vertex -5.69564 9.48928 1.8
      vertex -5.7304 9.56314 0
      vertex -5.7304 9.56314 1.8
    endloop
  endfacet
  facet normal 0.904824 0.425786 0
    outer loop
      vertex -5.7304 9.56314 0
      vertex -5.69564 9.48928 1.8
      vertex -5.69564 9.48928 0
    endloop
  endfacet
  facet normal 0.84433 0.535824 0
    outer loop
      vertex -5.7304 9.56314 1.8
      vertex -5.77414 9.63206 0
      vertex -5.77414 9.63206 1.8
    endloop
  endfacet
  facet normal 0.84433 0.535824 0
    outer loop
      vertex -5.77414 9.63206 0
      vertex -5.7304 9.56314 1.8
      vertex -5.7304 9.56314 0
    endloop
  endfacet
  facet normal 0.368127 0.929775 -0
    outer loop
      vertex -6.02324 9.83814 0
      vertex -6.09914 9.86819 1.8
      vertex -6.02324 9.83814 1.8
    endloop
  endfacet
  facet normal 0.368127 0.929775 0
    outer loop
      vertex -6.09914 9.86819 1.8
      vertex -6.02324 9.83814 0
      vertex -6.09914 9.86819 0
    endloop
  endfacet
  facet normal 0.982286 -0.187386 0
    outer loop
      vertex -5.67042 9.08835 1.8
      vertex -5.65512 9.16853 0
      vertex -5.65512 9.16853 1.8
    endloop
  endfacet
  facet normal 0.982286 -0.187386 0
    outer loop
      vertex -5.65512 9.16853 0
      vertex -5.67042 9.08835 1.8
      vertex -5.67042 9.08835 0
    endloop
  endfacet
  facet normal 0.481746 -0.876311 0
    outer loop
      vertex -6.02324 8.66186 0
      vertex -5.95171 8.70119 1.8
      vertex -6.02324 8.66186 1.8
    endloop
  endfacet
  facet normal 0.481746 -0.876311 0
    outer loop
      vertex -5.95171 8.70119 1.8
      vertex -6.02324 8.66186 0
      vertex -5.95171 8.70119 0
    endloop
  endfacet
  facet normal 0 1 -0
    outer loop
      vertex -6.25919 9.89872 0
      vertex -6.29999 9.89872 1.8
      vertex -6.25919 9.89872 1.8
    endloop
  endfacet
  facet normal 0 1 0
    outer loop
      vertex -6.29999 9.89872 1.8
      vertex -6.25919 9.89872 0
      vertex -6.29999 9.89872 0
    endloop
  endfacet
  facet normal 0.587784 0.809018 -0
    outer loop
      vertex -5.88567 9.75083 0
      vertex -5.95171 9.79881 1.8
      vertex -5.88567 9.75083 1.8
    endloop
  endfacet
  facet normal 0.587784 0.809018 0
    outer loop
      vertex -5.95171 9.79881 1.8
      vertex -5.88567 9.75083 0
      vertex -5.95171 9.79881 0
    endloop
  endfacet
  facet normal 0.587784 -0.809018 0
    outer loop
      vertex -5.95171 8.70119 0
      vertex -5.88567 8.74917 1.8
      vertex -5.95171 8.70119 1.8
    endloop
  endfacet
  facet normal 0.587784 -0.809018 0
    outer loop
      vertex -5.88567 8.74917 1.8
      vertex -5.95171 8.70119 0
      vertex -5.88567 8.74917 0
    endloop
  endfacet
  facet normal 0.951059 -0.309009 0
    outer loop
      vertex -5.69564 9.01072 1.8
      vertex -5.67042 9.08835 0
      vertex -5.67042 9.08835 1.8
    endloop
  endfacet
  facet normal 0.951059 -0.309009 0
    outer loop
      vertex -5.67042 9.08835 0
      vertex -5.69564 9.01072 1.8
      vertex -5.69564 9.01072 0
    endloop
  endfacet
  facet normal 0.368127 -0.929775 0
    outer loop
      vertex -6.09914 8.63181 0
      vertex -6.02324 8.66186 1.8
      vertex -6.09914 8.63181 1.8
    endloop
  endfacet
  facet normal 0.368127 -0.929775 0
    outer loop
      vertex -6.02324 8.66186 1.8
      vertex -6.09914 8.63181 0
      vertex -6.02324 8.66186 0
    endloop
  endfacet
  facet normal 0.951059 0.309009 0
    outer loop
      vertex -5.67042 9.41165 1.8
      vertex -5.69564 9.48928 0
      vertex -5.69564 9.48928 1.8
    endloop
  endfacet
  facet normal 0.951059 0.309009 0
    outer loop
      vertex -5.69564 9.48928 0
      vertex -5.67042 9.41165 1.8
      vertex -5.67042 9.41165 0
    endloop
  endfacet
  facet normal 0.684554 0.728962 -0
    outer loop
      vertex -5.82617 9.69495 0
      vertex -5.88567 9.75083 1.8
      vertex -5.82617 9.69495 1.8
    endloop
  endfacet
  facet normal 0.684554 0.728962 0
    outer loop
      vertex -5.88567 9.75083 1.8
      vertex -5.82617 9.69495 0
      vertex -5.88567 9.75083 0
    endloop
  endfacet
  facet normal 0.248688 0.968584 -0
    outer loop
      vertex -6.09914 9.86819 0
      vertex -6.1782 9.88849 1.8
      vertex -6.09914 9.86819 1.8
    endloop
  endfacet
  facet normal 0.248688 0.968584 0
    outer loop
      vertex -6.1782 9.88849 1.8
      vertex -6.09914 9.86819 0
      vertex -6.1782 9.88849 0
    endloop
  endfacet
  facet normal 0.125337 0.992114 -0
    outer loop
      vertex -6.1782 9.88849 0
      vertex -6.25919 9.89872 1.8
      vertex -6.1782 9.88849 1.8
    endloop
  endfacet
  facet normal 0.125337 0.992114 0
    outer loop
      vertex -6.25919 9.89872 1.8
      vertex -6.1782 9.88849 0
      vertex -6.25919 9.89872 0
    endloop
  endfacet
  facet normal 0.481746 0.876311 -0
    outer loop
      vertex -5.95171 9.79881 0
      vertex -6.02324 9.83814 1.8
      vertex -5.95171 9.79881 1.8
    endloop
  endfacet
  facet normal 0.481746 0.876311 0
    outer loop
      vertex -6.02324 9.83814 1.8
      vertex -5.95171 9.79881 0
      vertex -6.02324 9.83814 0
    endloop
  endfacet
  facet normal 0.998027 0.0627863 0
    outer loop
      vertex -5.65 9.25 1.8
      vertex -5.65512 9.33147 0
      vertex -5.65512 9.33147 1.8
    endloop
  endfacet
  facet normal 0.998027 0.0627863 0
    outer loop
      vertex -5.65512 9.33147 0
      vertex -5.65 9.25 1.8
      vertex -5.65 9.25 0
    endloop
  endfacet
  facet normal 0.84433 -0.535824 0
    outer loop
      vertex -5.77414 8.86794 1.8
      vertex -5.7304 8.93686 0
      vertex -5.7304 8.93686 1.8
    endloop
  endfacet
  facet normal 0.84433 -0.535824 0
    outer loop
      vertex -5.7304 8.93686 0
      vertex -5.77414 8.86794 1.8
      vertex -5.77414 8.86794 0
    endloop
  endfacet
  facet normal 0.904824 -0.425786 0
    outer loop
      vertex -5.7304 8.93686 1.8
      vertex -5.69564 9.01072 0
      vertex -5.69564 9.01072 1.8
    endloop
  endfacet
  facet normal 0.904824 -0.425786 0
    outer loop
      vertex -5.69564 9.01072 0
      vertex -5.7304 8.93686 1.8
      vertex -5.7304 8.93686 0
    endloop
  endfacet
  facet normal 0.125337 -0.992114 0
    outer loop
      vertex -6.25919 8.60128 0
      vertex -6.1782 8.61151 1.8
      vertex -6.25919 8.60128 1.8
    endloop
  endfacet
  facet normal 0.125337 -0.992114 0
    outer loop
      vertex -6.1782 8.61151 1.8
      vertex -6.25919 8.60128 0
      vertex -6.1782 8.61151 0
    endloop
  endfacet
  facet normal 0.982286 0.187386 0
    outer loop
      vertex -5.65512 9.33147 1.8
      vertex -5.67042 9.41165 0
      vertex -5.67042 9.41165 1.8
    endloop
  endfacet
  facet normal 0.982286 0.187386 0
    outer loop
      vertex -5.67042 9.41165 0
      vertex -5.65512 9.33147 1.8
      vertex -5.65512 9.33147 0
    endloop
  endfacet
  facet normal 0.770511 0.637427 0
    outer loop
      vertex -5.77414 9.63206 1.8
      vertex -5.82617 9.69495 0
      vertex -5.82617 9.69495 1.8
    endloop
  endfacet
  facet normal 0.770511 0.637427 0
    outer loop
      vertex -5.82617 9.69495 0
      vertex -5.77414 9.63206 1.8
      vertex -5.77414 9.63206 0
    endloop
  endfacet
  facet normal 0.998027 -0.0627856 0
    outer loop
      vertex -5.65512 9.16853 1.8
      vertex -5.65 9.25 0
      vertex -5.65 9.25 1.8
    endloop
  endfacet
  facet normal 0.998027 -0.0627856 0
    outer loop
      vertex -5.65 9.25 0
      vertex -5.65512 9.16853 1.8
      vertex -5.65512 9.16853 0
    endloop
  endfacet
  facet normal 0 -1 0
    outer loop
      vertex -6.29999 8.60128 0
      vertex -6.25919 8.60128 1.8
      vertex -6.29999 8.60128 1.8
    endloop
  endfacet
  facet normal 0 -1 -0
    outer loop
      vertex -6.25919 8.60128 1.8
      vertex -6.29999 8.60128 0
      vertex -6.25919 8.60128 0
    endloop
  endfacet
  facet normal 0.684554 -0.728962 0
    outer loop
      vertex -5.88567 8.74917 0
      vertex -5.82617 8.80504 1.8
      vertex -5.88567 8.74917 1.8
    endloop
  endfacet
  facet normal 0.684554 -0.728962 0
    outer loop
      vertex -5.82617 8.80504 1.8
      vertex -5.88567 8.74917 0
      vertex -5.82617 8.80504 0
    endloop
  endfacet
  facet normal 0.770511 -0.637427 0
    outer loop
      vertex -5.82617 8.80504 1.8
      vertex -5.77414 8.86794 0
      vertex -5.77414 8.86794 1.8
    endloop
  endfacet
  facet normal 0.770511 -0.637427 0
    outer loop
      vertex -5.77414 8.86794 0
      vertex -5.82617 8.80504 1.8
      vertex -5.82617 8.80504 0
    endloop
  endfacet
  facet normal 0.248688 -0.968584 0
    outer loop
      vertex -6.1782 8.61151 0
      vertex -6.09914 8.63181 1.8
      vertex -6.1782 8.61151 1.8
    endloop
  endfacet
  facet normal 0.248688 -0.968584 0
    outer loop
      vertex -6.09914 8.63181 1.8
      vertex -6.1782 8.61151 0
      vertex -6.09914 8.63181 0
    endloop
  endfacet
  facet normal 1 -0 0
    outer loop
      vertex -6 -2.2 1.8
      vertex -6 0 0
      vertex -6 0 1.8
    endloop
  endfacet
  facet normal 1 0 0
    outer loop
      vertex -6 -2.2 -0.349999
      vertex -6 0 0
      vertex -6 -2.2 1.8
    endloop
  endfacet
  facet normal 1 0 0
    outer loop
      vertex -6 0 0
      vertex -6 -2.2 -0.349999
      vertex -6 0 -0.349999
    endloop
  endfacet
  facet normal -1 0 0
    outer loop
      vertex 6 -2.2 -0.349999
      vertex 6 0 0
      vertex 6 0 -0.349999
    endloop
  endfacet
  facet normal -1 0 0
    outer loop
      vertex 6 -2.2 1.8
      vertex 6 0 0
      vertex 6 -2.2 -0.349999
    endloop
  endfacet
  facet normal -1 0 0
    outer loop
      vertex 6 0 0
      vertex 6 -2.2 1.8
      vertex 6 0 1.8
    endloop
  endfacet
  facet normal -0 0 1
    outer loop
      vertex -6 0 -0.349999
      vertex 6 -2.2 -0.349999
      vertex 6 0 -0.349999
    endloop
  endfacet
  facet normal 0 0 1
    outer loop
      vertex 6 -2.2 -0.349999
      vertex -6 0 -0.349999
      vertex -6 -2.2 -0.349999
    endloop
  endfacet
  facet normal 0 -1 0
    outer loop
      vertex -8.5 -2.2 1.8
      vertex -6 -2.2 -0.349999
      vertex -6 -2.2 1.8
    endloop
  endfacet
  facet normal 0 -1 -0
    outer loop
      vertex -6 -2.2 -0.349999
      vertex -8.5 -2.2 -0.95
      vertex 6 -2.2 -0.349999
    endloop
  endfacet
  facet normal 0 -1 0
    outer loop
      vertex -8.5 -2.2 -0.95
      vertex -6 -2.2 -0.349999
      vertex -8.5 -2.2 1.8
    endloop
  endfacet
  facet normal 0 -1 0
    outer loop
      vertex 6 -2.2 -0.349999
      vertex 8.5 -2.2 1.8
      vertex 6 -2.2 1.8
    endloop
  endfacet
  facet normal 0 -1 0
    outer loop
      vertex 6 -2.2 -0.349999
      vertex 8.5 -2.2 -0.95
      vertex 8.5 -2.2 1.8
    endloop
  endfacet
  facet normal 0 -1 0
    outer loop
      vertex 8.5 -2.2 -0.95
      vertex 6 -2.2 -0.349999
      vertex -8.5 -2.2 -0.95
    endloop
  endfacet
  facet normal -1 0 0
    outer loop
      vertex -8.5 -2.2 -0.95
      vertex -8.5 36.4 1.8
      vertex -8.5 36.4 -0.95
    endloop
  endfacet
  facet normal -1 -0 0
    outer loop
      vertex -8.5 36.4 1.8
      vertex -8.5 -2.2 -0.95
      vertex -8.5 -2.2 1.8
    endloop
  endfacet
  facet normal 0 0 1
    outer loop
      vertex 6.1782 9.88849 1.8
      vertex 6.29999 9.89872 1.8
      vertex 6.25919 9.89872 1.8
    endloop
  endfacet
  facet normal 0 0 1
    outer loop
      vertex 6.09914 9.86819 1.8
      vertex 6.29999 9.89872 1.8
      vertex 6.1782 9.88849 1.8
    endloop
  endfacet
  facet normal 0 0 1
    outer loop
      vertex 6.29999 9.89872 1.8
      vertex 6.09914 9.86819 1.8
      vertex 6.29999 8.60128 1.8
    endloop
  endfacet
  facet normal 0 0 1
    outer loop
      vertex 6.29999 8.60128 1.8
      vertex 6.1782 8.61151 1.8
      vertex 6.25919 8.60128 1.8
    endloop
  endfacet
  facet normal -0 0 1
    outer loop
      vertex 6.09914 8.63181 1.8
      vertex 6.29999 8.60128 1.8
      vertex 6.09914 9.86819 1.8
    endloop
  endfacet
  facet normal 0 0 1
    outer loop
      vertex 6.29999 8.60128 1.8
      vertex 6.09914 8.63181 1.8
      vertex 6.1782 8.61151 1.8
    endloop
  endfacet
  facet normal -0 0 1
    outer loop
      vertex 6.02324 9.83814 1.8
      vertex 6.09914 8.63181 1.8
      vertex 6.09914 9.86819 1.8
    endloop
  endfacet
  facet normal 0 0 1
    outer loop
      vertex 6.02324 9.83814 1.8
      vertex 6.02324 8.66186 1.8
      vertex 6.09914 8.63181 1.8
    endloop
  endfacet
  facet normal -0 0 1
    outer loop
      vertex 5.95171 9.79881 1.8
      vertex 6.02324 8.66186 1.8
      vertex 6.02324 9.83814 1.8
    endloop
  endfacet
  facet normal 0 0 1
    outer loop
      vertex 5.95171 9.79881 1.8
      vertex 5.95171 8.70119 1.8
      vertex 6.02324 8.66186 1.8
    endloop
  endfacet
  facet normal -0 0 1
    outer loop
      vertex 5.88567 9.75083 1.8
      vertex 5.95171 8.70119 1.8
      vertex 5.95171 9.79881 1.8
    endloop
  endfacet
  facet normal 0 0 1
    outer loop
      vertex 5.88567 9.75083 1.8
      vertex 5.88567 8.74917 1.8
      vertex 5.95171 8.70119 1.8
    endloop
  endfacet
  facet normal -0 0 1
    outer loop
      vertex 5.82617 9.69495 1.8
      vertex 5.88567 8.74917 1.8
      vertex 5.88567 9.75083 1.8
    endloop
  endfacet
  facet normal 0 0 1
    outer loop
      vertex 5.82617 9.69495 1.8
      vertex 5.82617 8.80504 1.8
      vertex 5.88567 8.74917 1.8
    endloop
  endfacet
  facet normal -0 0 1
    outer loop
      vertex 5.77414 9.63206 1.8
      vertex 5.82617 8.80504 1.8
      vertex 5.82617 9.69495 1.8
    endloop
  endfacet
  facet normal 0 0 1
    outer loop
      vertex 5.77414 9.63206 1.8
      vertex 5.77414 8.86794 1.8
      vertex 5.82617 8.80504 1.8
    endloop
  endfacet
  facet normal -0 0 1
    outer loop
      vertex 5.7304 9.56314 1.8
      vertex 5.77414 8.86794 1.8
      vertex 5.77414 9.63206 1.8
    endloop
  endfacet
  facet normal 0 0 1
    outer loop
      vertex 5.7304 9.56314 1.8
      vertex 5.7304 8.93686 1.8
      vertex 5.77414 8.86794 1.8
    endloop
  endfacet
  facet normal -0 0 1
    outer loop
      vertex 5.69564 9.48928 1.8
      vertex 5.7304 8.93686 1.8
      vertex 5.7304 9.56314 1.8
    endloop
  endfacet
  facet normal 0 0 1
    outer loop
      vertex 5.69564 9.48928 1.8
      vertex 5.69564 9.01072 1.8
      vertex 5.7304 8.93686 1.8
    endloop
  endfacet
  facet normal -0 0 1
    outer loop
      vertex 5.67042 9.41165 1.8
      vertex 5.69564 9.01072 1.8
      vertex 5.69564 9.48928 1.8
    endloop
  endfacet
  facet normal 0 0 1
    outer loop
      vertex 5.67042 9.41165 1.8
      vertex 5.67042 9.08835 1.8
      vertex 5.69564 9.01072 1.8
    endloop
  endfacet
  facet normal -0 0 1
    outer loop
      vertex 5.65512 9.33147 1.8
      vertex 5.67042 9.08835 1.8
      vertex 5.67042 9.41165 1.8
    endloop
  endfacet
  facet normal 0 0 1
    outer loop
      vertex 5.65512 9.33147 1.8
      vertex 5.65512 9.16853 1.8
      vertex 5.67042 9.08835 1.8
    endloop
  endfacet
  facet normal 0 -0 1
    outer loop
      vertex 5.65512 9.16853 1.8
      vertex 5.65512 9.33147 1.8
      vertex 5.65 9.25 1.8
    endloop
  endfacet
  facet normal 0 0 1
    outer loop
      vertex 6.29999 9.89872 1.8
      vertex 7.5 9.89999 1.8
      vertex 6.29999 9.89999 1.8
    endloop
  endfacet
  facet normal 0 0 1
    outer loop
      vertex 7.5 9.89999 1.8
      vertex 6.29999 9.89872 1.8
      vertex 7.5 8.59999 1.8
    endloop
  endfacet
  facet normal -0 0 1
    outer loop
      vertex 6.29999 8.60128 1.8
      vertex 7.5 8.59999 1.8
      vertex 6.29999 9.89872 1.8
    endloop
  endfacet
  facet normal 0 0 1
    outer loop
      vertex 7.5 8.59999 1.8
      vertex 6.29999 8.60128 1.8
      vertex 6.29999 8.59999 1.8
    endloop
  endfacet
  facet normal 0 0 1
    outer loop
      vertex 7.5 9.89999 1.8
      vertex 8.5 36.4 1.8
      vertex 7.5 32.4 1.8
    endloop
  endfacet
  facet normal 0 0 1
    outer loop
      vertex 8.5 36.4 1.8
      vertex 5.89999 34 1.8
      vertex 7.5 32.4 1.8
    endloop
  endfacet
  facet normal -0 0 1
    outer loop
      vertex -8.5 36.4 1.8
      vertex 5.89999 34 1.8
      vertex 8.5 36.4 1.8
    endloop
  endfacet
  facet normal 0 0 1
    outer loop
      vertex -8.5 36.4 1.8
      vertex -7.5 9.89999 1.8
      vertex -7.5 34 1.8
    endloop
  endfacet
  facet normal 0 0 1
    outer loop
      vertex -8.5 -2.2 1.8
      vertex -7.5 9.89999 1.8
      vertex -8.5 36.4 1.8
    endloop
  endfacet
  facet normal 0 0 1
    outer loop
      vertex -7.5 9.89999 1.8
      vertex -8.5 -2.2 1.8
      vertex -7.5 8.59999 1.8
    endloop
  endfacet
  facet normal 0 0 1
    outer loop
      vertex 5.89999 34 1.8
      vertex -8.5 36.4 1.8
      vertex -7.5 34 1.8
    endloop
  endfacet
  facet normal 0 0 1
    outer loop
      vertex 8.5 36.4 1.8
      vertex 7.5 9.89999 1.8
      vertex 8.5 -2.2 1.8
    endloop
  endfacet
  facet normal -0 0 1
    outer loop
      vertex 7.5 8.59999 1.8
      vertex 8.5 -2.2 1.8
      vertex 7.5 9.89999 1.8
    endloop
  endfacet
  facet normal -0 0 1
    outer loop
      vertex 7.5 5 1.8
      vertex 8.5 -2.2 1.8
      vertex 7.5 8.59999 1.8
    endloop
  endfacet
  facet normal 0 0 1
    outer loop
      vertex 7.04999 0 1.8
      vertex 7.5 5 1.8
      vertex 7.04999 5 1.8
    endloop
  endfacet
  facet normal 0 0 1
    outer loop
      vertex 7.5 5 1.8
      vertex 7.04999 0 1.8
      vertex 8.5 -2.2 1.8
    endloop
  endfacet
  facet normal 0 0 1
    outer loop
      vertex 6 -2.2 1.8
      vertex 7.04999 0 1.8
      vertex 6 0 1.8
    endloop
  endfacet
  facet normal 0 0 1
    outer loop
      vertex 7.04999 0 1.8
      vertex 6 -2.2 1.8
      vertex 8.5 -2.2 1.8
    endloop
  endfacet
  facet normal -0 0 1
    outer loop
      vertex -7.5 9.89999 1.8
      vertex -6.29999 9.89872 1.8
      vertex -6.29999 9.89999 1.8
    endloop
  endfacet
  facet normal 0 0 1
    outer loop
      vertex -6.29999 9.89872 1.8
      vertex -7.5 9.89999 1.8
      vertex -6.29999 8.60128 1.8
    endloop
  endfacet
  facet normal 0 0 1
    outer loop
      vertex -7.5 8.59999 1.8
      vertex -6.29999 8.60128 1.8
      vertex -7.5 9.89999 1.8
    endloop
  endfacet
  facet normal 0 0 1
    outer loop
      vertex -6.29999 8.60128 1.8
      vertex -7.5 8.59999 1.8
      vertex -6.29999 8.59999 1.8
    endloop
  endfacet
  facet normal 0 0 1
    outer loop
      vertex -5.65512 9.33147 1.8
      vertex -5.65512 9.16853 1.8
      vertex -5.65 9.25 1.8
    endloop
  endfacet
  facet normal 0 0 1
    outer loop
      vertex -5.67042 9.41165 1.8
      vertex -5.65512 9.16853 1.8
      vertex -5.65512 9.33147 1.8
    endloop
  endfacet
  facet normal 0 0 1
    outer loop
      vertex -5.67042 9.41165 1.8
      vertex -5.67042 9.08835 1.8
      vertex -5.65512 9.16853 1.8
    endloop
  endfacet
  facet normal 0 0 1
    outer loop
      vertex -5.69564 9.48928 1.8
      vertex -5.67042 9.08835 1.8
      vertex -5.67042 9.41165 1.8
    endloop
  endfacet
  facet normal 0 0 1
    outer loop
      vertex -5.69564 9.48928 1.8
      vertex -5.69564 9.01072 1.8
      vertex -5.67042 9.08835 1.8
    endloop
  endfacet
  facet normal 0 0 1
    outer loop
      vertex -5.7304 9.56314 1.8
      vertex -5.69564 9.01072 1.8
      vertex -5.69564 9.48928 1.8
    endloop
  endfacet
  facet normal 0 0 1
    outer loop
      vertex -5.7304 9.56314 1.8
      vertex -5.7304 8.93686 1.8
      vertex -5.69564 9.01072 1.8
    endloop
  endfacet
  facet normal 0 0 1
    outer loop
      vertex -5.77414 9.63206 1.8
      vertex -5.7304 8.93686 1.8
      vertex -5.7304 9.56314 1.8
    endloop
  endfacet
  facet normal 0 0 1
    outer loop
      vertex -5.77414 9.63206 1.8
      vertex -5.77414 8.86794 1.8
      vertex -5.7304 8.93686 1.8
    endloop
  endfacet
  facet normal 0 0 1
    outer loop
      vertex -5.82617 9.69495 1.8
      vertex -5.77414 8.86794 1.8
      vertex -5.77414 9.63206 1.8
    endloop
  endfacet
  facet normal 0 0 1
    outer loop
      vertex -5.82617 9.69495 1.8
      vertex -5.82617 8.80504 1.8
      vertex -5.77414 8.86794 1.8
    endloop
  endfacet
  facet normal 0 0 1
    outer loop
      vertex -5.88567 9.75083 1.8
      vertex -5.82617 8.80504 1.8
      vertex -5.82617 9.69495 1.8
    endloop
  endfacet
  facet normal 0 0 1
    outer loop
      vertex -5.88567 9.75083 1.8
      vertex -5.88567 8.74917 1.8
      vertex -5.82617 8.80504 1.8
    endloop
  endfacet
  facet normal 0 0 1
    outer loop
      vertex -5.95171 9.79881 1.8
      vertex -5.88567 8.74917 1.8
      vertex -5.88567 9.75083 1.8
    endloop
  endfacet
  facet normal 0 0 1
    outer loop
      vertex -5.95171 9.79881 1.8
      vertex -5.95171 8.70119 1.8
      vertex -5.88567 8.74917 1.8
    endloop
  endfacet
  facet normal 0 0 1
    outer loop
      vertex -6.02324 9.83814 1.8
      vertex -5.95171 8.70119 1.8
      vertex -5.95171 9.79881 1.8
    endloop
  endfacet
  facet normal 0 0 1
    outer loop
      vertex -6.02324 9.83814 1.8
      vertex -6.02324 8.66186 1.8
      vertex -5.95171 8.70119 1.8
    endloop
  endfacet
  facet normal 0 0 1
    outer loop
      vertex -6.09914 9.86819 1.8
      vertex -6.02324 8.66186 1.8
      vertex -6.02324 9.83814 1.8
    endloop
  endfacet
  facet normal 0 0 1
    outer loop
      vertex -6.09914 9.86819 1.8
      vertex -6.09914 8.63181 1.8
      vertex -6.02324 8.66186 1.8
    endloop
  endfacet
  facet normal 0 0 1
    outer loop
      vertex -6.29999 9.89872 1.8
      vertex -6.09914 9.86819 1.8
      vertex -6.1782 9.88849 1.8
    endloop
  endfacet
  facet normal 0 0 1
    outer loop
      vertex -6.09914 9.86819 1.8
      vertex -6.29999 9.89872 1.8
      vertex -6.09914 8.63181 1.8
    endloop
  endfacet
  facet normal -0 0 1
    outer loop
      vertex -6.29999 9.89872 1.8
      vertex -6.1782 9.88849 1.8
      vertex -6.25919 9.89872 1.8
    endloop
  endfacet
  facet normal 0 0 1
    outer loop
      vertex -6.29999 8.60128 1.8
      vertex -6.09914 8.63181 1.8
      vertex -6.29999 9.89872 1.8
    endloop
  endfacet
  facet normal 0 0 1
    outer loop
      vertex -6.09914 8.63181 1.8
      vertex -6.29999 8.60128 1.8
      vertex -6.1782 8.61151 1.8
    endloop
  endfacet
  facet normal 0 0 1
    outer loop
      vertex -6.1782 8.61151 1.8
      vertex -6.29999 8.60128 1.8
      vertex -6.25919 8.60128 1.8
    endloop
  endfacet
  facet normal 0 0 1
    outer loop
      vertex -7.04999 5 1.8
      vertex -7.5 5 1.8
      vertex -7.04999 0 1.8
    endloop
  endfacet
  facet normal -0 0 1
    outer loop
      vertex -7.04999 0 1.8
      vertex -6 -2.2 1.8
      vertex -6 0 1.8
    endloop
  endfacet
  facet normal 0 0 1
    outer loop
      vertex -7.04999 0 1.8
      vertex -8.5 -2.2 1.8
      vertex -6 -2.2 1.8
    endloop
  endfacet
  facet normal 0 0 1
    outer loop
      vertex -7.5 5 1.8
      vertex -8.5 -2.2 1.8
      vertex -7.04999 0 1.8
    endloop
  endfacet
  facet normal 0 0 1
    outer loop
      vertex -7.5 8.59999 1.8
      vertex -8.5 -2.2 1.8
      vertex -7.5 5 1.8
    endloop
  endfacet
  facet normal 0 0 1
    outer loop
      vertex -5.50513 32.7815 1.8
      vertex -5.50513 32.6185 1.8
      vertex -5.5 32.7 1.8
    endloop
  endfacet
  facet normal 0 0 1
    outer loop
      vertex -5.52042 32.8616 1.8
      vertex -5.50513 32.6185 1.8
      vertex -5.50513 32.7815 1.8
    endloop
  endfacet
  facet normal 0 0 1
    outer loop
      vertex -5.52042 32.8616 1.8
      vertex -5.52042 32.5384 1.8
      vertex -5.50513 32.6185 1.8
    endloop
  endfacet
  facet normal 0 0 1
    outer loop
      vertex -5.54564 32.9393 1.8
      vertex -5.52042 32.5384 1.8
      vertex -5.52042 32.8616 1.8
    endloop
  endfacet
  facet normal 0 0 1
    outer loop
      vertex -5.54564 32.9393 1.8
      vertex -5.54564 32.4607 1.8
      vertex -5.52042 32.5384 1.8
    endloop
  endfacet
  facet normal 0 0 1
    outer loop
      vertex -5.5804 33.0131 1.8
      vertex -5.54564 32.4607 1.8
      vertex -5.54564 32.9393 1.8
    endloop
  endfacet
  facet normal 0 0 1
    outer loop
      vertex -5.5804 33.0131 1.8
      vertex -5.5804 32.3869 1.8
      vertex -5.54564 32.4607 1.8
    endloop
  endfacet
  facet normal 0 0 1
    outer loop
      vertex -5.62414 33.0821 1.8
      vertex -5.5804 32.3869 1.8
      vertex -5.5804 33.0131 1.8
    endloop
  endfacet
  facet normal 0 0 1
    outer loop
      vertex -5.62414 33.0821 1.8
      vertex -5.62414 32.3179 1.8
      vertex -5.5804 32.3869 1.8
    endloop
  endfacet
  facet normal 0 0 1
    outer loop
      vertex -5.67617 33.145 1.8
      vertex -5.62414 32.3179 1.8
      vertex -5.62414 33.0821 1.8
    endloop
  endfacet
  facet normal 0 0 1
    outer loop
      vertex -5.67617 33.145 1.8
      vertex -5.67617 32.255 1.8
      vertex -5.62414 32.3179 1.8
    endloop
  endfacet
  facet normal 0 0 1
    outer loop
      vertex -5.73567 33.2008 1.8
      vertex -5.67617 32.255 1.8
      vertex -5.67617 33.145 1.8
    endloop
  endfacet
  facet normal 0 0 1
    outer loop
      vertex -5.73567 33.2008 1.8
      vertex -5.73567 32.1992 1.8
      vertex -5.67617 32.255 1.8
    endloop
  endfacet
  facet normal 0 0 1
    outer loop
      vertex -5.80171 33.2488 1.8
      vertex -5.73567 32.1992 1.8
      vertex -5.73567 33.2008 1.8
    endloop
  endfacet
  facet normal 0 0 1
    outer loop
      vertex -5.80171 33.2488 1.8
      vertex -5.80171 32.1512 1.8
      vertex -5.73567 32.1992 1.8
    endloop
  endfacet
  facet normal 0 0 1
    outer loop
      vertex -5.87324 33.2881 1.8
      vertex -5.80171 32.1512 1.8
      vertex -5.80171 33.2488 1.8
    endloop
  endfacet
  facet normal 0 0 1
    outer loop
      vertex -5.87324 33.2881 1.8
      vertex -5.87324 32.1119 1.8
      vertex -5.80171 32.1512 1.8
    endloop
  endfacet
  facet normal 0 0 1
    outer loop
      vertex -5.94914 33.3182 1.8
      vertex -5.87324 32.1119 1.8
      vertex -5.87324 33.2881 1.8
    endloop
  endfacet
  facet normal 0 0 1
    outer loop
      vertex -5.94914 33.3182 1.8
      vertex -5.94914 32.0818 1.8
      vertex -5.87324 32.1119 1.8
    endloop
  endfacet
  facet normal 0 0 1
    outer loop
      vertex -6.0282 33.3385 1.8
      vertex -5.94914 32.0818 1.8
      vertex -5.94914 33.3182 1.8
    endloop
  endfacet
  facet normal 0 0 1
    outer loop
      vertex -6.0282 33.3385 1.8
      vertex -6.0282 32.0615 1.8
      vertex -5.94914 32.0818 1.8
    endloop
  endfacet
  facet normal 0 0 1
    outer loop
      vertex -6.10919 33.3487 1.8
      vertex -6.0282 32.0615 1.8
      vertex -6.0282 33.3385 1.8
    endloop
  endfacet
  facet normal 0 0 1
    outer loop
      vertex -6.10919 33.3487 1.8
      vertex -6.10919 32.0513 1.8
      vertex -6.0282 32.0615 1.8
    endloop
  endfacet
  facet normal -0 0 1
    outer loop
      vertex -6.19081 33.3487 1.8
      vertex -6.10919 32.0513 1.8
      vertex -6.10919 33.3487 1.8
    endloop
  endfacet
  facet normal 0 0 1
    outer loop
      vertex -6.19081 33.3487 1.8
      vertex -6.19081 32.0513 1.8
      vertex -6.10919 32.0513 1.8
    endloop
  endfacet
  facet normal -0 0 1
    outer loop
      vertex -6.2718 33.3385 1.8
      vertex -6.19081 32.0513 1.8
      vertex -6.19081 33.3487 1.8
    endloop
  endfacet
  facet normal 0 0 1
    outer loop
      vertex -6.2718 33.3385 1.8
      vertex -6.2718 32.0615 1.8
      vertex -6.19081 32.0513 1.8
    endloop
  endfacet
  facet normal -0 0 1
    outer loop
      vertex -6.35086 33.3182 1.8
      vertex -6.2718 32.0615 1.8
      vertex -6.2718 33.3385 1.8
    endloop
  endfacet
  facet normal 0 0 1
    outer loop
      vertex -6.35086 33.3182 1.8
      vertex -6.35086 32.0818 1.8
      vertex -6.2718 32.0615 1.8
    endloop
  endfacet
  facet normal -0 0 1
    outer loop
      vertex -6.42676 33.2881 1.8
      vertex -6.35086 32.0818 1.8
      vertex -6.35086 33.3182 1.8
    endloop
  endfacet
  facet normal 0 0 1
    outer loop
      vertex -6.42676 33.2881 1.8
      vertex -6.42676 32.1119 1.8
      vertex -6.35086 32.0818 1.8
    endloop
  endfacet
  facet normal -0 0 1
    outer loop
      vertex -6.49829 33.2488 1.8
      vertex -6.42676 32.1119 1.8
      vertex -6.42676 33.2881 1.8
    endloop
  endfacet
  facet normal 0 0 1
    outer loop
      vertex -6.49829 33.2488 1.8
      vertex -6.49829 32.1512 1.8
      vertex -6.42676 32.1119 1.8
    endloop
  endfacet
  facet normal -0 0 1
    outer loop
      vertex -6.56433 33.2008 1.8
      vertex -6.49829 32.1512 1.8
      vertex -6.49829 33.2488 1.8
    endloop
  endfacet
  facet normal 0 0 1
    outer loop
      vertex -6.56433 33.2008 1.8
      vertex -6.56433 32.1992 1.8
      vertex -6.49829 32.1512 1.8
    endloop
  endfacet
  facet normal -0 0 1
    outer loop
      vertex -6.62383 33.145 1.8
      vertex -6.56433 32.1992 1.8
      vertex -6.56433 33.2008 1.8
    endloop
  endfacet
  facet normal 0 0 1
    outer loop
      vertex -6.62383 33.145 1.8
      vertex -6.62383 32.255 1.8
      vertex -6.56433 32.1992 1.8
    endloop
  endfacet
  facet normal -0 0 1
    outer loop
      vertex -6.67586 33.0821 1.8
      vertex -6.62383 32.255 1.8
      vertex -6.62383 33.145 1.8
    endloop
  endfacet
  facet normal 0 0 1
    outer loop
      vertex -6.67586 33.0821 1.8
      vertex -6.67586 32.3179 1.8
      vertex -6.62383 32.255 1.8
    endloop
  endfacet
  facet normal -0 0 1
    outer loop
      vertex -6.7196 33.0131 1.8
      vertex -6.67586 32.3179 1.8
      vertex -6.67586 33.0821 1.8
    endloop
  endfacet
  facet normal 0 0 1
    outer loop
      vertex -6.7196 33.0131 1.8
      vertex -6.7196 32.3869 1.8
      vertex -6.67586 32.3179 1.8
    endloop
  endfacet
  facet normal -0 0 1
    outer loop
      vertex -6.75435 32.9393 1.8
      vertex -6.7196 32.3869 1.8
      vertex -6.7196 33.0131 1.8
    endloop
  endfacet
  facet normal 0 0 1
    outer loop
      vertex -6.75435 32.9393 1.8
      vertex -6.75435 32.4607 1.8
      vertex -6.7196 32.3869 1.8
    endloop
  endfacet
  facet normal -0 0 1
    outer loop
      vertex -6.77958 32.8616 1.8
      vertex -6.75435 32.4607 1.8
      vertex -6.75435 32.9393 1.8
    endloop
  endfacet
  facet normal 0 0 1
    outer loop
      vertex -6.77958 32.8616 1.8
      vertex -6.77958 32.5384 1.8
      vertex -6.75435 32.4607 1.8
    endloop
  endfacet
  facet normal -0 0 1
    outer loop
      vertex -6.79487 32.7815 1.8
      vertex -6.77958 32.5384 1.8
      vertex -6.77958 32.8616 1.8
    endloop
  endfacet
  facet normal 0 0 1
    outer loop
      vertex -6.79487 32.7815 1.8
      vertex -6.79487 32.6185 1.8
      vertex -6.77958 32.5384 1.8
    endloop
  endfacet
  facet normal 0 -0 1
    outer loop
      vertex -6.79487 32.6185 1.8
      vertex -6.79487 32.7815 1.8
      vertex -6.8 32.7 1.8
    endloop
  endfacet
  facet normal 1 -0 0
    outer loop
      vertex 8.5 -2.2 1.8
      vertex 8.5 36.4 -0.95
      vertex 8.5 36.4 1.8
    endloop
  endfacet
  facet normal 1 0 0
    outer loop
      vertex 8.5 36.4 -0.95
      vertex 8.5 -2.2 1.8
      vertex 8.5 -2.2 -0.95
    endloop
  endfacet
  facet normal 0 1 -0
    outer loop
      vertex 8.5 36.4 -0.95
      vertex -8.5 36.4 1.8
      vertex 8.5 36.4 1.8
    endloop
  endfacet
  facet normal 0 1 0
    outer loop
      vertex -8.5 36.4 1.8
      vertex 8.5 36.4 -0.95
      vertex -8.5 36.4 -0.95
    endloop
  endfacet
  facet normal 0 0 -1
    outer loop
      vertex -8.5 -2.2 -0.95
      vertex 8.5 36.4 -0.95
      vertex 8.5 -2.2 -0.95
    endloop
  endfacet
  facet normal -0 0 -1
    outer loop
      vertex 8.5 36.4 -0.95
      vertex -8.5 -2.2 -0.95
      vertex -8.5 36.4 -0.95
    endloop
  endfacet
endsolid OpenSCAD_Model
