solid OpenSCAD_Model
  facet normal 0 1 -0
    outer loop
      vertex 7.5 97.9904 0
      vertex -7.5 97.9904 2.3
      vertex 7.5 97.9904 2.3
    endloop
  endfacet
  facet normal 0 1 0
    outer loop
      vertex -7.5 97.9904 2.3
      vertex 7.5 97.9904 0
      vertex -7.5 97.9904 0
    endloop
  endfacet
  facet normal 0.654654 -0.377965 0.654654
    outer loop
      vertex 15 0 2.3
      vertex 6.9 -11.9511 3.5
      vertex 7.5 -12.9904 2.3
    endloop
  endfacet
  facet normal 0.866025 -0.5 0
    outer loop
      vertex 7.5 -12.9904 2.3
      vertex 15 0 0
      vertex 15 0 2.3
    endloop
  endfacet
  facet normal 0.866025 -0.5 0
    outer loop
      vertex 15 0 0
      vertex 7.5 -12.9904 2.3
      vertex 7.5 -12.9904 0
    endloop
  endfacet
  facet normal 0 -0.755929 0.654653
    outer loop
      vertex -7.5 -12.9904 2.3
      vertex 6.9 -11.9511 3.5
      vertex -6.9 -11.9511 3.5
    endloop
  endfacet
  facet normal 0 -0.755929 0.654653
    outer loop
      vertex 6.9 -11.9511 3.5
      vertex -7.5 -12.9904 2.3
      vertex 7.5 -12.9904 2.3
    endloop
  endfacet
  facet normal -0.707107 0 0.707107
    outer loop
      vertex -15 85 2.3
      vertex -13.8 65.0671 3.5
      vertex -13.8 85 3.5
    endloop
  endfacet
  facet normal -0.707107 0 0.707107
    outer loop
      vertex -13.8 65.0671 3.5
      vertex -15 85 2.3
      vertex -15 64.0279 2.3
    endloop
  endfacet
  facet normal -0.707107 0 0.707107
    outer loop
      vertex -15 1.36122 2.3
      vertex -13.8 48.2662 3.5
      vertex -15 49.3055 2.3
    endloop
  endfacet
  facet normal -0.707107 0 0.707107
    outer loop
      vertex -13.8 48.2662 3.5
      vertex -15 1.36122 2.3
      vertex -13.8 1.36122 3.5
    endloop
  endfacet
  facet normal 0.654654 0.377965 0.654654
    outer loop
      vertex 7.5 97.9904 2.3
      vertex 6.9 96.9511 3.5
      vertex 15 85 2.3
    endloop
  endfacet
  facet normal 0.866025 0.5 0
    outer loop
      vertex 15 85 2.3
      vertex 7.5 97.9904 0
      vertex 7.5 97.9904 2.3
    endloop
  endfacet
  facet normal 0.866025 0.5 0
    outer loop
      vertex 7.5 97.9904 0
      vertex 15 85 2.3
      vertex 15 85 0
    endloop
  endfacet
  facet normal 0.654654 0.377964 0.654654
    outer loop
      vertex 15 85 2.3
      vertex 6.9 96.9511 3.5
      vertex 13.8 85 3.5
    endloop
  endfacet
  facet normal 0.654654 -0.377964 0.654654
    outer loop
      vertex 13.8 0 3.5
      vertex 6.9 -11.9511 3.5
      vertex 15 0 2.3
    endloop
  endfacet
  facet normal -0.654654 -0.377964 0.654654
    outer loop
      vertex -9.41795 -7.58993 3.5
      vertex -9.61938 -7.93883 3.09713
      vertex -6.9 -11.9511 3.5
    endloop
  endfacet
  facet normal -0.654654 0.377964 0.654654
    outer loop
      vertex -6.9 96.9511 3.5
      vertex -15 85 2.3
      vertex -13.8 85 3.5
    endloop
  endfacet
  facet normal -0 0 1
    outer loop
      vertex 8.2 42.5 3.5
      vertex 13.8 36.7338 3.5
      vertex 13.8 85 3.5
    endloop
  endfacet
  facet normal 0 0 1
    outer loop
      vertex 13.8 36.7338 3.5
      vertex 8.2 42.5 3.5
      vertex 9.15 36.7338 3.5
    endloop
  endfacet
  facet normal 0 0 1
    outer loop
      vertex 3.17543 85 3.5
      vertex 13.8 85 3.5
      vertex 6.9 96.9511 3.5
    endloop
  endfacet
  facet normal 0 0 1
    outer loop
      vertex 1.58771 82.25 3.5
      vertex 13.8 85 3.5
      vertex 3.17543 85 3.5
    endloop
  endfacet
  facet normal 0 0 1
    outer loop
      vertex 13.8 85 3.5
      vertex 4.1 49.6014 3.5
      vertex 8.2 42.5 3.5
    endloop
  endfacet
  facet normal 0 0 1
    outer loop
      vertex 6.9 96.9511 3.5
      vertex 1.58771 87.75 3.5
      vertex 3.17543 85 3.5
    endloop
  endfacet
  facet normal 0 0 1
    outer loop
      vertex 6.9 96.9511 3.5
      vertex -1.58771 87.75 3.5
      vertex 1.58771 87.75 3.5
    endloop
  endfacet
  facet normal 0 0 1
    outer loop
      vertex 4.1 49.6014 3.5
      vertex -4.3 56.6667 3.5
      vertex -4.1 49.6014 3.5
    endloop
  endfacet
  facet normal -0 0 1
    outer loop
      vertex -6.9 96.9511 3.5
      vertex -1.58771 87.75 3.5
      vertex 6.9 96.9511 3.5
    endloop
  endfacet
  facet normal 0 0 1
    outer loop
      vertex -6.9 96.9511 3.5
      vertex -3.17543 85 3.5
      vertex -1.58771 87.75 3.5
    endloop
  endfacet
  facet normal 0 0 1
    outer loop
      vertex -13.8 85 3.5
      vertex -3.17543 85 3.5
      vertex -6.9 96.9511 3.5
    endloop
  endfacet
  facet normal 0 0 1
    outer loop
      vertex -1.58771 82.25 3.5
      vertex -9.15 65.0671 3.5
      vertex -4.3 56.6667 3.5
    endloop
  endfacet
  facet normal 0 0 1
    outer loop
      vertex -1.58771 82.25 3.5
      vertex -13.8 85 3.5
      vertex -9.15 65.0671 3.5
    endloop
  endfacet
  facet normal 0 0 1
    outer loop
      vertex -9.15 65.0671 3.5
      vertex -13.8 85 3.5
      vertex -13.8 65.0671 3.5
    endloop
  endfacet
  facet normal 0 0 1
    outer loop
      vertex 4.1 35.3986 3.5
      vertex 9.15 36.7338 3.5
      vertex 8.2 42.5 3.5
    endloop
  endfacet
  facet normal 0 0 1
    outer loop
      vertex 9.15 36.7338 3.5
      vertex 4.1 35.3986 3.5
      vertex 4.3 28.3333 3.5
    endloop
  endfacet
  facet normal -0 0 1
    outer loop
      vertex 9.15 19.9329 3.5
      vertex 13.8 0 3.5
      vertex 13.8 19.9329 3.5
    endloop
  endfacet
  facet normal -0 0 1
    outer loop
      vertex 1.58771 2.75 3.5
      vertex 13.8 0 3.5
      vertex 9.15 19.9329 3.5
    endloop
  endfacet
  facet normal 0 0 1
    outer loop
      vertex -1.58771 2.75 3.5
      vertex 9.15 19.9329 3.5
      vertex 4.3 28.3333 3.5
    endloop
  endfacet
  facet normal -0 0 1
    outer loop
      vertex -4.1 35.3986 3.5
      vertex 4.3 28.3333 3.5
      vertex 4.1 35.3986 3.5
    endloop
  endfacet
  facet normal 0 0 1
    outer loop
      vertex 13.8 0 3.5
      vertex 3.17543 0 3.5
      vertex 6.9 -11.9511 3.5
    endloop
  endfacet
  facet normal -0 0 1
    outer loop
      vertex 1.58771 -2.75 3.5
      vertex 6.9 -11.9511 3.5
      vertex 3.17543 0 3.5
    endloop
  endfacet
  facet normal 0 0 1
    outer loop
      vertex -1.58771 -2.75 3.5
      vertex 6.9 -11.9511 3.5
      vertex 1.58771 -2.75 3.5
    endloop
  endfacet
  facet normal 0 0 1
    outer loop
      vertex -1.58771 -2.75 3.5
      vertex -6.9 -11.9511 3.5
      vertex 6.9 -11.9511 3.5
    endloop
  endfacet
  facet normal 0 0 1
    outer loop
      vertex -9.41795 -7.58993 3.5
      vertex -1.58771 -2.75 3.5
      vertex -3.17543 0 3.5
    endloop
  endfacet
  facet normal 0 0 1
    outer loop
      vertex -1.58771 2.75 3.5
      vertex -13.8 1.36122 3.5
      vertex -3.17543 0 3.5
    endloop
  endfacet
  facet normal 0 0 1
    outer loop
      vertex -13.8 1.36122 3.5
      vertex -4.1 35.3986 3.5
      vertex -8.2 42.5 3.5
    endloop
  endfacet
  facet normal -0 0 1
    outer loop
      vertex -13.8 48.2662 3.5
      vertex -8.2 42.5 3.5
      vertex -9.15 48.2662 3.5
    endloop
  endfacet
  facet normal 0 0 1
    outer loop
      vertex -1.58771 -2.75 3.5
      vertex -9.41795 -7.58993 3.5
      vertex -6.9 -11.9511 3.5
    endloop
  endfacet
  facet normal 0 -0 1
    outer loop
      vertex -12.5 -6 3.5
      vertex -3.17543 0 3.5
      vertex -13.8 1.36122 3.5
    endloop
  endfacet
  facet normal 0 0 1
    outer loop
      vertex -8.2 42.5 3.5
      vertex -13.8 48.2662 3.5
      vertex -13.8 1.36122 3.5
    endloop
  endfacet
  facet normal 0 0 1
    outer loop
      vertex -3.17543 0 3.5
      vertex -12.5 -6 3.5
      vertex -9.41795 -7.58993 3.5
    endloop
  endfacet
  facet normal 0 0 1
    outer loop
      vertex -13.8 1.36122 3.5
      vertex -14.75 -2.10289 3.5
      vertex -12.5 -6 3.5
    endloop
  endfacet
  facet normal 0 0 1
    outer loop
      vertex -13.8 1.36122 3.5
      vertex -19.25 -2.10289 3.5
      vertex -14.75 -2.10289 3.5
    endloop
  endfacet
  facet normal -0 0 1
    outer loop
      vertex -21.25 1.36122 3.5
      vertex -19.25 -2.10289 3.5
      vertex -13.8 1.36122 3.5
    endloop
  endfacet
  facet normal 0 0 1
    outer loop
      vertex -21.25 1.36122 3.5
      vertex -21.5 -6 3.5
      vertex -19.25 -2.10289 3.5
    endloop
  endfacet
  facet normal 0 -0 1
    outer loop
      vertex -21.5 -6 3.5
      vertex -21.25 1.36122 3.5
      vertex -25.5 -6 3.5
    endloop
  endfacet
  facet normal 0 0 1
    outer loop
      vertex -14.75 -9.89711 3.5
      vertex -9.41795 -7.58993 3.5
      vertex -12.5 -6 3.5
    endloop
  endfacet
  facet normal 0 0 1
    outer loop
      vertex -9.41795 -7.58993 3.5
      vertex -14.75 -9.89711 3.5
      vertex -12.75 -13.3612 3.5
    endloop
  endfacet
  facet normal -0 0 1
    outer loop
      vertex -19.25 -9.89711 3.5
      vertex -12.75 -13.3612 3.5
      vertex -14.75 -9.89711 3.5
    endloop
  endfacet
  facet normal 0 0 1
    outer loop
      vertex -19.25 -9.89711 3.5
      vertex -21.25 -13.3612 3.5
      vertex -12.75 -13.3612 3.5
    endloop
  endfacet
  facet normal 0 0 1
    outer loop
      vertex -21.5 -6 3.5
      vertex -21.25 -13.3612 3.5
      vertex -19.25 -9.89711 3.5
    endloop
  endfacet
  facet normal 0 0 1
    outer loop
      vertex -21.25 -13.3612 3.5
      vertex -21.5 -6 3.5
      vertex -25.5 -6 3.5
    endloop
  endfacet
  facet normal 0 0 1
    outer loop
      vertex -9.15 48.2662 3.5
      vertex -4.1 49.6014 3.5
      vertex -4.3 56.6667 3.5
    endloop
  endfacet
  facet normal 0 0 1
    outer loop
      vertex -4.1 49.6014 3.5
      vertex -9.15 48.2662 3.5
      vertex -8.2 42.5 3.5
    endloop
  endfacet
  facet normal 0 0 1
    outer loop
      vertex 13.8 0 3.5
      vertex 1.58771 2.75 3.5
      vertex 3.17543 0 3.5
    endloop
  endfacet
  facet normal 0 0 1
    outer loop
      vertex 9.15 19.9329 3.5
      vertex -1.58771 2.75 3.5
      vertex 1.58771 2.75 3.5
    endloop
  endfacet
  facet normal 0 0 1
    outer loop
      vertex -13.8 1.36122 3.5
      vertex 4.3 28.3333 3.5
      vertex -4.1 35.3986 3.5
    endloop
  endfacet
  facet normal 0 0 1
    outer loop
      vertex 4.3 28.3333 3.5
      vertex -13.8 1.36122 3.5
      vertex -1.58771 2.75 3.5
    endloop
  endfacet
  facet normal 0 0 1
    outer loop
      vertex 13.8 85 3.5
      vertex 1.58771 82.25 3.5
      vertex 4.1 49.6014 3.5
    endloop
  endfacet
  facet normal 0 0 1
    outer loop
      vertex -4.3 56.6667 3.5
      vertex 1.58771 82.25 3.5
      vertex -1.58771 82.25 3.5
    endloop
  endfacet
  facet normal -0 0 1
    outer loop
      vertex -13.8 85 3.5
      vertex -1.58771 82.25 3.5
      vertex -3.17543 85 3.5
    endloop
  endfacet
  facet normal 0 0 1
    outer loop
      vertex 1.58771 82.25 3.5
      vertex -4.3 56.6667 3.5
      vertex 4.1 49.6014 3.5
    endloop
  endfacet
  facet normal 0 0 -1
    outer loop
      vertex -19.25 -2.10289 0
      vertex -15 1.36122 0
      vertex -14.75 -2.10289 0
    endloop
  endfacet
  facet normal 0 0 -1
    outer loop
      vertex -19.25 -2.10289 0
      vertex -21.25 1.36122 0
      vertex -15 1.36122 0
    endloop
  endfacet
  facet normal 0 0 -1
    outer loop
      vertex -21.5 -6 0
      vertex -21.25 1.36122 0
      vertex -19.25 -2.10289 0
    endloop
  endfacet
  facet normal 0 0 -1
    outer loop
      vertex -21.25 1.36122 0
      vertex -21.5 -6 0
      vertex -25.5 -6 0
    endloop
  endfacet
  facet normal 0 0 -1
    outer loop
      vertex -14.75 -9.89711 0
      vertex -10.0179 -8.62916 0
      vertex -12.75 -13.3612 0
    endloop
  endfacet
  facet normal -0 0 -1
    outer loop
      vertex -10.0179 -8.62916 0
      vertex -14.75 -9.89711 0
      vertex -12.5 -6 0
    endloop
  endfacet
  facet normal 0 0 -1
    outer loop
      vertex -12.75 -13.3612 0
      vertex -19.25 -9.89711 0
      vertex -14.75 -9.89711 0
    endloop
  endfacet
  facet normal 0 0 -1
    outer loop
      vertex -21.25 -13.3612 0
      vertex -19.25 -9.89711 0
      vertex -12.75 -13.3612 0
    endloop
  endfacet
  facet normal 0 0 -1
    outer loop
      vertex -21.25 -13.3612 0
      vertex -21.5 -6 0
      vertex -19.25 -9.89711 0
    endloop
  endfacet
  facet normal -0 -0 -1
    outer loop
      vertex -21.5 -6 0
      vertex -21.25 -13.3612 0
      vertex -25.5 -6 0
    endloop
  endfacet
  facet normal 0 0 -1
    outer loop
      vertex -9.75 49.3055 0
      vertex -3.5 48.5622 0
      vertex -7 42.5 0
    endloop
  endfacet
  facet normal 0 0 -1
    outer loop
      vertex -3.5 48.5622 0
      vertex -9.75 49.3055 0
      vertex -5.5 56.6667 0
    endloop
  endfacet
  facet normal -0 0 -1
    outer loop
      vertex 5.5 28.3333 0
      vertex -15 1.36122 0
      vertex -3.5 36.4378 0
    endloop
  endfacet
  facet normal 0 0 -1
    outer loop
      vertex -15 49.3055 0
      vertex -3.5 36.4378 0
      vertex -15 1.36122 0
    endloop
  endfacet
  facet normal 0 0 -1
    outer loop
      vertex -15 1.36122 0
      vertex -10.0179 -8.62916 0
      vertex -12.5 -6 0
    endloop
  endfacet
  facet normal 0 0 -1
    outer loop
      vertex -15 1.36122 0
      vertex -12.5 -6 0
      vertex -14.75 -2.10289 0
    endloop
  endfacet
  facet normal 0 0 -1
    outer loop
      vertex -3.5 36.4378 0
      vertex -15 49.3055 0
      vertex -7 42.5 0
    endloop
  endfacet
  facet normal 0 0 -1
    outer loop
      vertex -7 42.5 0
      vertex -15 49.3055 0
      vertex -9.75 49.3055 0
    endloop
  endfacet
  facet normal -0 0 -1
    outer loop
      vertex 15 85 0
      vertex 1.42658 84.5365 0
      vertex 1.5 85 0
    endloop
  endfacet
  facet normal 0 0 -1
    outer loop
      vertex 15 85 0
      vertex 1.21352 84.1183 0
      vertex 1.42658 84.5365 0
    endloop
  endfacet
  facet normal 0 0 -1
    outer loop
      vertex 15 85 0
      vertex 0.881678 83.7865 0
      vertex 1.21352 84.1183 0
    endloop
  endfacet
  facet normal 0 0 -1
    outer loop
      vertex 15 85 0
      vertex -5.5 56.6667 0
      vertex 0.881678 83.7865 0
    endloop
  endfacet
  facet normal 0 0 -1
    outer loop
      vertex 0.881678 83.7865 0
      vertex -5.5 56.6667 0
      vertex 0.463525 83.5734 0
    endloop
  endfacet
  facet normal 0 0 -1
    outer loop
      vertex -9.75 64.0279 0
      vertex 0.463525 83.5734 0
      vertex -5.5 56.6667 0
    endloop
  endfacet
  facet normal 0 0 -1
    outer loop
      vertex 0.463525 83.5734 0
      vertex -9.75 64.0279 0
      vertex 0 83.5 0
    endloop
  endfacet
  facet normal -0 0 -1
    outer loop
      vertex 0 83.5 0
      vertex -9.75 64.0279 0
      vertex -0.463525 83.5734 0
    endloop
  endfacet
  facet normal -0 0 -1
    outer loop
      vertex -0.463525 83.5734 0
      vertex -9.75 64.0279 0
      vertex -0.881678 83.7865 0
    endloop
  endfacet
  facet normal 0 0 -1
    outer loop
      vertex -15 85 0
      vertex -0.881678 83.7865 0
      vertex -9.75 64.0279 0
    endloop
  endfacet
  facet normal 0 0 -1
    outer loop
      vertex -5.5 56.6667 0
      vertex 3.5 48.5622 0
      vertex -3.5 48.5622 0
    endloop
  endfacet
  facet normal 0 0 -1
    outer loop
      vertex 15 0 0
      vertex 9.75 20.9721 0
      vertex 15 20.9721 0
    endloop
  endfacet
  facet normal 0 0 -1
    outer loop
      vertex 1.21352 -0.881678 0
      vertex 15 0 0
      vertex 7.5 -12.9904 0
    endloop
  endfacet
  facet normal 0 0 -1
    outer loop
      vertex 1.42658 0.463525 0
      vertex 15 0 0
      vertex 1.5 0 0
    endloop
  endfacet
  facet normal 0 0 -1
    outer loop
      vertex 0.881678 1.21352 0
      vertex 15 0 0
      vertex 1.21352 0.881678 0
    endloop
  endfacet
  facet normal 0 0 -1
    outer loop
      vertex 1.21352 0.881678 0
      vertex 15 0 0
      vertex 1.42658 0.463525 0
    endloop
  endfacet
  facet normal -0 0 -1
    outer loop
      vertex 15 0 0
      vertex 1.42658 -0.463525 0
      vertex 1.5 0 0
    endloop
  endfacet
  facet normal 0 0 -1
    outer loop
      vertex 15 0 0
      vertex 1.21352 -0.881678 0
      vertex 1.42658 -0.463525 0
    endloop
  endfacet
  facet normal 0 0 -1
    outer loop
      vertex 7.5 -12.9904 0
      vertex 0.881678 -1.21352 0
      vertex 1.21352 -0.881678 0
    endloop
  endfacet
  facet normal 0 0 -1
    outer loop
      vertex 7.5 -12.9904 0
      vertex 0.463525 -1.42658 0
      vertex 0.881678 -1.21352 0
    endloop
  endfacet
  facet normal 0 0 -1
    outer loop
      vertex 7.5 -12.9904 0
      vertex 0 -1.5 0
      vertex 0.463525 -1.42658 0
    endloop
  endfacet
  facet normal 0 0 -1
    outer loop
      vertex -7.5 -12.9904 0
      vertex 0 -1.5 0
      vertex 7.5 -12.9904 0
    endloop
  endfacet
  facet normal -0 0 -1
    outer loop
      vertex 0 -1.5 0
      vertex -7.5 -12.9904 0
      vertex -0.463525 -1.42658 0
    endloop
  endfacet
  facet normal 0 0 -1
    outer loop
      vertex -10.0179 -8.62916 0
      vertex -0.463525 -1.42658 0
      vertex -7.5 -12.9904 0
    endloop
  endfacet
  facet normal 0 0 -1
    outer loop
      vertex -1.42658 0.463525 0
      vertex -15 1.36122 0
      vertex -1.21352 0.881678 0
    endloop
  endfacet
  facet normal 0 0 -1
    outer loop
      vertex -1.42658 -0.463525 0
      vertex -15 1.36122 0
      vertex -1.5 0 0
    endloop
  endfacet
  facet normal -0 0 -1
    outer loop
      vertex -1.21352 -0.881678 0
      vertex -10.0179 -8.62916 0
      vertex -1.42658 -0.463525 0
    endloop
  endfacet
  facet normal -0 0 -1
    outer loop
      vertex -0.881678 -1.21352 0
      vertex -10.0179 -8.62916 0
      vertex -1.21352 -0.881678 0
    endloop
  endfacet
  facet normal -0 0 -1
    outer loop
      vertex -0.463525 -1.42658 0
      vertex -10.0179 -8.62916 0
      vertex -0.881678 -1.21352 0
    endloop
  endfacet
  facet normal 0 0 -1
    outer loop
      vertex 7 42.5 0
      vertex 15 35.6945 0
      vertex 9.75 35.6945 0
    endloop
  endfacet
  facet normal 0 0 -1
    outer loop
      vertex 3.5 48.5622 0
      vertex 15 35.6945 0
      vertex 7 42.5 0
    endloop
  endfacet
  facet normal 0 0 -1
    outer loop
      vertex 15 35.6945 0
      vertex 3.5 48.5622 0
      vertex 15 85 0
    endloop
  endfacet
  facet normal 0 0 -1
    outer loop
      vertex 3.5 36.4378 0
      vertex 9.75 35.6945 0
      vertex 5.5 28.3333 0
    endloop
  endfacet
  facet normal 0 0 -1
    outer loop
      vertex 9.75 35.6945 0
      vertex 3.5 36.4378 0
      vertex 7 42.5 0
    endloop
  endfacet
  facet normal 0 0 -1
    outer loop
      vertex -5.5 56.6667 0
      vertex 15 85 0
      vertex 3.5 48.5622 0
    endloop
  endfacet
  facet normal 0 0 -1
    outer loop
      vertex 1.42658 85.4635 0
      vertex 15 85 0
      vertex 1.5 85 0
    endloop
  endfacet
  facet normal 0 0 -1
    outer loop
      vertex 1.21352 85.8817 0
      vertex 15 85 0
      vertex 1.42658 85.4635 0
    endloop
  endfacet
  facet normal 0 0 -1
    outer loop
      vertex 15 85 0
      vertex 1.21352 85.8817 0
      vertex 7.5 97.9904 0
    endloop
  endfacet
  facet normal 0 0 -1
    outer loop
      vertex 0.881678 86.2135 0
      vertex 7.5 97.9904 0
      vertex 1.21352 85.8817 0
    endloop
  endfacet
  facet normal 0 0 -1
    outer loop
      vertex 0.463525 86.4266 0
      vertex 7.5 97.9904 0
      vertex 0.881678 86.2135 0
    endloop
  endfacet
  facet normal 0 0 -1
    outer loop
      vertex 0 86.5 0
      vertex 7.5 97.9904 0
      vertex 0.463525 86.4266 0
    endloop
  endfacet
  facet normal 0 0 -1
    outer loop
      vertex -7.5 97.9904 0
      vertex 0 86.5 0
      vertex -0.463525 86.4266 0
    endloop
  endfacet
  facet normal 0 0 -1
    outer loop
      vertex -7.5 97.9904 0
      vertex -0.463525 86.4266 0
      vertex -0.881678 86.2135 0
    endloop
  endfacet
  facet normal 0 0 -1
    outer loop
      vertex -7.5 97.9904 0
      vertex -0.881678 86.2135 0
      vertex -1.21352 85.8817 0
    endloop
  endfacet
  facet normal 0 0 -1
    outer loop
      vertex -0.881678 83.7865 0
      vertex -15 85 0
      vertex -1.21352 84.1183 0
    endloop
  endfacet
  facet normal 0 0 -1
    outer loop
      vertex 0 86.5 0
      vertex -7.5 97.9904 0
      vertex 7.5 97.9904 0
    endloop
  endfacet
  facet normal 0 0 -1
    outer loop
      vertex -15 85 0
      vertex -1.21352 85.8817 0
      vertex -1.42658 85.4635 0
    endloop
  endfacet
  facet normal 0 0 -1
    outer loop
      vertex -15 85 0
      vertex -1.42658 85.4635 0
      vertex -1.5 85 0
    endloop
  endfacet
  facet normal 0 0 -1
    outer loop
      vertex -1.21352 84.1183 0
      vertex -15 85 0
      vertex -1.42658 84.5365 0
    endloop
  endfacet
  facet normal 0 0 -1
    outer loop
      vertex -1.42658 84.5365 0
      vertex -15 85 0
      vertex -1.5 85 0
    endloop
  endfacet
  facet normal 0 0 -1
    outer loop
      vertex -15 85 0
      vertex -9.75 64.0279 0
      vertex -15 64.0279 0
    endloop
  endfacet
  facet normal -0 0 -1
    outer loop
      vertex -1.21352 85.8817 0
      vertex -15 85 0
      vertex -7.5 97.9904 0
    endloop
  endfacet
  facet normal 0 0 -1
    outer loop
      vertex 15 0 0
      vertex 0.881678 1.21352 0
      vertex 9.75 20.9721 0
    endloop
  endfacet
  facet normal 0 0 -1
    outer loop
      vertex 0.463525 1.42658 0
      vertex 9.75 20.9721 0
      vertex 0.881678 1.21352 0
    endloop
  endfacet
  facet normal 0 0 -1
    outer loop
      vertex 0 1.5 0
      vertex 9.75 20.9721 0
      vertex 0.463525 1.42658 0
    endloop
  endfacet
  facet normal 0 0 -1
    outer loop
      vertex -0.463525 1.42658 0
      vertex 9.75 20.9721 0
      vertex 0 1.5 0
    endloop
  endfacet
  facet normal -0 0 -1
    outer loop
      vertex 9.75 20.9721 0
      vertex -0.463525 1.42658 0
      vertex 5.5 28.3333 0
    endloop
  endfacet
  facet normal 0 0 -1
    outer loop
      vertex -15 1.36122 0
      vertex -0.463525 1.42658 0
      vertex -0.881678 1.21352 0
    endloop
  endfacet
  facet normal -0 0 -1
    outer loop
      vertex -0.463525 1.42658 0
      vertex -15 1.36122 0
      vertex 5.5 28.3333 0
    endloop
  endfacet
  facet normal 0 0 -1
    outer loop
      vertex -15 1.36122 0
      vertex -0.881678 1.21352 0
      vertex -1.21352 0.881678 0
    endloop
  endfacet
  facet normal 0 0 -1
    outer loop
      vertex -1.5 0 0
      vertex -15 1.36122 0
      vertex -1.42658 0.463525 0
    endloop
  endfacet
  facet normal 0 0 -1
    outer loop
      vertex -15 1.36122 0
      vertex -1.42658 -0.463525 0
      vertex -10.0179 -8.62916 0
    endloop
  endfacet
  facet normal 0 0 -1
    outer loop
      vertex 5.5 28.3333 0
      vertex -3.5 36.4378 0
      vertex 3.5 36.4378 0
    endloop
  endfacet
  facet normal 0 -1 0
    outer loop
      vertex -7.5 -12.9904 0
      vertex 7.5 -12.9904 2.3
      vertex -7.5 -12.9904 2.3
    endloop
  endfacet
  facet normal 0 -1 -0
    outer loop
      vertex 7.5 -12.9904 2.3
      vertex -7.5 -12.9904 0
      vertex 7.5 -12.9904 0
    endloop
  endfacet
  facet normal 1 -0 0
    outer loop
      vertex 15 0 2.3
      vertex 15 20.9721 0
      vertex 15 20.9721 2.3
    endloop
  endfacet
  facet normal 1 0 0
    outer loop
      vertex 15 20.9721 0
      vertex 15 0 2.3
      vertex 15 0 0
    endloop
  endfacet
  facet normal 1 -0 0
    outer loop
      vertex 15 35.6945 2.3
      vertex 15 85 0
      vertex 15 85 2.3
    endloop
  endfacet
  facet normal 1 0 0
    outer loop
      vertex 15 85 0
      vertex 15 35.6945 2.3
      vertex 15 35.6945 0
    endloop
  endfacet
  facet normal 0.707107 0 0.707107
    outer loop
      vertex 15 0 2.3
      vertex 13.8 19.9329 3.5
      vertex 13.8 0 3.5
    endloop
  endfacet
  facet normal 0.707107 0 0.707107
    outer loop
      vertex 13.8 19.9329 3.5
      vertex 15 0 2.3
      vertex 15 20.9721 2.3
    endloop
  endfacet
  facet normal 0.707107 -0 0.707107
    outer loop
      vertex 13.8 36.7338 3.5
      vertex 15 85 2.3
      vertex 13.8 85 3.5
    endloop
  endfacet
  facet normal 0.707107 0 0.707107
    outer loop
      vertex 15 85 2.3
      vertex 13.8 36.7338 3.5
      vertex 15 35.6945 2.3
    endloop
  endfacet
  facet normal 0 0.755929 0.654653
    outer loop
      vertex 7.5 97.9904 2.3
      vertex -6.9 96.9511 3.5
      vertex 6.9 96.9511 3.5
    endloop
  endfacet
  facet normal 0 0.755929 0.654653
    outer loop
      vertex -6.9 96.9511 3.5
      vertex 7.5 97.9904 2.3
      vertex -7.5 97.9904 2.3
    endloop
  endfacet
  facet normal -1 0 0
    outer loop
      vertex -15 64.0279 0
      vertex -15 85 2.3
      vertex -15 85 0
    endloop
  endfacet
  facet normal -1 -0 0
    outer loop
      vertex -15 85 2.3
      vertex -15 64.0279 0
      vertex -15 64.0279 2.3
    endloop
  endfacet
  facet normal -1 0 0
    outer loop
      vertex -15 1.36122 0
      vertex -15 49.3055 2.3
      vertex -15 49.3055 0
    endloop
  endfacet
  facet normal -1 -0 0
    outer loop
      vertex -15 49.3055 2.3
      vertex -15 1.36122 0
      vertex -15 1.36122 2.3
    endloop
  endfacet
  facet normal -0.866025 -0.5 0
    outer loop
      vertex -7.5 -12.9904 0
      vertex -10.0179 -8.62916 2.3
      vertex -10.0179 -8.62916 0
    endloop
  endfacet
  facet normal -0.866025 -0.5 0
    outer loop
      vertex -10.0179 -8.62916 2.3
      vertex -7.5 -12.9904 0
      vertex -7.5 -12.9904 2.3
    endloop
  endfacet
  facet normal -0.654654 -0.377965 0.654654
    outer loop
      vertex -10.0179 -8.62916 2.3
      vertex -6.9 -11.9511 3.5
      vertex -9.61938 -7.93883 3.09713
    endloop
  endfacet
  facet normal -0.654654 -0.377965 0.654654
    outer loop
      vertex -6.9 -11.9511 3.5
      vertex -10.0179 -8.62916 2.3
      vertex -7.5 -12.9904 2.3
    endloop
  endfacet
  facet normal -0.654654 0.377965 0.654653
    outer loop
      vertex -7.5 97.9904 2.3
      vertex -15 85 2.3
      vertex -6.9 96.9511 3.5
    endloop
  endfacet
  facet normal -0.866025 0.5 0
    outer loop
      vertex -15 85 0
      vertex -7.5 97.9904 2.3
      vertex -7.5 97.9904 0
    endloop
  endfacet
  facet normal -0.866025 0.5 0
    outer loop
      vertex -7.5 97.9904 2.3
      vertex -15 85 0
      vertex -15 85 2.3
    endloop
  endfacet
  facet normal -0.866025 0.5 0
    outer loop
      vertex -25.5 -6 0
      vertex -21.25 1.36122 3.5
      vertex -21.25 1.36122 0
    endloop
  endfacet
  facet normal -0.866025 0.5 0
    outer loop
      vertex -21.25 1.36122 3.5
      vertex -25.5 -6 0
      vertex -25.5 -6 3.5
    endloop
  endfacet
  facet normal 0 1 -0
    outer loop
      vertex -15 1.36122 2.3
      vertex -21.25 1.36122 3.5
      vertex -13.8 1.36122 3.5
    endloop
  endfacet
  facet normal 0 1 0
    outer loop
      vertex -21.25 1.36122 0
      vertex -15 1.36122 2.3
      vertex -15 1.36122 0
    endloop
  endfacet
  facet normal 0 1 0
    outer loop
      vertex -15 1.36122 2.3
      vertex -21.25 1.36122 0
      vertex -21.25 1.36122 3.5
    endloop
  endfacet
  facet normal -0.866025 -0.5 0
    outer loop
      vertex -21.25 -13.3612 0
      vertex -25.5 -6 3.5
      vertex -25.5 -6 0
    endloop
  endfacet
  facet normal -0.866025 -0.5 0
    outer loop
      vertex -25.5 -6 3.5
      vertex -21.25 -13.3612 0
      vertex -21.25 -13.3612 3.5
    endloop
  endfacet
  facet normal 0.866025 -0.5 2.46895e-08
    outer loop
      vertex -12.75 -13.3612 3.5
      vertex -9.61938 -7.93883 3.09713
      vertex -9.41795 -7.58993 3.5
    endloop
  endfacet
  facet normal 0.866025 -0.5 -1.58858e-07
    outer loop
      vertex -12.75 -13.3612 3.5
      vertex -10.0179 -8.62916 2.3
      vertex -9.61938 -7.93883 3.09713
    endloop
  endfacet
  facet normal 0.866025 -0.5 0
    outer loop
      vertex -12.75 -13.3612 0
      vertex -10.0179 -8.62916 2.3
      vertex -12.75 -13.3612 3.5
    endloop
  endfacet
  facet normal 0.866025 -0.5 0
    outer loop
      vertex -10.0179 -8.62916 2.3
      vertex -12.75 -13.3612 0
      vertex -10.0179 -8.62916 0
    endloop
  endfacet
  facet normal 0 -1 0
    outer loop
      vertex -21.25 -13.3612 0
      vertex -12.75 -13.3612 3.5
      vertex -21.25 -13.3612 3.5
    endloop
  endfacet
  facet normal 0 -1 -0
    outer loop
      vertex -12.75 -13.3612 3.5
      vertex -21.25 -13.3612 0
      vertex -12.75 -13.3612 0
    endloop
  endfacet
  facet normal -0.866025 -0.5 0
    outer loop
      vertex 3.17543 85 1.2
      vertex 1.58771 87.75 3.5
      vertex 1.58771 87.75 1.2
    endloop
  endfacet
  facet normal -0.866025 -0.5 0
    outer loop
      vertex 1.58771 87.75 3.5
      vertex 3.17543 85 1.2
      vertex 3.17543 85 3.5
    endloop
  endfacet
  facet normal 0.866025 -0.5 0
    outer loop
      vertex -3.17543 85 3.5
      vertex -1.58771 87.75 1.2
      vertex -1.58771 87.75 3.5
    endloop
  endfacet
  facet normal 0.866025 -0.5 0
    outer loop
      vertex -1.58771 87.75 1.2
      vertex -3.17543 85 3.5
      vertex -3.17543 85 1.2
    endloop
  endfacet
  facet normal 0 -1 0
    outer loop
      vertex -1.58771 87.75 1.2
      vertex 1.58771 87.75 3.5
      vertex -1.58771 87.75 3.5
    endloop
  endfacet
  facet normal 0 -1 -0
    outer loop
      vertex 1.58771 87.75 3.5
      vertex -1.58771 87.75 1.2
      vertex 1.58771 87.75 1.2
    endloop
  endfacet
  facet normal -0 0 1
    outer loop
      vertex 1.21352 85.8817 1.2
      vertex 3.17543 85 1.2
      vertex 1.58771 87.75 1.2
    endloop
  endfacet
  facet normal 0 0 1
    outer loop
      vertex 1.42658 84.5365 1.2
      vertex 3.17543 85 1.2
      vertex 1.5 85 1.2
    endloop
  endfacet
  facet normal 0 0 1
    outer loop
      vertex 3.17543 85 1.2
      vertex 1.42658 85.4635 1.2
      vertex 1.5 85 1.2
    endloop
  endfacet
  facet normal 0 0 1
    outer loop
      vertex 3.17543 85 1.2
      vertex 1.21352 85.8817 1.2
      vertex 1.42658 85.4635 1.2
    endloop
  endfacet
  facet normal 0 0 1
    outer loop
      vertex 1.58771 87.75 1.2
      vertex 0.881678 86.2135 1.2
      vertex 1.21352 85.8817 1.2
    endloop
  endfacet
  facet normal 0 0 1
    outer loop
      vertex 1.58771 87.75 1.2
      vertex 0.463525 86.4266 1.2
      vertex 0.881678 86.2135 1.2
    endloop
  endfacet
  facet normal 0 0 1
    outer loop
      vertex 1.58771 87.75 1.2
      vertex 0 86.5 1.2
      vertex 0.463525 86.4266 1.2
    endloop
  endfacet
  facet normal -0 0 1
    outer loop
      vertex -1.58771 87.75 1.2
      vertex 0 86.5 1.2
      vertex 1.58771 87.75 1.2
    endloop
  endfacet
  facet normal 0 0 1
    outer loop
      vertex 0 86.5 1.2
      vertex -1.58771 87.75 1.2
      vertex -0.463525 86.4266 1.2
    endloop
  endfacet
  facet normal 0 0 1
    outer loop
      vertex -1.21352 85.8817 1.2
      vertex -3.17543 85 1.2
      vertex -1.42658 85.4635 1.2
    endloop
  endfacet
  facet normal 0 0 1
    outer loop
      vertex -3.17543 85 1.2
      vertex -1.21352 85.8817 1.2
      vertex -1.58771 87.75 1.2
    endloop
  endfacet
  facet normal 0 0 1
    outer loop
      vertex -0.881678 86.2135 1.2
      vertex -1.58771 87.75 1.2
      vertex -1.21352 85.8817 1.2
    endloop
  endfacet
  facet normal 0 0 1
    outer loop
      vertex -0.463525 86.4266 1.2
      vertex -1.58771 87.75 1.2
      vertex -0.881678 86.2135 1.2
    endloop
  endfacet
  facet normal 0 0 1
    outer loop
      vertex 1.21352 84.1183 1.2
      vertex 3.17543 85 1.2
      vertex 1.42658 84.5365 1.2
    endloop
  endfacet
  facet normal 0 0 1
    outer loop
      vertex 3.17543 85 1.2
      vertex 1.21352 84.1183 1.2
      vertex 1.58771 82.25 1.2
    endloop
  endfacet
  facet normal -0 0 1
    outer loop
      vertex 0.881678 83.7865 1.2
      vertex 1.58771 82.25 1.2
      vertex 1.21352 84.1183 1.2
    endloop
  endfacet
  facet normal -0 0 1
    outer loop
      vertex 0.463525 83.5734 1.2
      vertex 1.58771 82.25 1.2
      vertex 0.881678 83.7865 1.2
    endloop
  endfacet
  facet normal -0 0 1
    outer loop
      vertex 0 83.5 1.2
      vertex 1.58771 82.25 1.2
      vertex 0.463525 83.5734 1.2
    endloop
  endfacet
  facet normal 0 0 1
    outer loop
      vertex -1.58771 82.25 1.2
      vertex 0 83.5 1.2
      vertex -0.463525 83.5734 1.2
    endloop
  endfacet
  facet normal 0 0 1
    outer loop
      vertex -1.58771 82.25 1.2
      vertex -0.463525 83.5734 1.2
      vertex -0.881678 83.7865 1.2
    endloop
  endfacet
  facet normal 0 0 1
    outer loop
      vertex 0 83.5 1.2
      vertex -1.58771 82.25 1.2
      vertex 1.58771 82.25 1.2
    endloop
  endfacet
  facet normal 0 0 1
    outer loop
      vertex -1.21352 84.1183 1.2
      vertex -1.58771 82.25 1.2
      vertex -0.881678 83.7865 1.2
    endloop
  endfacet
  facet normal 0 0 1
    outer loop
      vertex -3.17543 85 1.2
      vertex -1.21352 84.1183 1.2
      vertex -1.42658 84.5365 1.2
    endloop
  endfacet
  facet normal -0 0 1
    outer loop
      vertex -3.17543 85 1.2
      vertex -1.42658 84.5365 1.2
      vertex -1.5 85 1.2
    endloop
  endfacet
  facet normal 0 0 1
    outer loop
      vertex -1.42658 85.4635 1.2
      vertex -3.17543 85 1.2
      vertex -1.5 85 1.2
    endloop
  endfacet
  facet normal 0 0 1
    outer loop
      vertex -1.21352 84.1183 1.2
      vertex -3.17543 85 1.2
      vertex -1.58771 82.25 1.2
    endloop
  endfacet
  facet normal -0.866025 0.5 0
    outer loop
      vertex 1.58771 82.25 1.2
      vertex 3.17543 85 3.5
      vertex 3.17543 85 1.2
    endloop
  endfacet
  facet normal -0.866025 0.5 0
    outer loop
      vertex 3.17543 85 3.5
      vertex 1.58771 82.25 1.2
      vertex 1.58771 82.25 3.5
    endloop
  endfacet
  facet normal 0.866025 0.5 0
    outer loop
      vertex -1.58771 82.25 3.5
      vertex -3.17543 85 1.2
      vertex -3.17543 85 3.5
    endloop
  endfacet
  facet normal 0.866025 0.5 0
    outer loop
      vertex -3.17543 85 1.2
      vertex -1.58771 82.25 3.5
      vertex -1.58771 82.25 1.2
    endloop
  endfacet
  facet normal 0 1 -0
    outer loop
      vertex 1.58771 82.25 1.2
      vertex -1.58771 82.25 3.5
      vertex 1.58771 82.25 3.5
    endloop
  endfacet
  facet normal 0 1 0
    outer loop
      vertex -1.58771 82.25 3.5
      vertex 1.58771 82.25 1.2
      vertex -1.58771 82.25 1.2
    endloop
  endfacet
  facet normal -0.866025 -0.5 0
    outer loop
      vertex 3.17543 0 1.2
      vertex 1.58771 2.75 3.5
      vertex 1.58771 2.75 1.2
    endloop
  endfacet
  facet normal -0.866025 -0.5 0
    outer loop
      vertex 1.58771 2.75 3.5
      vertex 3.17543 0 1.2
      vertex 3.17543 0 3.5
    endloop
  endfacet
  facet normal 0.866025 -0.5 0
    outer loop
      vertex -3.17543 0 3.5
      vertex -1.58771 2.75 1.2
      vertex -1.58771 2.75 3.5
    endloop
  endfacet
  facet normal 0.866025 -0.5 0
    outer loop
      vertex -1.58771 2.75 1.2
      vertex -3.17543 0 3.5
      vertex -3.17543 0 1.2
    endloop
  endfacet
  facet normal 0 -1 0
    outer loop
      vertex -1.58771 2.75 1.2
      vertex 1.58771 2.75 3.5
      vertex -1.58771 2.75 3.5
    endloop
  endfacet
  facet normal 0 -1 -0
    outer loop
      vertex 1.58771 2.75 3.5
      vertex -1.58771 2.75 1.2
      vertex 1.58771 2.75 1.2
    endloop
  endfacet
  facet normal -0 0 1
    outer loop
      vertex 1.21352 0.881678 1.2
      vertex 3.17543 0 1.2
      vertex 1.58771 2.75 1.2
    endloop
  endfacet
  facet normal 0 0 1
    outer loop
      vertex 1.42658 -0.463525 1.2
      vertex 3.17543 0 1.2
      vertex 1.5 0 1.2
    endloop
  endfacet
  facet normal 0 0 1
    outer loop
      vertex 3.17543 0 1.2
      vertex 1.42658 0.463525 1.2
      vertex 1.5 0 1.2
    endloop
  endfacet
  facet normal 0 0 1
    outer loop
      vertex 3.17543 0 1.2
      vertex 1.21352 0.881678 1.2
      vertex 1.42658 0.463525 1.2
    endloop
  endfacet
  facet normal 0 0 1
    outer loop
      vertex 1.58771 2.75 1.2
      vertex 0.881678 1.21352 1.2
      vertex 1.21352 0.881678 1.2
    endloop
  endfacet
  facet normal 0 0 1
    outer loop
      vertex 1.58771 2.75 1.2
      vertex 0.463525 1.42658 1.2
      vertex 0.881678 1.21352 1.2
    endloop
  endfacet
  facet normal 0 0 1
    outer loop
      vertex 1.58771 2.75 1.2
      vertex 0 1.5 1.2
      vertex 0.463525 1.42658 1.2
    endloop
  endfacet
  facet normal -0 0 1
    outer loop
      vertex -1.58771 2.75 1.2
      vertex 0 1.5 1.2
      vertex 1.58771 2.75 1.2
    endloop
  endfacet
  facet normal 0 0 1
    outer loop
      vertex 0 1.5 1.2
      vertex -1.58771 2.75 1.2
      vertex -0.463525 1.42658 1.2
    endloop
  endfacet
  facet normal 0 0 1
    outer loop
      vertex -1.21352 0.881678 1.2
      vertex -3.17543 0 1.2
      vertex -1.42658 0.463525 1.2
    endloop
  endfacet
  facet normal 0 0 1
    outer loop
      vertex -3.17543 0 1.2
      vertex -1.21352 0.881678 1.2
      vertex -1.58771 2.75 1.2
    endloop
  endfacet
  facet normal 0 0 1
    outer loop
      vertex -0.881678 1.21352 1.2
      vertex -1.58771 2.75 1.2
      vertex -1.21352 0.881678 1.2
    endloop
  endfacet
  facet normal 0 0 1
    outer loop
      vertex -0.463525 1.42658 1.2
      vertex -1.58771 2.75 1.2
      vertex -0.881678 1.21352 1.2
    endloop
  endfacet
  facet normal 0 0 1
    outer loop
      vertex 1.21352 -0.881678 1.2
      vertex 3.17543 0 1.2
      vertex 1.42658 -0.463525 1.2
    endloop
  endfacet
  facet normal 0 0 1
    outer loop
      vertex 3.17543 0 1.2
      vertex 1.21352 -0.881678 1.2
      vertex 1.58771 -2.75 1.2
    endloop
  endfacet
  facet normal -0 0 1
    outer loop
      vertex 0.881678 -1.21352 1.2
      vertex 1.58771 -2.75 1.2
      vertex 1.21352 -0.881678 1.2
    endloop
  endfacet
  facet normal -0 0 1
    outer loop
      vertex 0.463525 -1.42658 1.2
      vertex 1.58771 -2.75 1.2
      vertex 0.881678 -1.21352 1.2
    endloop
  endfacet
  facet normal -0 0 1
    outer loop
      vertex 0 -1.5 1.2
      vertex 1.58771 -2.75 1.2
      vertex 0.463525 -1.42658 1.2
    endloop
  endfacet
  facet normal 0 0 1
    outer loop
      vertex -1.58771 -2.75 1.2
      vertex 0 -1.5 1.2
      vertex -0.463525 -1.42658 1.2
    endloop
  endfacet
  facet normal 0 0 1
    outer loop
      vertex -1.58771 -2.75 1.2
      vertex -0.463525 -1.42658 1.2
      vertex -0.881678 -1.21352 1.2
    endloop
  endfacet
  facet normal 0 0 1
    outer loop
      vertex 0 -1.5 1.2
      vertex -1.58771 -2.75 1.2
      vertex 1.58771 -2.75 1.2
    endloop
  endfacet
  facet normal 0 0 1
    outer loop
      vertex -1.21352 -0.881678 1.2
      vertex -1.58771 -2.75 1.2
      vertex -0.881678 -1.21352 1.2
    endloop
  endfacet
  facet normal 0 0 1
    outer loop
      vertex -3.17543 0 1.2
      vertex -1.21352 -0.881678 1.2
      vertex -1.42658 -0.463525 1.2
    endloop
  endfacet
  facet normal -0 0 1
    outer loop
      vertex -3.17543 0 1.2
      vertex -1.42658 -0.463525 1.2
      vertex -1.5 0 1.2
    endloop
  endfacet
  facet normal 0 0 1
    outer loop
      vertex -1.42658 0.463525 1.2
      vertex -3.17543 0 1.2
      vertex -1.5 0 1.2
    endloop
  endfacet
  facet normal 0 0 1
    outer loop
      vertex -1.21352 -0.881678 1.2
      vertex -3.17543 0 1.2
      vertex -1.58771 -2.75 1.2
    endloop
  endfacet
  facet normal -0.866025 0.5 0
    outer loop
      vertex 1.58771 -2.75 1.2
      vertex 3.17543 0 3.5
      vertex 3.17543 0 1.2
    endloop
  endfacet
  facet normal -0.866025 0.5 0
    outer loop
      vertex 3.17543 0 3.5
      vertex 1.58771 -2.75 1.2
      vertex 1.58771 -2.75 3.5
    endloop
  endfacet
  facet normal 0.866025 0.5 0
    outer loop
      vertex -1.58771 -2.75 3.5
      vertex -3.17543 0 1.2
      vertex -3.17543 0 3.5
    endloop
  endfacet
  facet normal 0.866025 0.5 0
    outer loop
      vertex -3.17543 0 1.2
      vertex -1.58771 -2.75 3.5
      vertex -1.58771 -2.75 1.2
    endloop
  endfacet
  facet normal 3.0033e-07 1 -0
    outer loop
      vertex 1.58771 -2.75 1.2
      vertex -1.58771 -2.75 3.5
      vertex 1.58771 -2.75 3.5
    endloop
  endfacet
  facet normal 3.0033e-07 1 0
    outer loop
      vertex -1.58771 -2.75 3.5
      vertex 1.58771 -2.75 1.2
      vertex -1.58771 -2.75 1.2
    endloop
  endfacet
  facet normal -0.866025 -0.5 0
    outer loop
      vertex -12.5 -6 0
      vertex -14.75 -2.10289 3.5
      vertex -14.75 -2.10289 0
    endloop
  endfacet
  facet normal -0.866025 -0.5 0
    outer loop
      vertex -14.75 -2.10289 3.5
      vertex -12.5 -6 0
      vertex -12.5 -6 3.5
    endloop
  endfacet
  facet normal 0.866025 -0.5 0
    outer loop
      vertex -21.5 -6 3.5
      vertex -19.25 -2.10289 0
      vertex -19.25 -2.10289 3.5
    endloop
  endfacet
  facet normal 0.866025 -0.5 0
    outer loop
      vertex -19.25 -2.10289 0
      vertex -21.5 -6 3.5
      vertex -21.5 -6 0
    endloop
  endfacet
  facet normal 0 -1 0
    outer loop
      vertex -19.25 -2.10289 0
      vertex -14.75 -2.10289 3.5
      vertex -19.25 -2.10289 3.5
    endloop
  endfacet
  facet normal 0 -1 -0
    outer loop
      vertex -14.75 -2.10289 3.5
      vertex -19.25 -2.10289 0
      vertex -14.75 -2.10289 0
    endloop
  endfacet
  facet normal 0.866025 0.5 0
    outer loop
      vertex -19.25 -9.89711 3.5
      vertex -21.5 -6 0
      vertex -21.5 -6 3.5
    endloop
  endfacet
  facet normal 0.866025 0.5 0
    outer loop
      vertex -21.5 -6 0
      vertex -19.25 -9.89711 3.5
      vertex -19.25 -9.89711 0
    endloop
  endfacet
  facet normal -0.866025 0.5 0
    outer loop
      vertex -14.75 -9.89711 0
      vertex -12.5 -6 3.5
      vertex -12.5 -6 0
    endloop
  endfacet
  facet normal -0.866025 0.5 0
    outer loop
      vertex -12.5 -6 3.5
      vertex -14.75 -9.89711 0
      vertex -14.75 -9.89711 3.5
    endloop
  endfacet
  facet normal 0 1 -0
    outer loop
      vertex -14.75 -9.89711 0
      vertex -19.25 -9.89711 3.5
      vertex -14.75 -9.89711 3.5
    endloop
  endfacet
  facet normal 0 1 0
    outer loop
      vertex -19.25 -9.89711 3.5
      vertex -14.75 -9.89711 0
      vertex -19.25 -9.89711 0
    endloop
  endfacet
  facet normal -0.866026 -0.5 0
    outer loop
      vertex -5.5 56.6667 0
      vertex -9.75 64.0279 2.3
      vertex -9.75 64.0279 0
    endloop
  endfacet
  facet normal -0.866026 -0.5 0
    outer loop
      vertex -9.75 64.0279 2.3
      vertex -5.5 56.6667 0
      vertex -5.5 56.6667 2.3
    endloop
  endfacet
  facet normal 0 -1 0
    outer loop
      vertex -15 64.0279 0
      vertex -9.75 64.0279 2.3
      vertex -15 64.0279 2.3
    endloop
  endfacet
  facet normal 0 -1 -0
    outer loop
      vertex -9.75 64.0279 2.3
      vertex -15 64.0279 0
      vertex -9.75 64.0279 0
    endloop
  endfacet
  facet normal 0 1 -0
    outer loop
      vertex -9.75 49.3055 0
      vertex -15 49.3055 2.3
      vertex -9.75 49.3055 2.3
    endloop
  endfacet
  facet normal 0 1 0
    outer loop
      vertex -15 49.3055 2.3
      vertex -9.75 49.3055 0
      vertex -15 49.3055 0
    endloop
  endfacet
  facet normal -0.866025 0.5 0
    outer loop
      vertex -9.75 49.3055 0
      vertex -5.5 56.6667 2.3
      vertex -5.5 56.6667 0
    endloop
  endfacet
  facet normal -0.866025 0.5 0
    outer loop
      vertex -5.5 56.6667 2.3
      vertex -9.75 49.3055 0
      vertex -9.75 49.3055 2.3
    endloop
  endfacet
  facet normal 0.866025 0.5 0
    outer loop
      vertex 9.75 20.9721 2.3
      vertex 5.5 28.3333 0
      vertex 5.5 28.3333 2.3
    endloop
  endfacet
  facet normal 0.866025 0.5 0
    outer loop
      vertex 5.5 28.3333 0
      vertex 9.75 20.9721 2.3
      vertex 9.75 20.9721 0
    endloop
  endfacet
  facet normal 0 -1 0
    outer loop
      vertex 9.75 35.6945 0
      vertex 15 35.6945 2.3
      vertex 9.75 35.6945 2.3
    endloop
  endfacet
  facet normal 0 -1 -0
    outer loop
      vertex 15 35.6945 2.3
      vertex 9.75 35.6945 0
      vertex 15 35.6945 0
    endloop
  endfacet
  facet normal 0 1 -0
    outer loop
      vertex 15 20.9721 0
      vertex 9.75 20.9721 2.3
      vertex 15 20.9721 2.3
    endloop
  endfacet
  facet normal 0 1 0
    outer loop
      vertex 9.75 20.9721 2.3
      vertex 15 20.9721 0
      vertex 9.75 20.9721 0
    endloop
  endfacet
  facet normal 0.866025 -0.5 0
    outer loop
      vertex 5.5 28.3333 2.3
      vertex 9.75 35.6945 0
      vertex 9.75 35.6945 2.3
    endloop
  endfacet
  facet normal 0.866025 -0.5 0
    outer loop
      vertex 9.75 35.6945 0
      vertex 5.5 28.3333 2.3
      vertex 5.5 28.3333 0
    endloop
  endfacet
  facet normal -0.866025 -0.5 0
    outer loop
      vertex 7 42.5 0
      vertex 3.5 48.5622 2.3
      vertex 3.5 48.5622 0
    endloop
  endfacet
  facet normal -0.866025 -0.5 0
    outer loop
      vertex 3.5 48.5622 2.3
      vertex 7 42.5 0
      vertex 7 42.5 2.3
    endloop
  endfacet
  facet normal 0 1 -0
    outer loop
      vertex 3.5 36.4378 0
      vertex -3.5 36.4378 2.3
      vertex 3.5 36.4378 2.3
    endloop
  endfacet
  facet normal 0 1 0
    outer loop
      vertex -3.5 36.4378 2.3
      vertex 3.5 36.4378 0
      vertex -3.5 36.4378 0
    endloop
  endfacet
  facet normal 0.866025 -0.5 0
    outer loop
      vertex -7 42.5 2.3
      vertex -3.5 48.5622 0
      vertex -3.5 48.5622 2.3
    endloop
  endfacet
  facet normal 0.866025 -0.5 0
    outer loop
      vertex -3.5 48.5622 0
      vertex -7 42.5 2.3
      vertex -7 42.5 0
    endloop
  endfacet
  facet normal 0 -1 0
    outer loop
      vertex -3.5 48.5622 0
      vertex 3.5 48.5622 2.3
      vertex -3.5 48.5622 2.3
    endloop
  endfacet
  facet normal 0 -1 -0
    outer loop
      vertex 3.5 48.5622 2.3
      vertex -3.5 48.5622 0
      vertex 3.5 48.5622 0
    endloop
  endfacet
  facet normal 0.866025 0.5 0
    outer loop
      vertex -3.5 36.4378 2.3
      vertex -7 42.5 0
      vertex -7 42.5 2.3
    endloop
  endfacet
  facet normal 0.866025 0.5 0
    outer loop
      vertex -7 42.5 0
      vertex -3.5 36.4378 2.3
      vertex -3.5 36.4378 0
    endloop
  endfacet
  facet normal -0.866025 0.5 0
    outer loop
      vertex 3.5 36.4378 0
      vertex 7 42.5 2.3
      vertex 7 42.5 0
    endloop
  endfacet
  facet normal -0.866025 0.5 0
    outer loop
      vertex 7 42.5 2.3
      vertex 3.5 36.4378 0
      vertex 3.5 36.4378 2.3
    endloop
  endfacet
  facet normal -0.654654 0.377965 0.654654
    outer loop
      vertex -9.15 48.2662 3.5
      vertex -4.3 56.6667 3.5
      vertex -9.75 49.3055 2.3
    endloop
  endfacet
  facet normal -0.654654 0.377965 0.654654
    outer loop
      vertex -4.3 56.6667 3.5
      vertex -5.5 56.6667 2.3
      vertex -9.75 49.3055 2.3
    endloop
  endfacet
  facet normal -0.654654 -0.377964 0.654654
    outer loop
      vertex -5.5 56.6667 2.3
      vertex -4.3 56.6667 3.5
      vertex -9.75 64.0279 2.3
    endloop
  endfacet
  facet normal 0 0.755929 0.654653
    outer loop
      vertex -9.75 49.3055 2.3
      vertex -13.8 48.2662 3.5
      vertex -9.15 48.2662 3.5
    endloop
  endfacet
  facet normal 0 0.755929 0.654653
    outer loop
      vertex -13.8 48.2662 3.5
      vertex -9.75 49.3055 2.3
      vertex -15 49.3055 2.3
    endloop
  endfacet
  facet normal -0.654654 -0.377964 0.654653
    outer loop
      vertex -4.3 56.6667 3.5
      vertex -9.15 65.0671 3.5
      vertex -9.75 64.0279 2.3
    endloop
  endfacet
  facet normal 0 -0.755929 0.654653
    outer loop
      vertex -9.75 64.0279 2.3
      vertex -13.8 65.0671 3.5
      vertex -15 64.0279 2.3
    endloop
  endfacet
  facet normal 0 -0.755929 0.654653
    outer loop
      vertex -13.8 65.0671 3.5
      vertex -9.75 64.0279 2.3
      vertex -9.15 65.0671 3.5
    endloop
  endfacet
  facet normal 0 -0.755929 0.654653
    outer loop
      vertex 9.75 35.6945 2.3
      vertex 13.8 36.7338 3.5
      vertex 9.15 36.7338 3.5
    endloop
  endfacet
  facet normal 0 -0.755929 0.654653
    outer loop
      vertex 13.8 36.7338 3.5
      vertex 9.75 35.6945 2.3
      vertex 15 35.6945 2.3
    endloop
  endfacet
  facet normal 0.654654 0.377965 0.654653
    outer loop
      vertex 9.15 19.9329 3.5
      vertex 9.75 20.9721 2.3
      vertex 4.3 28.3333 3.5
    endloop
  endfacet
  facet normal 0.654654 0.377964 0.654654
    outer loop
      vertex 9.75 20.9721 2.3
      vertex 5.5 28.3333 2.3
      vertex 4.3 28.3333 3.5
    endloop
  endfacet
  facet normal -0 0.755929 0.654653
    outer loop
      vertex 9.75 20.9721 2.3
      vertex 13.8 19.9329 3.5
      vertex 15 20.9721 2.3
    endloop
  endfacet
  facet normal 0 0.755929 0.654653
    outer loop
      vertex 13.8 19.9329 3.5
      vertex 9.75 20.9721 2.3
      vertex 9.15 19.9329 3.5
    endloop
  endfacet
  facet normal 0.654654 -0.377964 0.654654
    outer loop
      vertex 5.5 28.3333 2.3
      vertex 9.75 35.6945 2.3
      vertex 4.3 28.3333 3.5
    endloop
  endfacet
  facet normal 0.654654 -0.377965 0.654654
    outer loop
      vertex 9.75 35.6945 2.3
      vertex 9.15 36.7338 3.5
      vertex 4.3 28.3333 3.5
    endloop
  endfacet
  facet normal 0.654654 -0.377965 0.654653
    outer loop
      vertex -7 42.5 2.3
      vertex -4.1 49.6014 3.5
      vertex -8.2 42.5 3.5
    endloop
  endfacet
  facet normal -0.654654 -0.377965 0.654653
    outer loop
      vertex 8.2 42.5 3.5
      vertex 4.1 49.6014 3.5
      vertex 3.5 48.5622 2.3
    endloop
  endfacet
  facet normal 0.654654 0.377965 0.654653
    outer loop
      vertex -3.5 36.4378 2.3
      vertex -7 42.5 2.3
      vertex -8.2 42.5 3.5
    endloop
  endfacet
  facet normal -0.654654 -0.377965 0.654653
    outer loop
      vertex 7 42.5 2.3
      vertex 8.2 42.5 3.5
      vertex 3.5 48.5622 2.3
    endloop
  endfacet
  facet normal 0.654654 -0.377965 0.654654
    outer loop
      vertex -3.5 48.5622 2.3
      vertex -4.1 49.6014 3.5
      vertex -7 42.5 2.3
    endloop
  endfacet
  facet normal 0 -0.755929 0.654653
    outer loop
      vertex -3.5 48.5622 2.3
      vertex 4.1 49.6014 3.5
      vertex -4.1 49.6014 3.5
    endloop
  endfacet
  facet normal 0 -0.755929 0.654653
    outer loop
      vertex 4.1 49.6014 3.5
      vertex -3.5 48.5622 2.3
      vertex 3.5 48.5622 2.3
    endloop
  endfacet
  facet normal -0.654654 0.377965 0.654653
    outer loop
      vertex 4.1 35.3986 3.5
      vertex 8.2 42.5 3.5
      vertex 3.5 36.4378 2.3
    endloop
  endfacet
  facet normal -0.654654 0.377965 0.654653
    outer loop
      vertex 8.2 42.5 3.5
      vertex 7 42.5 2.3
      vertex 3.5 36.4378 2.3
    endloop
  endfacet
  facet normal 0.654654 0.377965 0.654653
    outer loop
      vertex -4.1 35.3986 3.5
      vertex -3.5 36.4378 2.3
      vertex -8.2 42.5 3.5
    endloop
  endfacet
  facet normal 0 0.755929 0.654653
    outer loop
      vertex 3.5 36.4378 2.3
      vertex -4.1 35.3986 3.5
      vertex 4.1 35.3986 3.5
    endloop
  endfacet
  facet normal 0 0.755929 0.654653
    outer loop
      vertex -4.1 35.3986 3.5
      vertex 3.5 36.4378 2.3
      vertex -3.5 36.4378 2.3
    endloop
  endfacet
  facet normal -0.987688 -0.156436 0
    outer loop
      vertex 1.5 0 0
      vertex 1.42658 0.463525 1.2
      vertex 1.42658 0.463525 0
    endloop
  endfacet
  facet normal -0.987688 -0.156436 0
    outer loop
      vertex 1.42658 0.463525 1.2
      vertex 1.5 0 0
      vertex 1.5 0 1.2
    endloop
  endfacet
  facet normal 0.987688 -0.156436 0
    outer loop
      vertex -1.5 0 1.2
      vertex -1.42658 0.463525 0
      vertex -1.42658 0.463525 1.2
    endloop
  endfacet
  facet normal 0.987688 -0.156436 0
    outer loop
      vertex -1.42658 0.463525 0
      vertex -1.5 0 1.2
      vertex -1.5 0 0
    endloop
  endfacet
  facet normal -0.156436 -0.987688 0
    outer loop
      vertex 0 1.5 0
      vertex 0.463525 1.42658 1.2
      vertex 0 1.5 1.2
    endloop
  endfacet
  facet normal -0.156436 -0.987688 -0
    outer loop
      vertex 0.463525 1.42658 1.2
      vertex 0 1.5 0
      vertex 0.463525 1.42658 0
    endloop
  endfacet
  facet normal 0.156436 0.987688 -0
    outer loop
      vertex 0 -1.5 0
      vertex -0.463525 -1.42658 1.2
      vertex 0 -1.5 1.2
    endloop
  endfacet
  facet normal 0.156436 0.987688 0
    outer loop
      vertex -0.463525 -1.42658 1.2
      vertex 0 -1.5 0
      vertex -0.463525 -1.42658 0
    endloop
  endfacet
  facet normal -0.707107 -0.707107 0
    outer loop
      vertex 1.21352 0.881678 0
      vertex 0.881678 1.21352 1.2
      vertex 0.881678 1.21352 0
    endloop
  endfacet
  facet normal -0.707107 -0.707107 0
    outer loop
      vertex 0.881678 1.21352 1.2
      vertex 1.21352 0.881678 0
      vertex 1.21352 0.881678 1.2
    endloop
  endfacet
  facet normal -0.891007 -0.45399 0
    outer loop
      vertex 1.42658 0.463525 0
      vertex 1.21352 0.881678 1.2
      vertex 1.21352 0.881678 0
    endloop
  endfacet
  facet normal -0.891007 -0.45399 0
    outer loop
      vertex 1.21352 0.881678 1.2
      vertex 1.42658 0.463525 0
      vertex 1.42658 0.463525 1.2
    endloop
  endfacet
  facet normal -0.45399 -0.891007 0
    outer loop
      vertex 0.463525 1.42658 0
      vertex 0.881678 1.21352 1.2
      vertex 0.463525 1.42658 1.2
    endloop
  endfacet
  facet normal -0.45399 -0.891007 -0
    outer loop
      vertex 0.881678 1.21352 1.2
      vertex 0.463525 1.42658 0
      vertex 0.881678 1.21352 0
    endloop
  endfacet
  facet normal 0.45399 -0.891007 0
    outer loop
      vertex -0.881678 1.21352 0
      vertex -0.463525 1.42658 1.2
      vertex -0.881678 1.21352 1.2
    endloop
  endfacet
  facet normal 0.45399 -0.891007 0
    outer loop
      vertex -0.463525 1.42658 1.2
      vertex -0.881678 1.21352 0
      vertex -0.463525 1.42658 0
    endloop
  endfacet
  facet normal 0.707107 -0.707107 0
    outer loop
      vertex -1.21352 0.881678 1.2
      vertex -0.881678 1.21352 0
      vertex -0.881678 1.21352 1.2
    endloop
  endfacet
  facet normal 0.707107 -0.707107 0
    outer loop
      vertex -0.881678 1.21352 0
      vertex -1.21352 0.881678 1.2
      vertex -1.21352 0.881678 0
    endloop
  endfacet
  facet normal 0.156436 -0.987688 0
    outer loop
      vertex -0.463525 1.42658 0
      vertex 0 1.5 1.2
      vertex -0.463525 1.42658 1.2
    endloop
  endfacet
  facet normal 0.156436 -0.987688 0
    outer loop
      vertex 0 1.5 1.2
      vertex -0.463525 1.42658 0
      vertex 0 1.5 0
    endloop
  endfacet
  facet normal -0.891007 0.45399 0
    outer loop
      vertex 1.21352 -0.881678 0
      vertex 1.42658 -0.463525 1.2
      vertex 1.42658 -0.463525 0
    endloop
  endfacet
  facet normal -0.891007 0.45399 0
    outer loop
      vertex 1.42658 -0.463525 1.2
      vertex 1.21352 -0.881678 0
      vertex 1.21352 -0.881678 1.2
    endloop
  endfacet
  facet normal 0.707107 0.707107 0
    outer loop
      vertex -0.881678 -1.21352 1.2
      vertex -1.21352 -0.881678 0
      vertex -1.21352 -0.881678 1.2
    endloop
  endfacet
  facet normal 0.707107 0.707107 0
    outer loop
      vertex -1.21352 -0.881678 0
      vertex -0.881678 -1.21352 1.2
      vertex -0.881678 -1.21352 0
    endloop
  endfacet
  facet normal 0.987688 0.156436 0
    outer loop
      vertex -1.42658 -0.463525 1.2
      vertex -1.5 0 0
      vertex -1.5 0 1.2
    endloop
  endfacet
  facet normal 0.987688 0.156436 0
    outer loop
      vertex -1.5 0 0
      vertex -1.42658 -0.463525 1.2
      vertex -1.42658 -0.463525 0
    endloop
  endfacet
  facet normal 0.891007 -0.45399 0
    outer loop
      vertex -1.42658 0.463525 1.2
      vertex -1.21352 0.881678 0
      vertex -1.21352 0.881678 1.2
    endloop
  endfacet
  facet normal 0.891007 -0.45399 0
    outer loop
      vertex -1.21352 0.881678 0
      vertex -1.42658 0.463525 1.2
      vertex -1.42658 0.463525 0
    endloop
  endfacet
  facet normal -0.987688 0.156436 0
    outer loop
      vertex 1.42658 -0.463525 0
      vertex 1.5 0 1.2
      vertex 1.5 0 0
    endloop
  endfacet
  facet normal -0.987688 0.156436 0
    outer loop
      vertex 1.5 0 1.2
      vertex 1.42658 -0.463525 0
      vertex 1.42658 -0.463525 1.2
    endloop
  endfacet
  facet normal -0.156436 0.987688 0
    outer loop
      vertex 0.463525 -1.42658 0
      vertex 0 -1.5 1.2
      vertex 0.463525 -1.42658 1.2
    endloop
  endfacet
  facet normal -0.156436 0.987688 0
    outer loop
      vertex 0 -1.5 1.2
      vertex 0.463525 -1.42658 0
      vertex 0 -1.5 0
    endloop
  endfacet
  facet normal -0.707107 0.707107 0
    outer loop
      vertex 0.881678 -1.21352 0
      vertex 1.21352 -0.881678 1.2
      vertex 1.21352 -0.881678 0
    endloop
  endfacet
  facet normal -0.707107 0.707107 0
    outer loop
      vertex 1.21352 -0.881678 1.2
      vertex 0.881678 -1.21352 0
      vertex 0.881678 -1.21352 1.2
    endloop
  endfacet
  facet normal 0.45399 0.891007 -0
    outer loop
      vertex -0.463525 -1.42658 0
      vertex -0.881678 -1.21352 1.2
      vertex -0.463525 -1.42658 1.2
    endloop
  endfacet
  facet normal 0.45399 0.891007 0
    outer loop
      vertex -0.881678 -1.21352 1.2
      vertex -0.463525 -1.42658 0
      vertex -0.881678 -1.21352 0
    endloop
  endfacet
  facet normal 0.891007 0.45399 0
    outer loop
      vertex -1.21352 -0.881678 1.2
      vertex -1.42658 -0.463525 0
      vertex -1.42658 -0.463525 1.2
    endloop
  endfacet
  facet normal 0.891007 0.45399 0
    outer loop
      vertex -1.42658 -0.463525 0
      vertex -1.21352 -0.881678 1.2
      vertex -1.21352 -0.881678 0
    endloop
  endfacet
  facet normal -0.45399 0.891007 0
    outer loop
      vertex 0.881678 -1.21352 0
      vertex 0.463525 -1.42658 1.2
      vertex 0.881678 -1.21352 1.2
    endloop
  endfacet
  facet normal -0.45399 0.891007 0
    outer loop
      vertex 0.463525 -1.42658 1.2
      vertex 0.881678 -1.21352 0
      vertex 0.463525 -1.42658 0
    endloop
  endfacet
  facet normal -0.987688 -0.156436 0
    outer loop
      vertex 1.5 85 0
      vertex 1.42658 85.4635 1.2
      vertex 1.42658 85.4635 0
    endloop
  endfacet
  facet normal -0.987688 -0.156436 0
    outer loop
      vertex 1.42658 85.4635 1.2
      vertex 1.5 85 0
      vertex 1.5 85 1.2
    endloop
  endfacet
  facet normal 0.15644 -0.987688 0
    outer loop
      vertex -0.463525 86.4266 0
      vertex 0 86.5 1.2
      vertex -0.463525 86.4266 1.2
    endloop
  endfacet
  facet normal 0.15644 -0.987688 0
    outer loop
      vertex 0 86.5 1.2
      vertex -0.463525 86.4266 0
      vertex 0 86.5 0
    endloop
  endfacet
  facet normal -0.707108 -0.707106 0
    outer loop
      vertex 1.21352 85.8817 0
      vertex 0.881678 86.2135 1.2
      vertex 0.881678 86.2135 0
    endloop
  endfacet
  facet normal -0.707108 -0.707106 0
    outer loop
      vertex 0.881678 86.2135 1.2
      vertex 1.21352 85.8817 0
      vertex 1.21352 85.8817 1.2
    endloop
  endfacet
  facet normal -0.891006 -0.453991 0
    outer loop
      vertex 1.42658 85.4635 0
      vertex 1.21352 85.8817 1.2
      vertex 1.21352 85.8817 0
    endloop
  endfacet
  facet normal -0.891006 -0.453991 0
    outer loop
      vertex 1.21352 85.8817 1.2
      vertex 1.42658 85.4635 0
      vertex 1.42658 85.4635 1.2
    endloop
  endfacet
  facet normal 0.707108 -0.707106 0
    outer loop
      vertex -1.21352 85.8817 1.2
      vertex -0.881678 86.2135 0
      vertex -0.881678 86.2135 1.2
    endloop
  endfacet
  facet normal 0.707108 -0.707106 0
    outer loop
      vertex -0.881678 86.2135 0
      vertex -1.21352 85.8817 1.2
      vertex -1.21352 85.8817 0
    endloop
  endfacet
  facet normal 0.453989 -0.891007 0
    outer loop
      vertex -0.881678 86.2135 0
      vertex -0.463525 86.4266 1.2
      vertex -0.881678 86.2135 1.2
    endloop
  endfacet
  facet normal 0.453989 -0.891007 0
    outer loop
      vertex -0.463525 86.4266 1.2
      vertex -0.881678 86.2135 0
      vertex -0.463525 86.4266 0
    endloop
  endfacet
  facet normal -0.453989 0.891007 0
    outer loop
      vertex 0.881678 83.7865 0
      vertex 0.463525 83.5734 1.2
      vertex 0.881678 83.7865 1.2
    endloop
  endfacet
  facet normal -0.453989 0.891007 0
    outer loop
      vertex 0.463525 83.5734 1.2
      vertex 0.881678 83.7865 0
      vertex 0.463525 83.5734 0
    endloop
  endfacet
  facet normal -0.891006 0.453991 0
    outer loop
      vertex 1.21352 84.1183 0
      vertex 1.42658 84.5365 1.2
      vertex 1.42658 84.5365 0
    endloop
  endfacet
  facet normal -0.891006 0.453991 0
    outer loop
      vertex 1.42658 84.5365 1.2
      vertex 1.21352 84.1183 0
      vertex 1.21352 84.1183 1.2
    endloop
  endfacet
  facet normal 0.453989 0.891007 -0
    outer loop
      vertex -0.463525 83.5734 0
      vertex -0.881678 83.7865 1.2
      vertex -0.463525 83.5734 1.2
    endloop
  endfacet
  facet normal 0.453989 0.891007 0
    outer loop
      vertex -0.881678 83.7865 1.2
      vertex -0.463525 83.5734 0
      vertex -0.881678 83.7865 0
    endloop
  endfacet
  facet normal 0.891006 0.453991 0
    outer loop
      vertex -1.21352 84.1183 1.2
      vertex -1.42658 84.5365 0
      vertex -1.42658 84.5365 1.2
    endloop
  endfacet
  facet normal 0.891006 0.453991 0
    outer loop
      vertex -1.42658 84.5365 0
      vertex -1.21352 84.1183 1.2
      vertex -1.21352 84.1183 0
    endloop
  endfacet
  facet normal -0.15644 -0.987688 0
    outer loop
      vertex 0 86.5 0
      vertex 0.463525 86.4266 1.2
      vertex 0 86.5 1.2
    endloop
  endfacet
  facet normal -0.15644 -0.987688 -0
    outer loop
      vertex 0.463525 86.4266 1.2
      vertex 0 86.5 0
      vertex 0.463525 86.4266 0
    endloop
  endfacet
  facet normal -0.453989 -0.891007 0
    outer loop
      vertex 0.463525 86.4266 0
      vertex 0.881678 86.2135 1.2
      vertex 0.463525 86.4266 1.2
    endloop
  endfacet
  facet normal -0.453989 -0.891007 -0
    outer loop
      vertex 0.881678 86.2135 1.2
      vertex 0.463525 86.4266 0
      vertex 0.881678 86.2135 0
    endloop
  endfacet
  facet normal 0.891006 -0.453991 0
    outer loop
      vertex -1.42658 85.4635 1.2
      vertex -1.21352 85.8817 0
      vertex -1.21352 85.8817 1.2
    endloop
  endfacet
  facet normal 0.891006 -0.453991 0
    outer loop
      vertex -1.21352 85.8817 0
      vertex -1.42658 85.4635 1.2
      vertex -1.42658 85.4635 0
    endloop
  endfacet
  facet normal 0.987688 -0.156436 0
    outer loop
      vertex -1.5 85 1.2
      vertex -1.42658 85.4635 0
      vertex -1.42658 85.4635 1.2
    endloop
  endfacet
  facet normal 0.987688 -0.156436 0
    outer loop
      vertex -1.42658 85.4635 0
      vertex -1.5 85 1.2
      vertex -1.5 85 0
    endloop
  endfacet
  facet normal 0.987688 0.156436 0
    outer loop
      vertex -1.42658 84.5365 1.2
      vertex -1.5 85 0
      vertex -1.5 85 1.2
    endloop
  endfacet
  facet normal 0.987688 0.156436 0
    outer loop
      vertex -1.5 85 0
      vertex -1.42658 84.5365 1.2
      vertex -1.42658 84.5365 0
    endloop
  endfacet
  facet normal -0.987688 0.156436 0
    outer loop
      vertex 1.42658 84.5365 0
      vertex 1.5 85 1.2
      vertex 1.5 85 0
    endloop
  endfacet
  facet normal -0.987688 0.156436 0
    outer loop
      vertex 1.5 85 1.2
      vertex 1.42658 84.5365 0
      vertex 1.42658 84.5365 1.2
    endloop
  endfacet
  facet normal -0.707108 0.707106 0
    outer loop
      vertex 0.881678 83.7865 0
      vertex 1.21352 84.1183 1.2
      vertex 1.21352 84.1183 0
    endloop
  endfacet
  facet normal -0.707108 0.707106 0
    outer loop
      vertex 1.21352 84.1183 1.2
      vertex 0.881678 83.7865 0
      vertex 0.881678 83.7865 1.2
    endloop
  endfacet
  facet normal 0.15644 0.987688 -0
    outer loop
      vertex 0 83.5 0
      vertex -0.463525 83.5734 1.2
      vertex 0 83.5 1.2
    endloop
  endfacet
  facet normal 0.15644 0.987688 0
    outer loop
      vertex -0.463525 83.5734 1.2
      vertex 0 83.5 0
      vertex -0.463525 83.5734 0
    endloop
  endfacet
  facet normal 0.707108 0.707106 0
    outer loop
      vertex -0.881678 83.7865 1.2
      vertex -1.21352 84.1183 0
      vertex -1.21352 84.1183 1.2
    endloop
  endfacet
  facet normal 0.707108 0.707106 0
    outer loop
      vertex -1.21352 84.1183 0
      vertex -0.881678 83.7865 1.2
      vertex -0.881678 83.7865 0
    endloop
  endfacet
  facet normal -0.15644 0.987688 0
    outer loop
      vertex 0.463525 83.5734 0
      vertex 0 83.5 1.2
      vertex 0.463525 83.5734 1.2
    endloop
  endfacet
  facet normal -0.15644 0.987688 0
    outer loop
      vertex 0 83.5 1.2
      vertex 0.463525 83.5734 0
      vertex 0 83.5 0
    endloop
  endfacet
endsolid OpenSCAD_Model
